<svg width="314" height="306" viewBox="0 0 314 306" fill="none" xmlns="http://www.w3.org/2000/svg">
<g clip-path="url(#clip0_143_588)" filter="url(#filter0_dddd_143_588)">
<path d="M235.356 89.4961C247.597 92.3352 258.272 92.6611 264.905 95.3857C271.538 98.1103 273.201 101.165 272.603 104.065C272.004 106.965 267.422 109.46 267.422 109.46C267.422 109.46 242.671 111.651 240.95 111.4C239.229 111.149 231.997 111.325 231.9 110.783C231.803 110.242 233.348 103.262 233.155 102.18C232.961 101.097 235.356 89.4961 235.356 89.4961Z" fill="#EBBE9F"/>
<path d="M154.323 126.888C137.755 140.464 118.959 141.59 115.363 143.35C111.767 145.11 106.859 158.277 98.9307 160.812C91.0034 163.346 87.4065 165.106 88.3141 157.683C89.2209 150.258 102.193 138.442 102.193 138.442L129.995 118.947L154.323 126.888H154.323Z" fill="#EBBE9F"/>
<path d="M243.307 27.7436C235.706 19.6064 226.541 24.5961 205.81 14.8959C185.078 5.19567 172.586 4.07759 160.775 22.389C160.775 22.389 166.889 34.7032 192.375 33.4981C217.861 32.293 230.41 30.6078 230.41 30.6078L243.307 27.7436Z" fill="#833D1D"/>
<path d="M268.704 57.2783C268.977 65.0499 260.508 67.6814 260.508 67.6814C260.508 67.6814 262.361 72.8857 261.519 77.735C261.047 80.4337 259.743 83.0186 256.819 84.5412C249.519 88.3381 241.664 81.5586 236.979 80.6085C238.196 95.6579 237.932 104.146 234.868 109.102C234.864 109.113 234.855 109.121 234.851 109.133C235.931 109.236 237.081 109.231 238.3 109.08C241.439 108.698 245.103 108.104 248.854 107.545C256.876 106.357 265.291 105.322 269.742 106.811C276.278 108.993 271.581 117.095 267.791 117.773C264.001 118.451 252.09 120.58 240.122 125.513C228.153 130.447 215.776 123.721 215.776 123.721C215.776 123.721 193.89 138.807 166.507 132.53C139.125 126.254 137.055 127.183 137.055 127.183C137.055 127.183 133.402 131.746 122.71 137.568C112.017 143.39 101.304 139.72 91.114 142.1C80.9242 144.48 80.9058 150.629 69.7694 157.088C58.633 163.549 58.3605 155.776 66.2664 143.749C70.5267 137.267 76.6838 133.206 82.1493 129.838C86.8248 126.957 90.9934 124.586 93.043 121.645C97.4887 115.264 103.441 98.5581 103.441 98.5581C91.9743 100.049 81.9951 97.3644 67.7603 86.5026C63.9818 83.62 60.1666 81.8441 56.6498 80.6458C46.9019 77.3443 39.4257 78.4684 41.2845 72.8017C42.8867 67.9234 48.9004 68.9598 59.5399 73.1856C62.5833 74.3953 66.01 75.8721 69.8221 77.5366C73.7442 79.2538 78.0784 81.1831 82.8234 83.2506C108.274 94.3414 132.229 78.3273 153.674 79.5209C173.065 80.6008 186.998 76.7192 194.419 68.8842C195.21 68.0561 195.92 67.1861 196.56 66.2672C203.229 56.6952 202.49 40.0689 202.49 40.0689C194.147 42.5944 185.129 60.0884 168.824 68.0142C167.523 68.643 166.174 69.22 164.771 69.7169C159.707 71.5218 155.713 71.6493 152.568 70.8708C143.966 68.7613 141.776 59.8625 141.776 59.8625C150.492 39.8698 163.913 43.0561 182.088 35.3379C200.262 27.6197 208.617 30.5946 208.617 30.5946C208.617 30.5946 223.105 21.379 238.742 24.0914C249.052 25.8788 256.151 38.5807 258.449 43.2706C258.972 44.3505 259.245 45.0053 259.245 45.0053C268.295 45.622 268.431 49.5074 268.704 57.2798L268.704 57.2783Z" fill="#FFDAC1"/>
<path d="M258.449 43.2698C257.881 45.7174 255.622 47.2056 251.569 45.8181C246.212 43.9826 240.873 35.9996 239.848 33.3894C238.823 30.7801 241.046 27.5892 232.73 27.9585C224.415 28.3279 226.022 34.1855 231.282 35.4798C236.543 36.7742 244.087 47.7147 240.085 53.4577C236.084 59.2008 229.53 63.1656 233.592 70.2603C237.655 77.3549 236.07 80.99 228.046 82.9828C220.021 84.9762 219.831 99.5342 222.772 103.478C225.544 107.2 233.93 108.918 234.869 109.102C234.865 109.113 234.856 109.121 234.852 109.133C235.932 109.236 237.082 109.231 238.301 109.08C241.439 108.698 245.104 108.104 248.855 107.545C248.135 110.897 244.99 121.99 234.92 121.416C223.066 120.742 217.476 114.479 205.701 120.495C193.927 126.511 179.753 128.487 160.975 123.464C142.198 118.442 135.894 120.686 127.561 127.204C119.229 133.722 106.274 139.389 92.5629 134.579C87.692 132.868 84.389 131.236 82.1494 129.838C86.8249 126.957 90.9935 124.586 93.0431 121.645C97.4888 115.264 103.441 98.5581 103.441 98.5581C91.9744 100.049 81.9952 97.3644 67.7604 86.5026C63.9818 83.62 60.1666 81.8441 56.6499 80.6458C57.4323 78.7745 58.6506 75.7744 59.5392 73.1856C62.5826 74.3953 66.0093 75.8721 69.8214 77.5366C73.7435 79.2538 78.0777 81.1831 82.8227 83.2506C108.273 94.3414 132.228 78.3273 153.673 79.5209C173.064 80.6008 186.998 76.7192 194.418 68.8842C195.209 68.0561 195.919 67.1861 196.559 66.2672C203.228 56.6952 202.489 40.0689 202.489 40.0689C202.266 40.1369 202.04 40.2162 201.816 40.3063C193.654 43.5255 184.692 60.2998 168.823 68.0142C167.523 68.643 166.173 69.22 164.77 69.7169C159.707 71.5218 155.712 71.6493 152.567 70.8708C143.965 68.7613 141.776 59.8625 141.776 59.8625C150.492 39.8698 163.913 43.0561 182.087 35.3379C198.243 28.4775 206.639 30.0657 208.304 30.5053C208.515 30.5572 208.616 30.5946 208.616 30.5946C208.616 30.5946 223.104 21.379 238.742 24.0914C249.051 25.8788 256.151 38.5807 258.448 43.2706L258.449 43.2698Z" fill="#D66F34"/>
<path d="M262.34 46.6849C266.13 46.0072 266.768 46.4521 267.6 47.9793C268.432 49.5065 265.126 52.8905 261.877 53.4713C258.628 54.0521 255.495 49.0264 257.022 48.1945C258.55 47.3626 262.34 46.6849 262.34 46.6849Z" fill="black"/>
<path d="M194.419 68.8836C192.428 79.7752 198.936 90.0745 183.632 97.0677C165.553 105.328 160.192 87.8513 152.071 89.3037C143.95 90.756 149.368 105.429 135.349 105.142C121.329 104.855 132.193 90.6232 117.188 91.0712C102.182 91.52 95.6105 101.632 82.2077 92.2977C74.7086 87.0744 71.3362 81.4656 69.8232 77.5352C73.7453 79.2524 78.0796 81.1817 82.8245 83.2492C108.275 94.34 132.23 78.3258 153.675 79.5195C173.066 80.5994 187 76.7178 194.42 68.8828L194.419 68.8836Z" fill="black"/>
<path d="M261.518 77.7352C259.831 78.1763 257.577 78.4121 254.574 78.2396C242.72 77.5657 238.618 67.1267 238.618 67.1267C238.618 67.1267 243.183 70.7794 249.332 70.7977C255.481 70.8153 257.607 67.084 257.607 67.084C257.607 67.084 258.883 67.9731 260.508 67.6823C260.508 67.6823 262.36 72.8866 261.518 77.7359V77.7352Z" fill="#5E1415"/>
<path d="M257.146 73.8691C259.214 72.9403 262.947 75.0666 266.816 81.0783C270.684 87.09 270.415 94.9585 263.822 95.579C257.228 96.1995 258.676 88.6782 255.446 83.1114C252.215 77.5439 248.527 76.7868 248.527 76.7868C248.527 76.7868 250.551 74.4896 253.258 74.0057C255.965 73.5219 257.145 73.8691 257.145 73.8691H257.146Z" fill="#F27D81"/>
<path d="M208.306 30.5042C208.933 37.5371 202.172 39.8465 202.172 39.8465L201.818 40.306C193.656 43.5251 184.693 60.2994 168.825 68.0138C167.524 68.6427 166.175 69.2197 164.772 69.7165C159.708 71.5215 155.714 71.649 152.569 70.8705C143.967 68.761 141.777 59.8621 141.777 59.8621C150.493 39.8694 163.914 43.0558 182.089 35.3376C198.244 28.4772 206.64 30.0654 208.306 30.505V30.5042Z" fill="#9E4414"/>
<path d="M236.196 48.7933C237.71 47.9114 238.201 45.934 237.293 44.3767C236.386 42.8195 234.423 42.2721 232.909 43.154C231.395 44.036 230.904 46.0134 231.811 47.5706C232.719 49.1279 234.682 49.6753 236.196 48.7933Z" fill="black"/>
<path d="M236.179 44.0228C236.254 44.4723 235.95 44.8967 235.5 44.9715C235.051 45.0463 234.626 44.7425 234.551 44.293C234.477 43.8435 234.78 43.4191 235.23 43.3443C235.68 43.2695 236.104 43.5733 236.179 44.0228Z" fill="#FFDAC1"/>
<path d="M249.816 41.8808C250.735 41.3456 250.922 39.9546 250.234 38.7739C249.546 37.5932 248.243 37.0699 247.324 37.6051C246.406 38.1404 246.219 39.5313 246.907 40.712C247.595 41.8927 248.898 42.416 249.816 41.8808Z" fill="black"/>
<path d="M249.156 38.2433C249.206 38.5432 249.004 38.8263 248.704 38.876C248.404 38.9256 248.121 38.7233 248.071 38.4234C248.021 38.1234 248.224 37.8403 248.524 37.7907C248.824 37.7411 249.107 37.9433 249.156 38.2433Z" fill="#FFDAC1"/>
</g>
<defs>
<filter id="filter0_dddd_143_588" x="0" y="0" width="314" height="306" filterUnits="userSpaceOnUse" color-interpolation-filters="sRGB">
<feFlood flood-opacity="0" result="BackgroundImageFix"/>
<feColorMatrix in="SourceAlpha" type="matrix" values="0 0 0 0 0 0 0 0 0 0 0 0 0 0 0 0 0 0 127 0" result="hardAlpha"/>
<feOffset dy="6"/>
<feGaussianBlur stdDeviation="7"/>
<feColorMatrix type="matrix" values="0 0 0 0 0 0 0 0 0 0 0 0 0 0 0 0 0 0 0.1 0"/>
<feBlend mode="normal" in2="BackgroundImageFix" result="effect1_dropShadow_143_588"/>
<feColorMatrix in="SourceAlpha" type="matrix" values="0 0 0 0 0 0 0 0 0 0 0 0 0 0 0 0 0 0 127 0" result="hardAlpha"/>
<feOffset dy="26"/>
<feGaussianBlur stdDeviation="13"/>
<feColorMatrix type="matrix" values="0 0 0 0 0 0 0 0 0 0 0 0 0 0 0 0 0 0 0.09 0"/>
<feBlend mode="normal" in2="effect1_dropShadow_143_588" result="effect2_dropShadow_143_588"/>
<feColorMatrix in="SourceAlpha" type="matrix" values="0 0 0 0 0 0 0 0 0 0 0 0 0 0 0 0 0 0 127 0" result="hardAlpha"/>
<feOffset dy="57"/>
<feGaussianBlur stdDeviation="17"/>
<feColorMatrix type="matrix" values="0 0 0 0 0 0 0 0 0 0 0 0 0 0 0 0 0 0 0.05 0"/>
<feBlend mode="normal" in2="effect2_dropShadow_143_588" result="effect3_dropShadow_143_588"/>
<feColorMatrix in="SourceAlpha" type="matrix" values="0 0 0 0 0 0 0 0 0 0 0 0 0 0 0 0 0 0 127 0" result="hardAlpha"/>
<feOffset dy="102"/>
<feGaussianBlur stdDeviation="20.5"/>
<feColorMatrix type="matrix" values="0 0 0 0 0 0 0 0 0 0 0 0 0 0 0 0 0 0 0.01 0"/>
<feBlend mode="normal" in2="effect3_dropShadow_143_588" result="effect4_dropShadow_143_588"/>
<feBlend mode="normal" in="SourceGraphic" in2="effect4_dropShadow_143_588" result="shape"/>
</filter>
<clipPath id="clip0_143_588">
<rect width="232" height="155" fill="white" transform="translate(41 8)"/>
</clipPath>
</defs>
</svg>
