<svg width="38" height="38" viewBox="0 0 38 38" fill="none" xmlns="http://www.w3.org/2000/svg">
<path d="M33.25 6.94688C33.25 7.0775 33.2262 7.21406 33.1788 7.33875C32.9531 7.92062 32.11 9.5 29.6875 9.5C29.6875 9.5 27.9062 9.5 27.9062 10.6875C27.9062 11.875 30.2812 15.4375 30.2812 19.5938C30.2812 19.5938 30.2812 23.1562 27.9062 24.9375C25.5312 26.7188 26.7188 35.0312 26.7188 35.0312C26.7188 35.0312 29.0938 35.0312 29.0938 36.2188V36.8125H24.9375C24.9375 36.8125 23.1562 35.0312 23.1562 31.4688C23.1562 29.1472 23.4116 27.835 23.5838 27.1997C23.655 27.0038 23.7025 26.8612 23.7262 26.7841C23.6906 26.8553 23.6431 26.9859 23.5838 27.1997C23.1266 28.4644 21.6778 31.8725 19.2494 32.5434C19.4394 31.9022 19.5938 31.1303 19.5938 30.2812C19.5938 26.7188 16.625 26.125 16.625 26.125C16.625 26.125 19 27.3125 19 29.6875C19 30.875 18.7031 31.9141 18.4062 32.6562C18.1094 33.3984 17.8125 33.8438 17.8125 33.8438C17.8125 33.8438 18.4062 35.0312 20.1875 35.0312C21.9688 35.0312 21.9688 36.2188 21.9688 36.2188V36.8125H12.4688C10.0938 36.8125 7.71875 36.2188 7.71875 32.6562C7.71875 29.0938 7.71875 27.3125 9.5 24.9375C11.2812 22.5625 13.6562 23.1562 17.2188 18.4062C19.5284 15.3306 20.5912 12.2491 21.0544 10.4619C21.2444 10.6341 21.5056 10.6875 21.9688 10.6875C23.1562 10.6875 26.7188 10.6875 24.9375 5.9375C25.5312 9.5 23.75 10.0938 22.5625 10.0938C21.8559 10.0938 21.5709 9.67219 21.3275 9.20906C21.1672 8.88844 21.0188 8.55 20.7812 8.3125C20.1875 7.71875 19.5938 8.3125 19.5938 6.53125C19.5938 4.75 21.9688 1.78125 25.5312 1.78125C29.0938 1.78125 29.6875 4.75 29.6875 4.75C30.3941 5.45656 31.5222 5.74156 32.3178 5.86031C32.8522 5.9375 33.25 6.40062 33.25 6.94688Z" fill="white"/>
<path d="M23.7266 26.7841V26.7781C23.7384 26.7603 23.7444 26.7484 23.7444 26.7366C23.7444 26.7247 23.7503 26.7188 23.7503 26.7188" fill="white"/>
<path d="M6.53172 24.9374C5.71234 27.4014 6.59109 28.7255 7.21453 29.3133C7.12547 30.2871 7.12547 31.3677 7.12547 32.6561C7.12547 32.9233 7.13734 33.1786 7.16703 33.4161C3.51547 30.4414 3.05234 25.9883 4.75047 23.1561C6.53172 20.1874 10.688 19.5936 11.2817 20.1874C11.2817 20.1874 7.71922 21.3749 6.53172 24.9374Z" fill="white"/>
<path d="M5.32031 10.6398H15.9603M10.6403 15.9598V5.31982" stroke="white" stroke-width="2" stroke-miterlimit="10" stroke-linecap="round" stroke-linejoin="round"/>
</svg>
