<svg width="24" height="27" viewBox="0 0 24 27" fill="none" xmlns="http://www.w3.org/2000/svg">
<path d="M24 5.68644C24 5.77966 23.9833 5.87712 23.9498 5.9661C23.7907 6.38136 23.1963 7.50847 21.4884 7.50847C21.4884 7.50847 20.2326 7.50847 20.2326 8.35593C20.2326 9.20339 21.907 11.7458 21.907 14.7119C21.907 14.7119 21.907 17.2542 20.2326 18.5254C18.5581 19.7966 19.3953 25.7288 19.3953 25.7288C19.3953 25.7288 21.0698 25.7288 21.0698 26.5763V27H18.1395C18.1395 27 16.8837 25.7288 16.8837 23.1864C16.8837 21.5297 17.0637 20.5932 17.1851 20.1398C17.2353 20 17.2688 19.8983 17.2856 19.8432C17.2605 19.8941 17.227 19.9873 17.1851 20.1398C16.8628 21.0424 15.8414 23.4746 14.1293 23.9534C14.2633 23.4958 14.3721 22.9449 14.3721 22.339C14.3721 19.7966 12.2791 19.3729 12.2791 19.3729C12.2791 19.3729 13.9535 20.2203 13.9535 21.9153C13.9535 22.7627 13.7442 23.5042 13.5349 24.0339C13.3256 24.5636 13.1163 24.8814 13.1163 24.8814C13.1163 24.8814 13.5349 25.7288 14.7907 25.7288C16.0465 25.7288 16.0465 26.5763 16.0465 26.5763V27H9.34884C7.67442 27 6 26.5763 6 24.0339C6 21.4915 6 20.2203 7.25581 18.5254C8.51163 16.8305 10.186 17.2542 12.6977 13.8644C14.326 11.6695 15.0753 9.47034 15.4019 8.19492C15.5358 8.3178 15.72 8.35593 16.0465 8.35593C16.8837 8.35593 19.3953 8.35593 18.1395 4.9661C18.5581 7.50847 17.3023 7.9322 16.4651 7.9322C15.967 7.9322 15.766 7.63136 15.5944 7.30085C15.4814 7.07203 15.3767 6.83051 15.2093 6.66102C14.7907 6.23729 14.3721 6.66102 14.3721 5.38983C14.3721 4.11864 16.0465 2 18.5581 2C21.0698 2 21.4884 4.11864 21.4884 4.11864C21.9865 4.62288 22.7819 4.82627 23.3428 4.91102C23.7195 4.9661 24 5.29661 24 5.68644Z" fill="#F37C20"/>
<path d="M5.18833 18.6894C4.53081 20.5233 5.23597 21.5088 5.73625 21.9463C5.66479 22.6711 5.66479 23.4754 5.66479 24.4343C5.66479 24.6332 5.67431 24.8232 5.69814 25C2.76791 22.786 2.39628 19.4716 3.75895 17.3636C5.18833 15.154 8.52354 14.7121 9 15.154C9 15.154 6.14124 16.0378 5.18833 18.6894Z" fill="#F37C20"/>
<path d="M3.75 8H11.25M7.5 12V4" stroke="#F37C20" stroke-width="2" stroke-miterlimit="10" stroke-linecap="round" stroke-linejoin="round"/>
</svg>
