<svg width="17" height="17" viewBox="0 0 17 17" fill="none" xmlns="http://www.w3.org/2000/svg">
<path d="M14.875 3.10781C14.875 3.16625 14.8644 3.22734 14.8431 3.28312C14.7422 3.54344 14.365 4.25 13.2812 4.25C13.2812 4.25 12.4844 4.25 12.4844 4.78125C12.4844 5.3125 13.5469 6.90625 13.5469 8.76562C13.5469 8.76562 13.5469 10.3594 12.4844 11.1562C11.4219 11.9531 11.9531 15.6719 11.9531 15.6719C11.9531 15.6719 13.0156 15.6719 13.0156 16.2031V16.4688H11.1562C11.1562 16.4688 10.3594 15.6719 10.3594 14.0781C10.3594 13.0395 10.4736 12.4525 10.5506 12.1683C10.5825 12.0806 10.6037 12.0169 10.6144 11.9823C10.5984 12.0142 10.5772 12.0727 10.5506 12.1683C10.3461 12.7341 9.69797 14.2587 8.61156 14.5589C8.69656 14.272 8.76562 13.9267 8.76562 13.5469C8.76562 11.9531 7.4375 11.6875 7.4375 11.6875C7.4375 11.6875 8.5 12.2188 8.5 13.2812C8.5 13.8125 8.36719 14.2773 8.23438 14.6094C8.10156 14.9414 7.96875 15.1406 7.96875 15.1406C7.96875 15.1406 8.23438 15.6719 9.03125 15.6719C9.82812 15.6719 9.82812 16.2031 9.82812 16.2031V16.4688H5.57812C4.51562 16.4688 3.45312 16.2031 3.45312 14.6094C3.45312 13.0156 3.45312 12.2188 4.25 11.1562C5.04688 10.0938 6.10938 10.3594 7.70312 8.23438C8.73641 6.85844 9.21187 5.47984 9.41906 4.68031C9.50406 4.75734 9.62094 4.78125 9.82812 4.78125C10.3594 4.78125 11.9531 4.78125 11.1562 2.65625C11.4219 4.25 10.625 4.51562 10.0938 4.51562C9.77766 4.51562 9.65016 4.32703 9.54125 4.11984C9.46953 3.97641 9.40312 3.825 9.29688 3.71875C9.03125 3.45312 8.76562 3.71875 8.76562 2.92188C8.76562 2.125 9.82812 0.796875 11.4219 0.796875C13.0156 0.796875 13.2812 2.125 13.2812 2.125C13.5973 2.44109 14.102 2.56859 14.458 2.62172C14.697 2.65625 14.875 2.86344 14.875 3.10781Z" fill="#FCBD7B"/>
<path d="M10.6147 11.9823V11.9797C10.6201 11.9717 10.6227 11.9664 10.6227 11.9611C10.6227 11.9558 10.6254 11.9531 10.6254 11.9531" fill="#FCBD7B"/>
<path d="M2.92214 11.156C2.55557 12.2584 2.9487 12.8507 3.2276 13.1137C3.18776 13.5493 3.18776 14.0328 3.18776 14.6092C3.18776 14.7287 3.19307 14.8429 3.20635 14.9492C1.57276 13.6184 1.36557 11.6262 2.12526 10.3592C2.92214 9.03104 4.78151 8.76541 5.04714 9.03104C5.04714 9.03104 3.45339 9.56229 2.92214 11.156Z" fill="#FCBD7B"/>
<path d="M2.38037 4.76037H7.14037M4.76037 7.14037V2.38037" stroke="#FCBD7B" stroke-width="0.68" stroke-miterlimit="10" stroke-linecap="round" stroke-linejoin="round"/>
</svg>
