<svg width="46" height="46" viewBox="0 0 46 46" fill="none" xmlns="http://www.w3.org/2000/svg">
<path d="M23 1.4375C11.1118 1.4375 1.4375 11.1118 1.4375 23C1.4375 34.8881 11.1118 44.5625 23 44.5625C34.8882 44.5625 44.5625 34.8881 44.5625 23C44.5625 11.1118 34.8882 1.4375 23 1.4375ZM23 35.8225C21.505 35.8225 20.2975 34.6149 20.2975 33.1343C20.2975 31.6394 21.505 30.4318 23 30.4318C24.495 30.4318 25.7025 31.6394 25.7025 33.1343C25.7025 34.6149 24.495 35.8225 23 35.8225ZM25.7025 25.0412C25.7025 26.5362 24.495 27.7437 23 27.7437C21.505 27.7437 20.2975 26.5362 20.2975 25.0412V12.8656C20.2975 11.385 21.505 10.1774 23 10.1774C24.495 10.1774 25.7025 11.385 25.7025 12.8656V25.0412Z" fill="#FCBD7B"/>
</svg>
