<svg width="20" height="20" viewBox="0 0 20 20" fill="none" xmlns="http://www.w3.org/2000/svg">
<path d="M10.4165 2.9165C8.93315 2.9165 7.4831 3.35637 6.24973 4.18048C5.01636 5.00459 4.05507 6.17593 3.48741 7.54638C2.91975 8.91682 2.77123 10.4248 3.06062 11.8797C3.35001 13.3345 4.06431 14.6709 5.11321 15.7198C6.1621 16.7687 7.49847 17.483 8.95333 17.7724C10.4082 18.0618 11.9162 17.9133 13.2866 17.3456C14.6571 16.7779 15.8284 15.8166 16.6525 14.5833C17.4766 13.3499 17.9165 11.8999 17.9165 10.4165C17.9143 8.42806 17.1234 6.52168 15.7174 5.11564C14.3113 3.70959 12.405 2.91871 10.4165 2.9165ZM10.4165 4.58317C11.6746 4.58323 12.8984 4.99274 13.9032 5.74984L5.74984 13.9032C5.09913 13.0376 4.70272 12.0078 4.60517 10.9293C4.50761 9.85086 4.71277 8.76657 5.19759 7.79831C5.68241 6.83006 6.42768 6.01621 7.34962 5.44824C8.27157 4.88027 9.33365 4.58069 10.4165 4.58317ZM10.4165 16.2498C9.15845 16.2498 7.93459 15.8403 6.92984 15.0832L15.0832 6.92984C15.7339 7.79537 16.1303 8.82524 16.2278 9.90369C16.3254 10.9821 16.1202 12.0664 15.6354 13.0347C15.1506 14.0029 14.4053 14.8168 13.4834 15.3848C12.5614 15.9527 11.4994 16.2523 10.4165 16.2498Z" fill="#FCBD7B"/>
</svg>
