<svg width="19" height="19" viewBox="0 0 19 19" fill="none" xmlns="http://www.w3.org/2000/svg">
<path d="M8.1303 2.42432C7.14122 2.42424 6.16932 2.68279 5.31102 3.17432C4.45272 3.66585 3.73787 4.37327 3.2374 5.22638C2.73693 6.07949 2.46824 7.04864 2.45798 8.03767C2.44772 9.02669 2.69626 10.0012 3.17893 10.8645L2.4843 12.6814C2.42656 12.8324 2.41191 12.9965 2.44199 13.1554C2.47208 13.3142 2.54571 13.4616 2.65467 13.5811C2.76363 13.7005 2.90364 13.7874 3.05908 13.8319C3.21452 13.8764 3.37928 13.8769 3.53496 13.8332L5.70523 13.225C6.47398 13.5882 7.31456 13.774 8.16479 13.7686C9.01502 13.7631 9.85315 13.5666 10.6172 13.1935C11.3812 12.8205 12.0516 12.2804 12.5788 11.6133C13.1059 10.9462 13.4764 10.1691 13.6627 9.33955C13.849 8.50997 13.8465 7.64911 13.6552 6.82065C13.464 5.99219 13.089 5.21733 12.5578 4.55337C12.0267 3.8894 11.3532 3.35333 10.5869 2.98481C9.8207 2.61628 8.98055 2.42473 8.1303 2.42432ZM6.41643 14.4144C6.94858 15.0336 7.60831 15.5305 8.35043 15.8709C9.09254 16.2113 9.89948 16.3872 10.7159 16.3866C11.5825 16.3866 12.4054 16.192 13.1419 15.8429L15.3113 16.4512C15.467 16.4948 15.6317 16.4944 15.7872 16.4498C15.9426 16.4053 16.0826 16.3185 16.1916 16.199C16.3005 16.0795 16.3742 15.9321 16.4042 15.7733C16.4343 15.6144 16.4197 15.4503 16.3619 15.2993L15.6682 13.4824C16.1404 12.6363 16.3879 11.6834 16.3872 10.7144C16.3872 9.02149 15.6455 7.50135 14.4683 6.46203C14.5974 6.96462 14.6662 7.48078 14.6734 7.99963C15.2039 8.77192 15.5146 9.70739 15.5146 10.7144C15.5146 11.6307 15.258 12.4868 14.8121 13.2154L14.7004 13.3987L15.5469 15.6108L13.0511 14.9127L12.8984 14.9895C12.2439 15.3246 11.5022 15.514 10.7151 15.514C9.72565 15.514 8.76039 15.2083 7.95141 14.6387C7.43237 14.6251 6.91767 14.5498 6.41643 14.4144Z" fill="#FCBD7B"/>
</svg>
