<svg width="196" height="200" viewBox="0 0 196 200" fill="none" xmlns="http://www.w3.org/2000/svg">
<g clip-path="url(#clip0_120_9575)">
<path d="M85.192 98.8106L75.7139 112.611L77.6275 113.934L87.1057 100.134L85.192 98.8106Z" fill="#F6DBCA"/>
<path d="M77.7339 120.197L69.959 114.822L72.7059 110.822C73.4191 109.784 74.8367 109.522 75.872 110.237L79.8978 113.021C80.9331 113.736 81.194 115.159 80.4808 116.197L77.7339 120.197Z" fill="#EE2643"/>
<path d="M165.915 8.38261C165.84 8.60694 166.03 8.83548 166.26 8.78303C166.732 8.67485 167.276 8.7746 167.668 9.02656C168.475 9.5464 168.344 10.1941 168.071 11.0633C166.781 15.1673 147.042 20.2088 146.885 20.2495C143.346 21.1544 137.741 18.0203 139.918 13.8414C140.546 12.636 141.803 11.8089 143.14 11.6258C143.419 11.5874 143.522 11.2516 143.303 11.0736C142.334 10.2887 141.793 8.94132 142.025 7.69511C142.683 4.15081 147.743 3.28862 149.874 6.87272C148.797 5.37173 148.827 3.16357 149.945 1.69303C152.155 -1.21529 157.052 -0.272543 157.677 3.72229C157.72 3.99673 158.042 4.09086 158.226 3.88339C159.633 2.29529 162.23 1.8087 164.057 2.93784C165.822 4.0281 166.569 6.43952 165.916 8.38308L165.915 8.38261Z" fill="#6D6B6C"/>
<path d="M170.339 58.6025C180.92 67.6324 180.116 84.0992 183.419 96.05C184.911 101.447 187.286 106.594 190.414 111.234C191.869 113.392 192.908 114.597 192.413 117.347C191.412 122.907 185.594 124.951 179.34 116.885C169.127 103.714 155.226 84.4481 156.939 68.3672" fill="#3B3B3B"/>
<path d="M172.858 135.728C175.502 140.07 174.799 145.675 173.179 150.498C171.561 155.32 169.109 159.922 168.438 164.966C167.767 170.01 169.464 175.887 174.039 178.081C176.023 179.032 178.881 179.919 178.661 182.114C178.496 183.763 176.586 184.535 174.99 184.959C170.737 186.089 166.092 187.189 161.717 186.095C156.821 184.87 155.517 180.756 153.517 176.462C152.008 173.222 150.493 169.964 149.552 166.515C148.344 162.09 148.113 157.398 148.88 152.874" fill="#3B3B3B"/>
<path d="M112.61 148.638C111.706 145.956 110.676 143.307 109.956 140.539C105.446 123.183 109.822 103.76 118.429 88.0636C119.119 86.7523 120.716 84.9497 120.934 83.4927C121.17 81.8901 120.207 80.8341 121.514 79.2862C122.495 78.1388 123.946 77.5197 125.235 76.7367C130.545 73.6293 126.711 70.603 128.121 68.0689C129.228 66.1202 132.531 66.5936 133.765 64.7002C134.691 63.3163 133.91 61.4406 134.219 59.7837C134.795 56.777 139.319 54.2673 141.751 49.1854C142.278 48.113 144.504 45.0365 142.923 41.3681C140.824 36.4966 136.672 32.0409 137.449 26.8233C138.212 21.9611 142.949 18.902 147.232 16.4616C150.68 14.5316 154.128 12.5829 157.885 11.3629C167.706 8.20543 172.046 12.1609 176.579 14.0216C182.349 16.4161 188.504 12.9861 194.638 13.7846C195.971 13.9518 195.999 18.7606 195.999 20.1037C195.766 22.5334 194.765 24.8329 193.04 26.6229C191.552 28.1707 189.628 28.6624 188.068 29.9915C186.162 31.5941 184.819 34.5259 183.639 36.6746C178.052 47.0091 176.121 59.1973 177.659 70.9224C177.407 71.2249 177.252 71.6263 177.323 72.1691C179.007 85.026 182.24 96.5567 181.503 109.71C180.879 120.869 180.622 131.719 175.134 141.769C166.096 158.318 138.212 174.389 121.303 161.25C120.257 160.338 119.237 159.383 118.239 158.393C117.094 157.131 114.519 153.165 112.609 148.638H112.61Z" fill="#6D6B6C"/>
<path d="M179.866 29.217C179.741 28.4447 180.899 28.2644 181.023 29.0268C181.127 29.6717 182.034 30.1115 182.601 29.786C183.267 29.3987 183.86 30.4192 183.181 30.8079C181.908 31.5357 180.103 30.6753 179.866 29.217Z" fill="black"/>
<path d="M187.36 14.2037C187.522 18.0594 191.881 21.1752 195.383 22.8537C195.709 21.9793 195.909 21.0506 196 20.1042C196 18.7615 195.972 13.9522 194.639 13.785C191.234 13.3415 187.772 14.2037 187.361 14.2037H187.36Z" fill="black"/>
<path d="M173.484 15.892C173.219 14.2486 175.349 13.3312 176.356 14.6626C176.823 15.2822 175.893 15.9922 175.421 15.3736C175.313 15.2279 175.067 15.1652 174.902 15.2335C174.734 15.3057 174.612 15.5253 174.641 15.7056C174.765 16.4737 173.606 16.661 173.484 15.8925V15.892Z" fill="black"/>
<path d="M167.325 20.8367C165.885 18.5621 168.346 15.79 170.768 16.9646C171.464 17.3027 170.962 18.3611 170.258 18.0249C168.898 17.3645 167.509 18.9316 168.315 20.2073C168.735 20.8686 167.732 21.483 167.325 20.8367Z" fill="black"/>
<path d="M115.598 146.717C113.943 138.712 110.246 131.142 104.956 124.926C100.372 119.541 94.0808 115.8 88.5716 119.338C85.4826 121.322 84.199 125.403 84.7329 129.043C86.0203 137.819 99.3184 151.315 117.179 152.83" fill="#6D6B6C"/>
<path d="M147.172 139.695C149.377 144.278 148.126 149.786 146.041 154.426C143.956 159.064 141.065 163.402 139.901 168.355C138.738 173.308 139.849 179.324 144.187 181.96C146.068 183.103 148.825 184.268 148.39 186.431C148.064 188.055 146.087 188.635 144.457 188.899C140.114 189.603 135.383 190.238 131.137 188.717C126.386 187.014 125.492 182.791 123.923 178.319C122.741 174.946 121.552 171.554 120.954 168.029C120.187 163.506 120.418 158.814 121.626 154.388" fill="#6D6B6C"/>
<path d="M141.449 180.22C139.499 178.369 136.261 177.953 133.909 179.256C133.232 179.632 132.661 178.605 133.341 178.227C136.166 176.661 139.913 177.141 142.255 179.365C142.82 179.902 142.011 180.753 141.449 180.22V180.22Z" fill="black"/>
<path d="M141.302 188.364C141.669 187.923 141.462 187.069 140.93 186.851C140.209 186.557 140.657 185.468 141.373 185.762C142.641 186.281 143.081 188.071 142.2 189.121C141.711 189.706 140.8 188.964 141.303 188.364H141.302Z" fill="black"/>
<path d="M137.027 188.939C137.307 188.445 136.949 187.654 136.398 187.537C135.623 187.374 135.9 186.205 136.639 186.386C137.966 186.666 138.718 188.332 138.047 189.519C137.663 190.194 136.641 189.619 137.027 188.939Z" fill="black"/>
<path d="M140.19 165.747C139.984 162.103 142.969 159.475 145.221 156.767C149.787 151.286 151.517 143.586 149.733 136.67C147.953 129.756 142.72 123.862 136.08 121.287C135.352 121.007 135.785 119.906 136.501 120.19C143.49 122.898 148.996 129.101 150.869 136.376C152.744 143.652 150.926 151.755 146.122 157.522C144.021 160.041 141.187 162.576 141.36 165.681C141.404 166.464 140.232 166.528 140.19 165.747Z" fill="black"/>
<path d="M178.755 56.7244C166.72 62.4643 148.271 61.3258 135.63 57.1192C138.163 54.5959 139.983 52.7994 141.64 49.4893C147.702 54.2662 155.506 56.2931 163.134 57.5351C167.629 58.2573 172.377 58.7514 176.62 57.0537L178.754 56.7244H178.755Z" fill="black"/>
<path d="M177.168 53.1242C166.128 54.8504 153.965 51.2897 145.591 44.8385C144.609 44.0826 143.816 42.939 142.418 43.3904C140.05 44.1562 138.381 48.5584 140.218 52.0409C140.637 52.8361 141.318 53.1846 142.068 53.651C148.498 57.6515 156.123 59.3454 163.672 59.7622C168.883 60.0498 174.211 59.7735 178.54 56.8815C180.223 55.758 179.2 52.8062 177.168 53.1242Z" fill="#FFD550"/>
<path d="M180.329 60.369C179.153 57.3712 174.54 57.0897 173.335 61.2288C172.753 63.229 172.872 67.6318 174.537 69.6784C175.297 70.6131 176.651 71.2903 177.713 70.5598C178.675 69.8971 179.472 68.6368 179.971 67.6027C181.048 65.373 181.239 62.6886 180.329 60.369Z" fill="black"/>
<path d="M182.889 61.3669C184.396 64.995 183.674 68.7487 181.277 69.7509C178.88 70.7531 175.715 68.6241 174.209 64.996C172.702 61.3679 173.424 57.6137 175.821 56.612C178.218 55.6098 181.383 57.7388 182.89 61.3669H182.889Z" fill="#FFD550"/>
<path d="M177.804 67.1682C174.557 64.561 175.011 59.623 177.109 58.7093C179.163 57.8082 181.045 60.1859 181.339 62.7589C181.67 65.7089 178.643 65.6321 178.58 63.9939C178.55 63.2132 179.723 63.1738 179.752 63.948C180.998 63.918 179.427 58.98 177.576 59.7878C176.328 60.332 176.014 64.2243 178.537 66.2489C179.145 66.7359 178.406 67.6487 177.804 67.1682H177.804Z" fill="black"/>
<path d="M138.837 39.467C140.032 40.376 141.621 40.6462 143.11 40.4743C146.098 40.1297 152.355 37.02 156.058 32.7395C158.423 30.0058 160.043 26.5397 160.178 22.9229C161.538 27.3935 162.326 32.2426 160.97 36.7146C159.615 41.1867 155.628 45.1103 150.97 45.122C147.11 45.1319 143.586 42.4807 139.917 41.2752" fill="black"/>
<path d="M156.407 17.3066C148.865 23.2928 141.323 29.2785 133.781 35.2646C132.877 35.9816 131.918 36.7848 131.654 37.9102C131.261 39.5925 132.612 41.2096 134.111 42.061C136.113 43.1986 138.458 43.5344 140.746 43.7859C143.804 44.1226 146.948 44.3403 149.913 43.5147C157.348 41.4437 163.219 32.9844 161.311 20.8055" fill="#6D6C6C"/>
<path d="M81.023 126.851L36.2491 192.049C34.3643 194.794 30.5966 195.49 27.8487 193.59L5.70404 178.28C2.95619 176.38 2.26258 172.6 4.14738 169.855L48.9208 104.658C50.8145 101.901 54.5733 101.217 57.3212 103.116L79.4659 118.426C82.2142 120.326 82.9162 124.094 81.0226 126.851L81.023 126.851Z" fill="#F3D84D"/>
<path d="M36.3634 191.874L36.2491 192.041C34.3587 194.793 30.5947 195.489 27.8468 193.589L25.2129 191.768C25.6339 191.136 26.0778 190.461 26.566 189.928C28.2301 188.119 29.9085 188.302 31.8848 189.217C33.462 189.945 34.9659 190.837 36.3634 191.874V191.874Z" fill="#EE2643"/>
<path d="M8.76132 180.395L5.70401 178.281C2.95664 176.382 2.26349 172.605 4.15342 169.852L4.25237 169.708C5.88232 170.706 7.39837 171.889 8.76039 173.231C10.3329 174.774 11.0835 176.269 9.99218 178.471C9.66918 179.12 9.19961 179.776 8.76085 180.395L8.76132 180.395Z" fill="#EE2643"/>
<path d="M28.2119 199.999C30.4706 199.999 32.3017 198.162 32.3017 195.895C32.3017 193.629 30.4706 191.792 28.2119 191.792C25.9531 191.792 24.1221 193.629 24.1221 195.895C24.1221 198.162 25.9531 199.999 28.2119 199.999Z" fill="black"/>
<path d="M29.7531 196.583C30.13 195.728 29.7451 194.729 28.8934 194.351C28.0416 193.973 27.0457 194.359 26.6688 195.213C26.2919 196.068 26.6768 197.067 27.5285 197.445C28.3802 197.824 29.3762 197.437 29.7531 196.583Z" fill="white"/>
<path d="M4.39159 183.311C6.64375 183.138 8.32997 181.166 8.15786 178.907C7.98575 176.647 6.02049 174.955 3.76833 175.128C1.51617 175.3 -0.170049 177.272 0.00205968 179.532C0.174168 181.792 2.13943 183.484 4.39159 183.311Z" fill="black"/>
<path d="M4.39025 180.884C5.30624 180.715 5.91212 179.833 5.7435 178.914C5.57489 177.995 4.69564 177.387 3.77965 177.556C2.86365 177.725 2.25778 178.607 2.42639 179.526C2.59501 180.445 3.47425 181.053 4.39025 180.884Z" fill="white"/>
<path d="M71.1542 134.144L45.6437 116.508C45.0322 116.085 45.6689 115.158 46.2803 115.581L71.7909 133.217C72.4023 133.639 71.7657 134.567 71.1542 134.144Z" fill="#F8A823"/>
<path d="M59.7489 150.776L34.2384 133.14C33.6269 132.717 34.2636 131.79 34.875 132.212L60.3856 149.849C60.9971 150.271 60.3604 151.199 59.7489 150.776Z" fill="#F8A823"/>
<path d="M48.3437 167.408L22.8331 149.772C22.2216 149.349 22.8583 148.421 23.4698 148.844L48.9803 166.481C49.5918 166.903 48.9551 167.831 48.3437 167.408Z" fill="#F8A823"/>
<path d="M36.7978 183.943L11.2872 166.307C10.6757 165.884 11.3124 164.956 11.9239 165.379L37.4344 183.016C38.0459 183.438 37.4092 184.366 36.7978 183.943Z" fill="#F8A823"/>
<path d="M43.5589 135.354L30.4475 154.446C29.8827 155.268 28.7588 155.472 27.9387 154.906C27.1232 154.342 26.9127 153.215 27.4775 152.392L40.5889 133.301C41.1537 132.478 42.2781 132.274 43.0936 132.838C43.9104 133.403 44.1284 134.525 43.5589 135.354Z" fill="#EE2643"/>
<path d="M55.8293 123.116L55.2122 121.503C55.096 121.2 55.2458 120.86 55.5483 120.743L59.871 119.075C60.1716 118.959 60.5137 119.111 60.6285 119.413L61.247 121.026C61.3623 121.322 61.219 121.668 60.9109 121.786L56.5868 123.454C56.2755 123.572 55.9418 123.412 55.8293 123.115V123.116ZM56.5163 121.631L56.7133 122.144L59.9429 120.9L59.7445 120.385L56.5168 121.63L56.5163 121.631Z" fill="black"/>
<path d="M59.3087 120.742C59.6765 119.629 60.9335 118.939 62.0752 119.236C62.8253 119.43 62.5307 120.577 61.7788 120.374C61.2551 120.238 60.5969 120.586 60.42 121.113C60.1768 121.853 59.0627 121.482 59.3087 120.742V120.742Z" fill="black"/>
<path d="M86.018 101.557L84.3699 100.417C83.1754 99.5918 82.8744 97.9503 83.6973 96.7519L87.4388 91.3034C88.2618 90.1049 89.8978 89.8028 91.0922 90.6285L92.7404 91.7679C93.9348 92.5936 94.2359 94.2351 93.413 95.4335L89.6714 100.882C88.8485 102.081 87.2125 102.383 86.018 101.557Z" fill="#EE2643"/>
<path d="M137.104 63.2393C134.65 71.2748 127.214 76.9542 119.283 79.6588C106.988 83.8513 93.2985 82.058 88.6196 84.2849C85.2444 85.8913 83.8344 90.3994 86.9122 93.0839C90.5898 96.2919 96.2755 94.1798 99.8434 93.4656C104.174 92.5991 110.6 92.0863 114.484 94.5671C118.375 97.0515 123.036 98.1146 127.609 98.6869C137.543 99.9299 147.767 98.301 157.193 95.0846" fill="#6D6B6C"/>
<path d="M126.201 98.6313C125.46 98.4252 125.758 97.2956 126.516 97.4975C134.388 99.6897 143.436 97.6164 149.578 92.2204C150.162 91.709 150.935 92.5927 150.35 93.106C144.003 98.6828 134.547 100.955 126.201 98.6313Z" fill="black"/>
<path d="M67.6238 110.244L16.0039 185.406L17.2361 186.258L68.8561 111.096L67.6238 110.244Z" fill="black"/>
</g>
<defs>
<clipPath id="clip0_120_9575">
<rect width="196" height="200" fill="white"/>
</clipPath>
</defs>
</svg>
