<svg width="96" height="49" viewBox="0 0 96 49" fill="none" xmlns="http://www.w3.org/2000/svg">
<g clip-path="url(#clip0_1338_166)">
<path d="M34.4375 16.798C34.2637 20.502 34.8637 24.4275 33.9805 28.0445C33.6524 29.382 32.0178 32.3905 32.0178 33.3439V46.6624H46.542C42.6137 40.034 34.1768 31.5213 40.3622 23.6648C47.0467 15.1718 59.7596 22.0722 57.4492 32.4158C56.3556 37.317 51.8133 42.4201 49.2309 46.6624H63.7551C63.7691 43.6566 63.7411 40.6452 63.7439 37.6394C63.7439 36.8572 64.0495 36.1534 64.0271 35.2393C63.957 32.0849 61.9634 29.7072 61.6298 26.8584C61.2765 23.8218 61.8653 20.3282 61.5625 17.2383C61.3269 16.5148 58.1557 16.8737 57.0762 16.613C54.8023 16.0662 52.0797 13.3941 51.0619 11.3276C50.5487 10.2874 49.2029 6.46005 50.0272 5.62449C50.9749 4.66275 56.636 5.64692 58.3857 5.10857C60.4661 3.4739 61.4531 1.30368 64.229 0.459704C70.6724 -1.49742 76.2549 3.01406 75.8484 9.66211C75.624 13.3212 75.3016 13.6493 76.8045 17.3224C79.3925 23.648 83.6768 26.2556 87.8266 31.0503C88.4743 31.7989 89.1445 33.2345 89.6996 33.7504C90.2155 34.2299 90.9081 32.755 91.0483 32.3961C91.668 30.8147 91.6259 28.9473 90.967 27.3688C90.4371 26.0986 88.0678 24.6406 90.2352 23.7966C93.0867 24.8817 94.012 28.8857 93.541 31.6643C93.2382 33.4448 90.981 35.7748 90.9277 36.5824C90.8773 37.303 91.3848 38.4273 91.4493 39.2657C91.6455 41.8481 90.7455 44.108 89.0379 45.9951C88.7379 46.3259 88.208 46.2502 88.2248 46.6624H95.3523L95.9832 47.6522C96.0617 47.9326 95.4392 48.5466 95.3523 48.5466H0.412174C-0.137391 48.5466 -0.137391 46.6624 0.412174 46.6624H7.53969C5.78165 44.9016 4.32642 42.7061 4.34044 40.0985C4.34605 39.0162 5.04422 37.3787 4.85075 36.3132C4.73579 35.6767 3.29739 34.2187 2.91886 33.3915C1.40195 30.0829 2.23751 25.5771 5.52649 23.791C7.62661 24.663 5.64986 25.8462 5.06665 27.1052C3.99836 29.4156 3.93107 32.413 6.18821 34.0168C10.3296 27.1585 17.0113 23.976 19.6497 15.8643C20.8751 12.0987 19.7535 10.2201 20.2498 6.7769C21.0517 1.22237 27.7362 -1.41611 32.5533 0.78776C34.6058 1.72707 35.8058 3.86084 37.5863 5.17026C39.0976 5.55439 44.711 4.74407 45.6279 5.46747C47.2345 6.73484 44.5147 11.9781 43.4521 13.2988C42.6866 14.2493 39.7705 16.7924 38.6069 16.7924H34.4375V16.798ZM43.853 7.37973H37.2639C35.7862 7.37973 34.087 4.39077 32.8085 3.49633C29.2026 0.975622 23.8752 2.25701 22.4733 6.57501C21.5704 9.34807 22.9527 16.9635 26.9034 13.9661C29.3765 12.0875 26.5501 7.20028 27.31 4.68799L27.9633 4.27581C28.2521 4.21132 28.5886 4.35432 28.7849 4.5562C29.5587 5.35812 30.2934 11.2968 30.0747 12.5613C29.4494 16.1616 24.851 18.1383 22.0723 15.4522C20.662 20.4543 17.5104 24.5256 14.0083 28.238C12.9148 29.396 11.4848 30.3185 10.366 31.5886C7.29295 35.0823 4.18342 41.6378 9.07062 44.9997C9.65103 45.4006 12.497 46.6596 13.0606 46.6596H21.3994L21.8003 45.9923C20.233 43.3734 17.4094 45.367 15.4747 43.9707C14.5186 42.0556 18.4805 42.4425 18.8338 40.048C19.4198 36.0637 15.3738 37.5077 14.0027 36.8403C13.0578 36.3805 13.3017 35.1552 14.4653 34.8832C18.8759 33.8514 23.0957 38.3012 19.9245 42.221C22.1172 43.1715 23.878 43.8529 23.6874 46.6596H26.3735C25.5407 44.7726 24.9043 43.1323 24.5706 41.0658C24.2369 38.9993 23.679 33.6775 23.9734 31.7456C24.2509 29.9175 26.1071 30.4671 26.1071 30.9213V35.629C26.5754 35.7468 26.6455 35.4356 26.9147 35.2281C29.8503 32.9794 32.029 28.6698 32.3038 25.0135C32.4411 23.1853 31.914 16.4784 32.4243 15.4466C33.0524 14.1764 36.8096 14.8185 38.0602 14.625C40.651 14.2241 43.6343 9.92848 43.8614 7.37693L43.853 7.37973ZM58.5118 7.37973C56.5996 7.69658 53.9274 7.14701 51.9227 7.37973C52.4806 9.88642 54.0256 12.3006 56.1397 13.7895C58.6324 15.5475 60.8194 13.8624 63.3514 15.1858C64.2346 16.4139 63.5476 24.1919 63.7607 26.3453C64.114 29.9091 67.0217 33.6495 69.677 35.8982V31.1905C69.677 30.1979 71.4855 30.2596 71.7743 31.2437C72.0154 32.0653 71.8949 35.5057 71.8388 36.5824C71.6621 39.9443 71.0845 43.7155 69.4078 46.6568L72.0715 46.6316C72.2089 44.0183 73.7146 43.1715 75.8568 42.221C73.5688 39.1872 75.5343 35.2085 79.2243 34.8215C80.3682 34.701 81.8739 34.6561 82.5469 35.7973C82.1179 38.0208 79.5832 36.2431 77.9176 37.5469C75.5511 39.3975 77.9989 42.4313 80.3991 42.6584L80.3178 44.2538C79.7234 45.1259 73.7903 43.2725 74.2501 46.6568H82.7235C84.5965 46.6568 87.7902 44.6352 88.651 42.8996C92.0605 36.0216 83.5086 30.2484 79.7598 25.9444C77.1746 22.975 74.895 19.3159 73.9781 15.4494C71.8892 16.7644 70.2742 17.3364 68.0815 15.8363C64.0411 13.0745 66.2422 8.44241 66.9572 4.57583C67.1338 4.32068 68.1264 4.3375 68.4208 4.4104C69.9714 4.78332 66.2702 12.1043 69.2732 14.1063C72.2594 16.0999 73.5688 11.7005 73.723 9.40695C74.1744 2.6159 66.6628 -0.0337828 61.9999 4.4076C60.9148 5.43943 60.2867 7.08532 58.5146 7.37973H58.5118ZM46.4747 22.2432C43.1156 22.7788 40.2416 26.7575 40.351 30.0998C40.4547 33.2457 43.6287 38.3012 45.4064 40.9368C45.7765 41.4836 47.6495 44.3155 48.0168 44.237C51.132 39.8181 56.9472 33.0214 55.0069 27.2958C53.7648 23.634 50.274 21.6348 46.4719 22.2404L46.4747 22.2432ZM29.8672 35.6319L26.6988 38.1077L26.6202 38.447C26.5558 40.3228 26.8502 42.235 27.5848 43.9678C27.9269 44.7726 28.9138 46.8615 29.8672 46.6624V35.6319ZM66.1777 46.6624C66.9656 46.5362 67.8797 44.938 68.1937 44.2398C68.662 43.2024 69.4891 40.0508 69.4302 38.9909C69.3573 37.7095 67.0301 36.5543 66.1777 35.6319V46.6624Z" fill="white"/>
<circle cx="47.9467" cy="29.4411" r="2.66371" stroke="white" stroke-width="1.40195"/>
</g>
<defs>
<clipPath id="clip0_1338_166">
<rect width="96" height="48.544" fill="white"/>
</clipPath>
</defs>
</svg>
