<svg width="33" height="33" viewBox="0 0 33 33" fill="none" xmlns="http://www.w3.org/2000/svg">
<g clip-path="url(#clip0_97_4103)">
<path d="M31.1891 12.9167L28.6041 12.5881C28.391 11.9323 28.1284 11.2998 27.8217 10.6989L29.4181 8.64325C30.0644 7.81137 29.9887 6.63713 29.2504 5.92213L27.0847 3.7565C26.3629 3.01125 25.1886 2.937 24.3554 3.58188L22.3025 5.17825C21.7016 4.87162 21.0691 4.609 20.4119 4.39587L20.0832 1.815C19.9595 0.779625 19.0809 0 18.04 0H14.96C13.9191 0 13.0405 0.779625 12.9167 1.81088L12.5881 4.39587C11.9309 4.609 11.2984 4.87025 10.6975 5.17825L8.64325 3.58188C7.81275 2.937 6.6385 3.01125 5.92212 3.74962L3.7565 5.91388C3.01125 6.63713 2.93562 7.81138 3.58187 8.64463L5.17825 10.6989C4.87025 11.2998 4.609 11.9323 4.39587 12.5881L1.815 12.9167C0.779625 13.0405 0 13.9191 0 14.96V18.04C0 19.0809 0.779625 19.9595 1.81087 20.0833L4.39587 20.4119C4.609 21.0678 4.87162 21.7003 5.17825 22.3011L3.58187 24.3568C2.93562 25.1886 3.01125 26.3629 3.74962 27.0779L5.91525 29.2435C6.6385 29.9874 7.81137 30.0616 8.64462 29.4167L10.6989 27.8204C11.2997 28.1284 11.9322 28.391 12.5881 28.6028L12.9167 31.1822C13.0405 32.2204 13.9191 33 14.96 33H18.04C19.0809 33 19.9595 32.2204 20.0832 31.1891L20.4119 28.6041C21.0677 28.391 21.7002 28.1284 22.3011 27.8217L24.3567 29.4181C25.1886 30.0644 26.3629 29.9888 27.0779 29.2504L29.2435 27.0847C29.9887 26.3615 30.0644 25.1886 29.4181 24.3554L27.8217 22.3011C28.1297 21.7003 28.3924 21.0678 28.6041 20.4119L31.1836 20.0833C32.219 19.9595 32.9986 19.0809 32.9986 18.04V14.96C33 13.9191 32.2204 13.0405 31.1891 12.9167ZM16.5 23.375C12.7091 23.375 9.625 20.2909 9.625 16.5C9.625 12.7091 12.7091 9.625 16.5 9.625C20.2909 9.625 23.375 12.7091 23.375 16.5C23.375 20.2909 20.2909 23.375 16.5 23.375Z" fill="#F37C20"/>
</g>
<defs>
<clipPath id="clip0_97_4103">
<rect width="33" height="33" fill="white"/>
</clipPath>
</defs>
</svg>
