<svg width="32" height="32" viewBox="0 0 32 32" fill="none" xmlns="http://www.w3.org/2000/svg">
<g clip-path="url(#clip0_97_4066)">
<path d="M16 17.5665C20.8509 17.5665 24.7833 13.6341 24.7833 8.78324C24.7833 3.93239 20.8509 0 16 0C11.1492 0 7.2168 3.93239 7.2168 8.78324C7.2168 13.6341 11.1492 17.5665 16 17.5665Z" fill="#F37C20"/>
<path d="M29.6745 32.0001V25.4579C29.6745 23.4566 28.4128 21.6646 26.505 20.9546L20.8761 18.8608H20.3539C19.0698 19.5821 17.5856 20.0006 15.9999 20.0006C14.4141 20.0006 12.9299 19.5821 11.6458 18.8608H11.1237L5.49472 20.9546C3.58691 21.6636 2.3252 23.4556 2.3252 25.4569V31.9991H29.6745V32.0001Z" fill="#F37C20"/>
</g>
<defs>
<clipPath id="clip0_97_4066">
<rect width="32" height="32" fill="white"/>
</clipPath>
</defs>
</svg>
