<svg width="29" height="29" viewBox="0 0 29 29" fill="none" xmlns="http://www.w3.org/2000/svg">
<g clip-path="url(#clip0_97_4030)">
<path fill-rule="evenodd" clip-rule="evenodd" d="M7.59508 2.86002C11.4091 -0.955358 17.5944 -0.952111 21.4076 2.8624C25.0013 6.45743 25.2428 12.2109 21.9585 16.0923L15.4221 23.817C15.1924 24.0884 14.8549 24.2448 14.4994 24.2446C14.1439 24.2444 13.8066 24.0875 13.5772 23.8159L7.03903 16.07C3.76488 12.1911 4.00656 6.44984 7.59508 2.86002ZM9.66855 9.74463C9.66855 7.07525 11.8317 4.91129 14.5001 4.91129C17.1685 4.91129 19.3318 7.07525 19.3318 9.74463C19.3318 12.4141 17.1685 14.5779 14.5001 14.5779C11.8317 14.5779 9.66855 12.4141 9.66855 9.74463Z" fill="#F37C20"/>
<path d="M5.68116 21.0922C5.98516 20.4982 5.75023 19.7701 5.15642 19.466C4.56261 19.1619 3.83479 19.3969 3.53079 19.9909L1.61035 23.7435C0.354993 26.1965 2.20389 28.9999 4.89793 28.9999H24.1024C26.7964 28.9999 28.6453 26.1965 27.3899 23.7435L25.4695 19.9909C25.1655 19.3969 24.4377 19.1619 23.844 19.466C23.2501 19.7701 23.0152 20.4982 23.3192 21.0922L25.2396 24.8448C25.6289 25.6055 25.0859 26.5832 24.1024 26.5832H4.89793C3.9144 26.5832 3.3714 25.6055 3.76071 24.8448L5.68116 21.0922Z" fill="#F37C20"/>
</g>
<defs>
<clipPath id="clip0_97_4030">
<rect width="29" height="29" fill="white"/>
</clipPath>
</defs>
</svg>
