<svg width="31" height="27" viewBox="0 0 31 27" fill="none" xmlns="http://www.w3.org/2000/svg">
<path d="M16.387 21.642C15.1558 20.2538 15.1252 18.2632 16.3187 17.2046C16.9072 16.6827 17.7233 16.4602 18.562 16.5902C18.4529 14.7324 19.5904 13.1099 21.1992 12.9051C22.2325 12.7735 23.2243 13.2579 23.8972 14.1048C24.5698 13.2578 25.5614 12.7735 26.5956 12.9051C27.4817 13.0179 28.2246 13.5612 28.6954 14.3365C29.916 12.8702 30.5637 10.9266 30.5637 8.8676C30.5637 3.97018 26.5936 0 21.6961 0C19.1724 0 16.8967 1.05606 15.2819 2.74823C13.667 1.05606 11.3913 0 8.8676 0C3.97018 0 0 3.97018 0 8.8676C0 11.0775 0.745886 13.1547 2.14561 14.6514C4.83713 17.5292 15.2819 26.9936 15.2819 26.9936C15.2819 26.9936 16.3648 26.0123 17.9231 24.5856C17.957 23.9604 18.1361 23.3614 18.438 22.8312C17.6959 22.6918 16.961 22.2891 16.387 21.642Z" fill="#F37C20"/>
<path d="M21.8834 18.293C22.5831 18.2039 23.0689 17.3019 22.9444 16.3232C22.8198 15.3445 22.1237 14.5929 21.4238 14.682C20.7241 14.771 20.2383 15.6731 20.3627 16.6517C20.4874 17.6304 21.1839 18.3819 21.8834 18.293Z" fill="#F37C20"/>
<path d="M19.3749 18.9907C19.0771 18.655 18.6858 18.4256 18.3011 18.3616C18.1158 18.3307 17.766 18.3134 17.5056 18.5444C17.0585 18.9409 17.1592 19.8153 17.7254 20.4537C18.2917 21.0922 19.1479 21.2965 19.5948 20.9C20.0418 20.5035 19.9412 19.6292 19.3749 18.9907Z" fill="#F37C20"/>
<path d="M25.9081 18.2926C26.6079 18.3816 27.3042 17.6302 27.4288 16.6515C27.5 16.0921 27.3627 15.3994 26.9642 14.9805C26.467 14.458 25.7321 14.681 25.3188 15.1858C25.0555 15.5073 24.8993 15.9127 24.8472 16.3228C24.7225 17.3015 25.2084 18.2036 25.9081 18.2926Z" fill="#F37C20"/>
<path d="M29.7011 18.3418C29.2786 18.3418 28.7849 18.5736 28.4148 18.9908C27.8487 19.6292 27.748 20.5036 28.195 20.9001C28.4554 21.1311 28.8052 21.1138 28.9906 21.0829C29.3752 21.0189 29.7666 20.7895 30.0643 20.4538C30.6306 19.8154 30.7313 18.941 30.2842 18.5445C30.1293 18.407 29.9252 18.3418 29.7011 18.3418Z" fill="#F37C20"/>
<path d="M28.0851 24.8034C28.0851 24.0674 27.7195 23.3844 27.1072 22.9761L26.2253 22.3882L26.2118 21.9259C26.175 20.6653 25.1575 19.6777 23.8954 19.6777C22.6332 19.6777 21.6157 20.6652 21.5789 21.9259L21.5654 22.3882L20.6835 22.9762C20.0711 23.3844 19.7056 24.0675 19.7056 24.8035C19.7056 26.0145 20.6908 26.9997 21.9017 26.9997H25.8889C27.0999 26.9996 28.0851 26.0144 28.0851 24.8034Z" fill="#F37C20"/>
</svg>
