<svg width="28" height="28" viewBox="0 0 28 28" fill="none" xmlns="http://www.w3.org/2000/svg">
<g clip-path="url(#clip0_97_4094)">
<path d="M23.0272 13.6622C22.3466 11.6554 22.3388 9.97589 22.3388 9.90534C22.3388 7.8747 21.7781 5.95262 20.6724 4.19253C20.3343 3.65438 19.9938 3.21397 19.7074 2.87959L19.0717 2.22441L18.0656 1.94095C15.4058 1.19159 12.5939 1.19153 9.93409 1.94095L8.92916 2.22408L8.26085 2.91656C7.98111 3.24623 7.65308 3.6738 7.32724 4.19253C6.22157 5.95262 5.66089 7.8747 5.66089 9.90534C5.66089 9.97589 5.65307 11.6554 4.9724 13.6622C4.59318 14.78 4.07827 15.78 3.44141 16.6475C3.79607 17.3522 4.24398 17.9552 4.61822 18.3954C4.71864 18.2438 4.82676 18.0965 4.94292 17.9545C6.92899 15.5272 10.089 14.2028 13.7113 12.8414L13.9999 12.7329L14.2884 12.8414C17.9107 14.2028 21.0707 15.5272 23.0567 17.9545C23.1726 18.096 23.2804 18.2429 23.3805 18.394C23.7556 17.9525 24.2045 17.3489 24.5582 16.6475C23.9214 15.78 23.4065 14.78 23.0272 13.6622ZM9.84872 11.9702H8.00381V10.3295H9.84872V11.9702ZM19.9958 11.9702H18.1509V10.3295H19.9958V11.9702Z" fill="#F37C20"/>
<path d="M16.0158 26.1651C15.5549 25.8941 15.1265 25.5518 14.7476 25.1396L14.0001 24.3262L13.2525 25.1396C12.8735 25.5519 12.4446 25.8936 11.9834 26.1647C13.2526 26.773 14.7465 26.7732 16.0158 26.1651Z" fill="#F37C20"/>
<path d="M22.6052 22.0115C22.7735 20.9347 22.4754 19.8347 21.7873 18.9937C20.2453 17.1092 17.9404 15.9789 14.0002 14.4863C10.06 15.979 7.75501 17.1092 6.21303 18.9937C5.52492 19.8347 5.22681 20.9347 5.39514 22.0115C5.56468 23.0958 6.19006 24.0599 7.11099 24.6565C8.69366 25.6819 10.7685 25.4184 12.0446 24.0299L12.7474 23.2652L12.2 22.9003C11.0807 22.1541 10.4124 20.9054 10.4124 19.5601V19.174L10.71 18.9279C12.6164 17.3517 15.3838 17.3517 17.2902 18.9279L17.5878 19.174V19.5601C17.5878 20.9054 16.9196 22.1541 15.8002 22.9003L15.2528 23.2652L15.9557 24.0299C17.2317 25.4183 19.3066 25.6818 20.8892 24.6565C21.8103 24.0599 22.4357 23.0958 22.6052 22.0115Z" fill="#F37C20"/>
<path d="M15.9149 19.9503C14.753 19.1975 13.2469 19.1975 12.085 19.9503C12.1914 20.5924 12.5579 21.167 13.1099 21.535L13.9999 22.1284L14.89 21.535C15.4419 21.167 15.8084 20.5924 15.9149 19.9503Z" fill="#F37C20"/>
<path d="M27.4597 17.2815C27.439 15.5423 27.4839 12.6013 27.912 10.0395C28.1659 8.51959 27.8666 6.96104 27.0692 5.65094C26.2709 4.33926 25.0259 3.36567 23.5634 2.90961C22.9116 2.70632 22.2129 2.5545 21.4731 2.45508C22.6012 3.96118 23.9796 6.49874 23.9796 9.90571C23.9797 9.91927 23.9921 11.4247 24.5974 13.1827C25.2059 14.9502 26.1659 16.3234 27.4597 17.2815Z" fill="#F37C20"/>
<path d="M3.40264 13.1828C4.00789 11.4247 4.0203 9.91927 4.02036 9.90429C4.02036 6.4982 5.39876 3.96108 6.5268 2.45508C5.78717 2.55456 5.0884 2.70638 4.43666 2.90961C2.97425 3.36567 1.72918 4.3392 0.930813 5.65094C0.133433 6.96104 -0.16583 8.51959 0.0880954 10.0395C0.516154 12.6013 0.561054 15.5423 0.540381 17.2815C1.83418 16.3234 2.79415 14.9502 3.40264 13.1828Z" fill="#F37C20"/>
</g>
<defs>
<clipPath id="clip0_97_4094">
<rect width="28" height="28" fill="white"/>
</clipPath>
</defs>
</svg>
