<svg width="31" height="31" viewBox="0 0 31 31" fill="none" xmlns="http://www.w3.org/2000/svg">
<g clip-path="url(#clip0_97_4034)">
<path d="M12.4004 6.20117C5.56322 6.20117 0.000696106 11.2069 0.000696106 17.3609C0.000696106 19.1688 0.470668 20.8973 1.40062 22.4994C1.88918 23.3401 2.00695 24.2614 1.72922 25.0897L0.0317571 30.1834C-0.0438671 30.4116 0.0181339 30.6608 0.190453 30.8257C0.308218 30.9398 0.463221 31.0006 0.620706 31.0006C0.692637 31.0006 0.76705 30.987 0.837709 30.9609L7.82245 28.3421C8.37797 28.1326 8.9384 28.0817 9.44059 28.1933C10.4127 28.4103 11.4084 28.5206 12.4004 28.5206C19.2364 28.5206 24.8001 23.5136 24.8001 17.3609C24.8001 11.207 19.2364 6.20117 12.4004 6.20117Z" fill="#F37C20"/>
<path d="M29.2701 18.8895C28.9924 18.0612 29.1102 17.1411 29.5987 16.2992C30.5287 14.6971 30.9999 12.9686 30.9999 11.1607C30.9999 5.00677 25.4361 0.000976562 18.6002 0.000976562C14.7959 0.000976562 11.2558 1.54476 8.88502 4.23793C8.70894 4.43756 8.68042 4.7277 8.81187 4.95833C8.94453 5.18775 9.2124 5.31048 9.47027 5.25592C10.4524 5.05999 11.4369 4.96081 12.4003 4.96081C19.9207 4.96081 26.04 10.5221 26.04 17.3605C26.04 19.0022 25.6878 20.6018 24.9947 22.1133C24.9215 22.2696 24.9178 22.4494 24.9847 22.6081C25.0504 22.7668 25.1782 22.892 25.3394 22.9528L30.1616 24.7607C30.2323 24.7867 30.3067 24.8003 30.3799 24.8003C30.5361 24.8003 30.6911 24.7396 30.8089 24.6255C30.9813 24.4605 31.0433 24.2113 30.9676 23.9832L29.2701 18.8895Z" fill="#F37C20"/>
</g>
<defs>
<clipPath id="clip0_97_4034">
<rect width="31" height="31" fill="white"/>
</clipPath>
</defs>
</svg>
