<svg width="393" height="852" viewBox="0 0 393 852" fill="none" xmlns="http://www.w3.org/2000/svg">
<g clip-path="url(#clip0_21_2382)">
<rect width="393" height="852" fill="#FFBE98"/>
<rect y="515" width="393" height="337" fill="url(#paint0_linear_21_2382)"/>
<path opacity="0.3" d="M79.9587 -119.757L123.424 -76.2911L90.1212 -42.9302L90.064 -42.9874L85.8332 -38.7422L85.8904 -38.6851L61.7778 -14.5149L45.0549 -31.1953L36.5934 -22.7193L53.3163 -6.03885L38.1799 9.1265L23.0149 24.2632L6.33478 7.53992L-2.14107 16.0016L14.539 32.725L-9.63066 56.838L-9.68784 56.7808L-13.9329 61.0117L-13.8757 61.0689L-47.2502 94.3726L-90.7157 50.9062L-99.2058 59.3679L-55.7404 102.834L-117.787 164.753L-134.467 148.03L-142.957 156.506L-126.277 173.229L-143 189.91L-134.538 198.4L-117.815 181.72L-56.0262 243.639L-47.5647 252.115L14.2246 314.034L-2.4984 330.715L5.96315 339.191L22.6861 322.51L32.7771 332.616L35.3641 335.203L39.3805 339.234L49.4858 349.31L32.8057 366.034L41.2815 374.495L57.9616 357.772L190.259 489.815L173.579 506.538L182.055 515L198.735 498.277L215.458 514.957L223.919 506.481L207.196 489.801L231.323 465.63L231.38 465.688L235.611 461.443L235.554 461.385L269.3 427.581L319.455 477.737L327.916 469.261L277.762 419.105L318.926 377.854L318.983 377.912L323.214 373.681L323.157 373.624L339.236 357.501L355.959 374.181L364.421 365.705L347.698 349.01L362.834 333.845L377.999 318.708L394.68 335.431L403.155 326.97L386.475 310.246L402.598 294.166L402.655 294.224L406.9 289.993L406.843 289.935L448.093 248.77L498.248 298.926L506.723 290.464L456.569 240.309L490.372 206.562L490.429 206.619L494.674 202.388L494.617 202.331L518.787 178.204L535.481 194.927L543.957 186.465L527.277 169.742L544 153.061L535.538 144.585L518.815 161.266L386.775 28.9658L403.498 12.2853L395.037 3.79504L378.314 20.4898L368.223 10.3843L364.192 6.35358L361.619 3.76645L351.514 -6.31041L368.194 -23.0338L359.718 -31.4955L343.038 -14.7721L281.12 -76.5627L272.645 -85.0244L210.741 -146.815L227.421 -163.538L218.945 -172L202.265 -155.277L185.542 -172L177.081 -163.51L193.804 -146.829L131.886 -84.7957L88.4203 -128.262L79.9587 -119.772V-119.757ZM198.477 216.967L220.518 238.951L158.728 300.87L136.703 278.872L198.492 216.953L198.477 216.967ZM127.784 287.806L150.252 309.36L116.821 342.864L94.7807 320.881L127.769 287.82L127.784 287.806ZM66.4374 349.268L90.5642 325.097L193.06 427.396L168.934 451.566L66.4374 349.268ZM198.62 357.615L230.723 389.661L197.291 423.165L121.066 347.095L154.497 313.591L190.13 349.153L198.606 357.615H198.62ZM248.561 307.574L280.663 339.619L239.184 381.185L207.082 349.139L248.561 307.574ZM252.791 303.328L268.871 287.22L330.789 349.01L314.709 365.119L252.791 303.328ZM339.88 280.487L309.507 310.861L293.756 295.138L324.157 264.736L339.88 280.487ZM354.387 325.355L352.843 326.898L339.251 340.52L313.723 315.049L344.082 284.69L369.552 310.218L355.931 323.811L354.387 325.355ZM378.042 301.756L316.253 239.837L332.361 223.757L394.151 285.676L378.042 301.756ZM336.606 219.526L378.171 178.046L410.216 210.149L368.666 251.629L336.621 219.526H336.606ZM418.692 201.688L386.647 169.585L378.185 161.109L342.624 125.475L376.127 92.0428L452.195 168.27L418.692 201.702V201.688ZM369.695 169.57L307.791 231.361L272.23 195.727L334.134 133.937L369.695 169.57ZM299.301 239.823L307.763 248.299L319.955 260.52L289.539 290.936L277.318 278.744L268.843 270.282L258.209 259.676L288.682 229.203L299.287 239.837L299.301 239.823ZM260.395 278.758L198.606 340.663L162.973 305.101L224.763 243.196L260.395 278.758ZM284.908 343.85L310.479 369.364L269.014 410.915L243.444 385.401L284.922 343.85H284.908ZM234.968 393.892L260.538 419.405L227.107 452.909L201.551 427.396L234.982 393.892H234.968ZM173.179 455.797L197.305 431.626L222.876 457.14L198.749 481.31L173.179 455.797ZM484.826 144.142L510.34 169.713L486.17 193.841L460.657 168.284L484.826 144.157V144.142ZM456.412 172.501L481.925 198.072L448.422 231.504L422.908 205.933L456.412 172.501ZM414.433 214.395L439.946 239.966L398.396 281.445L372.882 255.874L414.433 214.395ZM378.3 37.4132L480.596 139.911L456.426 164.039L354.13 61.5405L378.3 37.4132ZM349.899 65.7571L371.882 87.7833L338.379 121.216L316.825 98.7321L349.885 65.7428L349.899 65.7571ZM307.906 107.651L329.903 129.692L267.985 191.482L246.002 169.442L307.92 107.651H307.906ZM237.512 177.903L284.479 224.972L253.992 255.46L206.925 208.491L222.204 193.183L237.512 177.903ZM-16.9345 125.018L-38.9173 102.977L-5.4142 69.5449L16.5686 91.571L-16.9345 125.003V125.018ZM206.882 147.258L191.602 162.567L176.295 177.832L101.284 102.691L131.729 72.2463L206.868 147.244L206.882 147.258ZM201.093 76.2914L239.456 114.598L215.329 138.768L176.966 100.462L201.093 76.2914ZM167.819 186.308L143.649 210.435L105.343 172.072L129.513 147.944L167.819 186.308ZM46.6271 17.6025L48.1708 16.0588L61.7636 2.43716L102.628 43.2307L72.2404 73.6185L31.4478 32.7536L45.0692 19.1605L46.6128 17.6168L46.6271 17.6025ZM106.858 47.4186L127.526 68.0441L97.0962 98.4748L76.4712 77.8065L106.873 47.4043L106.858 47.4186ZM70.2394 -6.05313L94.3662 -30.2233L196.862 72.0748L172.736 96.245L70.2394 -6.05313ZM22.9863 41.201L125.282 143.699L101.113 167.827L-1.18343 65.3283L22.9863 41.201ZM-47.5361 235.163L-83.0974 199.529L-21.1938 137.739L14.3675 173.372L-47.5504 235.163H-47.5361ZM22.8576 164.911L-12.7037 129.263L20.7994 95.8305L96.8675 172.057L63.3787 205.49L31.3335 173.387L22.8719 164.911H22.8576ZM54.8743 213.952L13.3241 255.431L-18.7211 223.328L22.8433 181.848L54.8886 213.952H54.8743ZM22.7147 305.544L-39.0746 243.625L-22.9662 227.545L38.8231 289.464L22.7004 305.544H22.7147ZM43.0681 285.233L17.5549 259.662L59.105 218.182L84.6183 243.753L43.0681 285.233ZM67.5952 209.735L101.098 176.303L139.404 214.666L106.544 247.455L67.5952 209.735ZM43.7685 326.655L31.1763 314.034L47.2989 297.954L47.3561 298.011L51.6012 293.78L51.544 293.723L93.0941 252.244L119.422 279.23L86.3192 312.405L86.262 312.348L82.0312 316.593L82.0884 316.65L57.9616 340.82L43.7685 326.655ZM213.743 184.707L212.342 186.108L198.463 200.015L192.689 194.269L184.756 186.322L198.663 172.443L200.064 171.043L201.465 169.642L215.343 155.734L223.29 163.653L229.036 169.427L215.129 183.306L213.728 184.707H213.743ZM223.819 147.244L285.108 85.8251L299.444 99.1752L237.541 160.966L223.819 147.244ZM176.28 194.784L190.002 208.506L128.212 270.411L114.863 256.074L176.28 194.784ZM355.674 14.7438L369.838 28.9372L345.668 53.0645L345.611 53.0074L341.366 57.2382L341.423 57.2954L308.249 90.399L281.263 64.0705L322.742 22.5052L322.799 22.5623L327.03 18.3172L326.973 18.26L343.053 2.15131L355.674 14.7438ZM276.475 77.5206L243.687 110.367L205.324 72.0605L238.756 38.571L276.475 77.5206ZM272.788 55.5945L247.217 30.0807L288.696 -11.4846L314.266 14.0291L272.788 55.5802V55.5945ZM334.577 -6.32471L318.497 9.79829L256.593 -51.9923L272.673 -68.101L334.591 -6.31041L334.577 -6.32471ZM242.986 25.8498L210.884 -6.19608L252.363 -47.7614L284.465 -15.7155L242.986 25.8498ZM202.422 2.27994L234.525 34.3258L201.093 67.8297L124.868 -8.24004L158.299 -41.7439L193.932 -6.18178L202.422 2.27994ZM264.183 -76.577L202.394 -14.6721L166.761 -50.2342L228.55 -112.153L264.183 -76.5913V-76.577ZM120.623 -12.4852L98.5827 -34.4685L132.014 -67.9723L154.054 -45.989L120.623 -12.4852ZM224.32 -116.37L162.53 -54.4507L140.49 -76.4483L202.279 -138.368L224.32 -116.37ZM-47.4074 111.453L-25.4246 133.494L-87.3425 195.284L-109.34 173.244L-47.4217 111.453H-47.4074Z" fill="url(#paint1_linear_21_2382)"/>
<g clip-path="url(#clip1_21_2382)">
<path d="M-196 825.327C-196.744 829.509 212.23 829.48 212.23 829.48C212.23 829.48 213.906 763.005 162.875 757.812C162.875 757.812 138.619 665.371 71.6955 719.386C71.6955 719.386 71.6956 668.493 32.3805 662.259C-6.93456 656.024 -4.42467 697.572 -4.42467 697.572C-4.42467 697.572 -10.2778 665.371 -35.3767 675.758C-60.4757 686.144 -59.6324 724.57 -59.6324 724.57C-59.6324 724.57 -65.4855 702.756 -78.8683 712.102C-97.1519 724.867 -88.0746 768.189 -88.0746 768.189C-88.0746 768.189 -94.9495 741.241 -118.193 748.456C-128.233 751.568 -130.743 766.108 -130.743 766.108C-130.743 766.108 -143.292 738.069 -159.185 747.415C-183.203 761.539 -160.018 791.034 -160.018 791.034C-160.018 791.034 -189.294 787.922 -195.99 825.307L-196 825.327Z" fill="#C3CCBC"/>
<path d="M135.981 795.187C136.427 793.71 135.792 792.203 134.562 791.837C133.332 791.47 131.973 792.372 131.536 793.849C131.09 795.325 131.725 796.832 132.955 797.199C134.185 797.565 135.544 796.663 135.981 795.187Z" fill="#829772"/>
<path d="M168.302 768.347C168.748 766.87 168.113 765.364 166.883 764.997C165.653 764.631 164.294 765.532 163.857 767.009C163.411 768.486 164.046 769.992 165.276 770.359C166.506 770.726 167.865 769.824 168.302 768.347Z" fill="#829772"/>
<path d="M171.069 795.484C171.288 794.741 170.97 793.997 170.355 793.809C169.74 793.621 169.066 794.077 168.837 794.82C168.619 795.563 168.937 796.307 169.552 796.495C170.167 796.683 170.841 796.227 171.069 795.484Z" fill="#829772"/>
<path d="M45.3367 763.669C44.5034 764.968 44.7018 766.583 45.7831 767.277C46.8644 767.971 48.4121 767.475 49.2454 766.167C50.0787 764.869 49.8803 763.253 48.7989 762.559C47.7176 761.865 46.17 762.361 45.3367 763.669Z" fill="#829772"/>
<path d="M3.17442 763.273C2.3411 764.571 2.53951 766.187 3.62084 766.88C4.70218 767.574 6.24979 767.079 7.08311 765.77C7.91644 764.472 7.71802 762.856 6.63668 762.163C5.55534 761.469 4.00775 761.964 3.17442 763.273Z" fill="#829772"/>
<path d="M26.6067 732.588C26.1901 733.242 26.2893 734.045 26.8349 734.392C27.3805 734.739 28.1543 734.491 28.571 733.837C28.9876 733.182 28.8884 732.38 28.3428 732.033C27.8071 731.686 27.0234 731.934 26.6067 732.588Z" fill="#829772"/>
<path d="M90.2072 720.675C89.7906 721.329 89.8898 722.132 90.4354 722.479C90.9711 722.825 91.7549 722.578 92.1715 721.924C92.5882 721.269 92.489 720.467 91.9433 720.12C91.4076 719.773 90.6239 720.021 90.2072 720.675Z" fill="#829772"/>
<path d="M20.2377 689.355C20.2377 688.582 19.7219 687.958 19.077 687.958C18.4322 687.958 17.9163 688.582 17.9163 689.355C17.9163 690.129 18.4322 690.753 19.077 690.753C19.7219 690.753 20.2377 690.129 20.2377 689.355Z" fill="#829772"/>
<path d="M34.7019 704.748C34.7019 703.201 33.6602 701.953 32.3805 701.953C31.1007 701.953 30.0591 703.201 30.0591 704.748C30.0591 706.294 31.1007 707.543 32.3805 707.543C33.6602 707.543 34.7019 706.294 34.7019 704.748Z" fill="#829772"/>
<path d="M273.152 807.725C276.773 808.19 280.096 809.062 283.132 810.222C283.171 810.242 283.221 810.252 283.261 810.272C283.38 810.321 283.499 810.361 283.618 810.41C301.733 817.745 315.731 808.389 317.169 807.378C333.617 795.663 347.804 775.087 378.944 780.677C392.158 783.046 402.783 792.769 411.067 799.32L411.057 799.29C411.117 799.35 411.176 799.389 411.236 799.449C412.426 800.39 413.577 801.352 414.678 802.343C430.878 814.335 447.019 803.909 451.652 800.37C451.989 800.093 452.346 799.815 452.693 799.538C452.882 799.379 452.981 799.29 452.981 799.29V799.31C473.279 783.085 501.413 760.785 532.534 764.829C586.006 771.767 602.771 829.489 602.771 829.489H212.081C218.321 813.225 243.291 803.859 273.162 807.734L273.152 807.725Z" fill="#C3CCBC"/>
<path d="M246.882 821.085C246.882 820.312 246.366 819.688 245.721 819.688C245.077 819.688 244.561 820.312 244.561 821.085C244.561 821.858 245.077 822.482 245.721 822.482C246.366 822.482 246.882 821.858 246.882 821.085Z" fill="#829772"/>
<path d="M377.218 615.746H271.465C274.441 600.978 285.334 589.313 300.245 587.023C304.193 586.418 308.211 586.518 312.13 587.241C322.993 589.253 333.022 596.052 338.379 605.745C353.806 601.156 368.131 602.465 377.228 615.736L377.218 615.746Z" fill="#EBF0F9"/>
<path d="M191.188 581.889H57.0132C59.8406 571.462 68.0052 563.89 78.4812 561.224C83.0645 560.055 87.9057 560.035 92.5188 561.046C98.4612 562.334 104.037 565.317 108.243 569.698C110.177 566.17 112.667 562.959 115.574 560.124C115.663 560.025 115.763 559.936 115.852 559.846C126.854 549.291 143.629 543.939 158.51 546.427C177.498 549.598 187.934 562.929 191.178 581.889H191.188Z" fill="#EBF0F9"/>
<path d="M296.902 549.717C296.902 561.601 287.239 571.234 275.324 571.234C263.41 571.234 253.747 561.601 253.747 549.717C253.747 537.834 263.41 528.2 275.324 528.2C287.239 528.2 296.902 537.834 296.902 549.717Z" fill="#E5BD5A"/>
<path d="M286.118 795.911C286.118 795.911 417.466 804.335 390.928 688.93" stroke="#DF6861" stroke-width="0.63" stroke-miterlimit="10"/>
<path d="M286.177 826.903C286.177 826.903 268.281 820.798 267.388 821.095L256.773 852.682H265.414L274.59 836.428L286.177 826.903Z" fill="#352619"/>
<path d="M357.347 825.099L347.814 829.539C345.919 830.421 344.867 832.463 345.244 834.515L346.484 852.692H354.867L354.173 838.39L363.687 826.814L357.337 825.109L357.347 825.099Z" fill="#352619"/>
<path d="M267.894 766.871C267.894 766.871 244.819 778.953 246.198 785.137C247.388 790.47 257.735 796.565 257.735 796.565L262.854 812.076L285.741 796.753L267.894 766.871Z" fill="#61462C"/>
<path d="M257.735 796.565L264.759 795.723L261.326 807.448L257.735 796.565Z" fill="#352619"/>
<path d="M285.741 796.753H350.224C384.42 799.34 363.319 832.82 363.319 832.82L276.435 835.912C276.435 835.912 263.509 832.156 262.864 812.076L285.751 796.753H285.741Z" fill="#61462C"/>
<path d="M363.468 814.455C363.468 814.455 342.903 820.986 354.183 838.38L363.181 852.682H370.125L364.798 831.581L363.468 814.455Z" fill="#61462C"/>
<path d="M282.17 815.545C282.17 815.545 269.025 824.683 267.834 826.328L282.06 852.672H290.146L283.499 832.671L282.17 815.545Z" fill="#61462C"/>
<path d="M261.386 813.553L261.267 810.461C261.237 809.668 261.822 808.994 262.606 808.905C266.654 808.429 278.271 806.169 283.658 795.752C284.144 794.811 285.275 794.404 286.257 794.811L288.112 795.584C289.223 796.04 289.699 797.358 289.154 798.418C282.388 811.729 267.904 814.455 263.043 815C262.18 815.099 261.416 814.435 261.386 813.563V813.553Z" fill="#AE6563"/>
<path d="M267.894 766.871C267.894 766.871 296.326 780.182 283.4 790.955C278.548 794.999 265.384 770.697 267.894 766.871Z" fill="#352619"/>
<path d="M266.168 779.587C266.168 780.499 265.672 781.242 265.067 781.242C264.461 781.242 263.965 780.499 263.965 779.587C263.965 778.675 264.461 777.932 265.067 777.932C265.672 777.932 266.168 778.675 266.168 779.587Z" fill="#232844"/>
<path d="M251.674 784.463C251.674 786.168 250.344 787.546 248.698 787.546C247.051 787.546 245.721 786.168 245.721 784.463C245.721 782.758 247.051 781.381 248.698 781.381C250.344 781.381 251.674 782.758 251.674 784.463Z" fill="#232844"/>
<path d="M372.169 800.777C372.169 805.901 369.331 810.064 365.839 810.064C362.347 810.064 359.51 805.911 359.51 800.777C359.51 795.643 362.347 791.49 365.839 791.49C369.331 791.49 372.169 795.643 372.169 800.777Z" fill="#A17E5D"/>
<path d="M390.879 804.771L376.831 821.025L400.244 844.168L425.134 843.187C425.134 843.187 423.408 836.288 418.974 835.803C414.539 835.307 408.626 834.574 406.404 828.419C404.182 822.264 406.156 820.292 406.156 820.292L390.879 804.781V804.771Z" fill="#979C9E"/>
<path d="M418.974 654.835C418.974 654.835 421.682 735.839 418.23 748.644C414.777 761.449 385.7 805.514 385.7 805.514L406.156 820.282L440.66 777.932C440.66 777.932 450.025 769.319 449.529 747.653C449.033 725.987 446.572 672.556 446.572 672.556L446.076 654.825H418.964L418.974 654.835Z" fill="#89664E"/>
<path d="M388.022 807.625C388.022 807.625 394.52 813.721 384.361 821.838" stroke="#DDD2CF" stroke-width="0.25" stroke-miterlimit="10" stroke-linecap="round"/>
<path d="M380.512 816.764L402.446 838.083C402.446 838.083 416.166 838.737 423.358 839.064C425.105 841.988 425.263 844.128 425.263 844.128L400.244 844.168L376.831 821.025L380.512 816.764Z" fill="#F2E9CF"/>
<path d="M406.752 675.787C399.926 686.254 393.815 695.164 393.815 695.164L384.639 689.009L392.833 674.202C397.466 674.786 402.099 675.302 406.752 675.778V675.787Z" fill="#E6A09A"/>
<path d="M387.188 684.46C384.5 688.573 381.871 693.39 380.591 697.007C379.748 699.376 379.083 701.577 379.52 701.567C380.462 701.557 383.776 696.998 383.776 696.998C383.776 696.998 380.026 703.906 382.069 702.379C384.113 700.843 386.593 696.958 386.593 696.958C386.593 696.958 383.776 703.856 385.631 701.953C387.486 700.05 389.678 696.066 389.678 696.066C389.678 696.066 386.881 703.906 389.46 700.675C393.309 695.868 393.775 695.511 396.652 690.912L387.178 684.47L387.188 684.46Z" fill="#E6A09A"/>
<path d="M482.396 644.756C478.705 634.517 480.917 587.212 459.747 580.819C444.975 576.359 437.396 575.011 434.162 574.605C432.803 574.436 431.444 574.654 430.214 575.249C426.106 577.231 416.662 583.247 412.486 598.034C407.069 617.213 385.899 681.149 385.899 681.149L403.111 688.157L419.162 655.955L471.691 660.168L472.882 646.698L482.386 644.756H482.396Z" fill="#ECE4DE"/>
<path d="M89.9097 799.707L89.116 815.02L118.749 830.224L162.399 821.006L156.675 800.867L89.9097 799.707Z" fill="#969696"/>
<path d="M97.3004 845.575L126.635 836.061L119.205 824.683L93.3421 835.486" fill="#E6A09A"/>
<path d="M96.2786 833.831L101.685 844.327L85.9117 850.363C82.8859 851.393 76.3185 851.502 75.2967 848.469C74.3542 845.655 78.9772 840.838 81.6954 839.629L96.2687 833.821L96.2786 833.831Z" fill="#1F2737"/>
<path d="M94.3838 834.445L100.991 832.294L105.654 842.86L98.5703 845.575L94.3838 834.445Z" fill="#1F2737"/>
<path d="M115.763 824.078C115.763 824.078 170.821 790.192 188.778 794.176C206.734 798.161 200.345 818.895 139.701 834.842L123.124 839.223L115.763 824.078Z" fill="#939191"/>
<path d="M120.108 818.786L145.971 829.589L142.022 839.678L112.677 830.164L120.108 818.786Z" fill="#E6A09A"/>
<path d="M143.619 828.182L138.619 838.886L153.391 844.476C156.417 845.506 162.984 845.615 164.006 842.583C164.949 839.768 160.326 834.951 157.607 833.742L143.619 828.182Z" fill="#1F2737"/>
<path d="M145.544 828.935L138.113 826.11L133.659 836.973L140.752 839.678L145.544 828.935Z" fill="#1F2737"/>
<path d="M123.55 818.181C123.55 818.181 68.4912 784.295 50.5351 788.279C32.5789 792.264 38.9677 812.998 99.6119 828.945L116.189 833.326L123.55 818.181Z" fill="#ACABAB"/>
<path d="M128.848 665.976C126.04 666.848 117.657 670.307 117.082 679.058C116.645 685.748 138.877 687.314 138.877 687.314C140.752 690.912 144.998 689.227 146.169 685.51C147.002 682.884 147.31 681.05 146.556 677.423C143.927 664.737 131.616 665.113 128.848 665.966V665.976Z" fill="#5A4831"/>
<path d="M116.1 683.528C116.705 676.858 121.794 671.348 128.451 670.535C130.475 670.287 132.598 670.475 134.691 671.417C139.651 673.657 141.576 680.942 142.34 686.512L142.121 693.529L143.679 722.4C139.939 740.478 125.772 740.29 124.979 718.237L124.711 703.797C116.07 701.636 115.425 691.021 116.11 683.538L116.1 683.528Z" fill="#E6A09A"/>
<path d="M124.711 703.797C124.711 703.797 128.739 705.095 134.205 701.25C134.205 701.25 131.258 707.751 124.84 710.219L124.711 703.797Z" fill="#D07C79"/>
<path d="M141.129 684.618C141.129 686.066 142.022 687.225 143.113 687.225C144.205 687.225 145.088 686.056 145.088 684.609C145.088 683.162 144.195 682.002 143.104 682.002C142.012 682.002 141.129 683.171 141.129 684.618Z" fill="#C39A94"/>
<path d="M124.711 703.797C125.534 703.995 126.377 703.985 127.211 703.896C128.044 703.807 128.858 703.618 129.651 703.351C130.455 703.123 131.219 702.766 131.983 702.429C132.737 702.072 133.471 701.656 134.215 701.25L133.183 701.993L132.092 702.637C131.338 703.024 130.564 703.38 129.75 703.638C128.937 703.886 128.094 704.084 127.241 704.124C126.387 704.163 125.514 704.114 124.721 703.787L124.711 703.797Z" fill="#36384A"/>
<path d="M141.129 684.618C141.129 686.066 142.022 687.225 143.113 687.225C144.205 687.225 145.088 686.056 145.088 684.609C145.088 683.162 144.195 682.002 143.104 682.002C142.012 682.002 141.129 683.171 141.129 684.618Z" fill="#E6A09A"/>
<path d="M140.435 673.766C138.272 670.287 134.244 668.424 130.187 668.989C130.147 668.989 130.108 668.998 130.068 669.008C121.239 670.257 117.578 677.77 117.598 677.938C128.421 673.974 132.866 670.743 132.866 670.743C132.866 670.743 135.663 685.193 141.596 682.537C143.262 679.663 142.002 676.303 140.425 673.766H140.435Z" fill="#5A4831"/>
<path d="M91.1894 760.221L72.638 774.949C65.6936 779.983 58.5508 778.17 54.5727 770.578C54.3148 770.092 54.0866 769.577 53.8783 769.051C50.6144 760.568 49.4636 708.742 49.4636 708.742L60.654 708.385L68.4317 753.62L78.9276 744.928L91.1894 760.221Z" fill="#E6A09A"/>
<path d="M61.2592 713.628C61.0409 708.663 60.3465 703.142 59.2651 699.406C58.5608 696.958 57.8068 694.757 57.4497 695.025C56.6858 695.59 56.6461 701.299 56.6461 701.299C56.6461 701.299 55.6441 693.4 54.8703 695.868C54.0965 698.335 54.3545 703.004 54.3545 703.004C54.3545 703.004 52.5886 695.669 52.1918 698.325C51.795 700.992 52.3406 705.561 52.3406 705.561C52.3406 705.561 50.0093 697.463 49.791 701.646C49.4735 707.87 49.295 708.445 49.6521 713.926L61.2592 713.638V713.628Z" fill="#E6A09A"/>
<path d="M157.28 800.995L148.927 716.463L142.836 715.66C132.27 721.389 125.306 716.116 124.721 715.64C112.092 718.693 100.187 724.273 89.7707 732.112L73.5904 744.283L91.0803 765.533L100.673 758.853L93.9374 799.786C98.8679 800.212 157.29 800.995 157.29 800.995H157.28Z" fill="#1F2737"/>
<path d="M73.5804 744.284L91.0703 765.533" stroke="#E4B49E" stroke-width="0.23" stroke-miterlimit="10" stroke-linecap="round"/>
<path d="M79.6915 740.141L96.735 760.706" stroke="#E4B49E" stroke-width="0.23" stroke-miterlimit="10" stroke-linecap="round"/>
<path d="M140.197 759.388L167.399 763.65L170.187 742.073C171.685 730.487 164.006 719.704 152.558 717.305L148.927 716.463L140.197 759.388Z" fill="#1F2737"/>
<path d="M167.399 763.65L141.923 759.715" stroke="#E4B49E" stroke-width="0.23" stroke-miterlimit="10" stroke-linecap="round"/>
<path d="M168.193 757.148L142.717 753.213" stroke="#E4B49E" stroke-width="0.23" stroke-miterlimit="10" stroke-linecap="round"/>
<path d="M142.538 683.905C142.538 683.905 143.629 683.726 143.729 684.618C143.828 685.51 142.746 685.352 142.746 685.352" stroke="#BB7B77" stroke-width="0.23" stroke-miterlimit="10" stroke-linecap="round"/>
<path d="M130.048 691.844C129.75 692.785 129.215 693.657 128.51 694.371C127.796 695.085 126.844 695.57 125.832 695.699C124.81 695.788 123.808 695.54 122.885 695.164C122.439 694.936 122.003 694.698 121.576 694.45L120.395 693.558L121.665 694.311C122.102 694.529 122.548 694.738 122.985 694.926C123.897 695.243 124.85 695.471 125.802 695.362C126.754 695.263 127.637 694.817 128.352 694.173C129.066 693.528 129.631 692.716 130.058 691.824L130.048 691.844Z" fill="#333549"/>
<path d="M124.711 680.951C124.622 681.863 124.433 682.765 124.205 683.657C123.957 684.539 123.679 685.421 123.282 686.264C123.084 686.68 122.876 687.096 122.637 687.493C122.518 687.711 122.37 687.869 122.389 688.038C122.389 688.226 122.508 688.414 122.637 688.583C123.223 689.247 124.046 689.713 124.84 690.149C123.997 689.802 123.143 689.415 122.469 688.731C122.31 688.553 122.151 688.345 122.132 688.057C122.132 687.919 122.151 687.77 122.221 687.651L122.389 687.354C122.618 686.967 122.806 686.551 122.995 686.135C123.729 684.47 124.235 682.715 124.711 680.951Z" fill="#333549"/>
<path d="M128.897 683.092C128.818 683.865 128.808 684.648 128.907 685.411C129.006 686.145 129.284 686.977 129.959 687.205C130.633 687.433 131.328 686.878 131.814 686.323C132.31 685.738 132.727 685.074 133.094 684.39C133.114 684.341 133.183 684.311 133.233 684.341C133.282 684.361 133.302 684.43 133.282 684.479C132.955 685.213 132.558 685.897 132.032 686.521C131.764 686.828 131.477 687.116 131.12 687.334C130.772 687.552 130.286 687.671 129.86 687.522C129.433 687.374 129.125 687.007 128.947 686.64C128.768 686.264 128.689 685.857 128.639 685.461C128.54 684.658 128.59 683.865 128.719 683.082C128.719 683.032 128.768 683.003 128.818 683.013C128.868 683.013 128.897 683.062 128.887 683.112L128.897 683.092Z" fill="#333549"/>
<path d="M118.391 682.101C118.312 682.825 118.282 683.558 118.322 684.281C118.352 684.638 118.401 684.995 118.511 685.332C118.62 685.659 118.808 685.956 119.096 686.026C119.374 686.105 119.691 685.937 119.939 685.709C120.197 685.481 120.415 685.193 120.624 684.896C121.02 684.291 121.358 683.637 121.665 682.983C121.685 682.934 121.745 682.904 121.804 682.924C121.854 682.943 121.884 683.003 121.864 683.052C121.606 683.756 121.288 684.42 120.872 685.055C120.663 685.372 120.445 685.679 120.157 685.937C119.88 686.184 119.483 686.462 119.016 686.333C118.56 686.204 118.342 685.778 118.233 685.421C118.124 685.045 118.074 684.668 118.054 684.291C118.015 683.538 118.094 682.795 118.223 682.071C118.223 682.022 118.272 681.992 118.322 682.002C118.372 682.002 118.401 682.051 118.391 682.101Z" fill="#333549"/>
<path d="M115.703 748.169C115.703 748.169 128.203 739.308 133.639 739.695C139.076 740.072 147.955 740.498 156.457 742.995C164.958 745.493 157.935 748.694 153.133 748.922C148.332 749.16 141.367 750.012 137.092 749.913C132.826 749.814 121.834 758.04 116.358 756.415C110.882 754.8 111.05 749.834 115.703 748.169Z" fill="#D18337"/>
<path d="M89.7708 805.614C77.9653 789.716 72.6281 816.348 72.6777 820.53C72.7273 824.713 68.769 828.747 65.2075 830.214C61.646 831.68 61.279 834.792 60.9913 839.54C60.7433 843.772 58.1342 849.709 59.1758 852.018H65.0786C65.9218 846.973 70.1281 836.844 72.1717 834.376C74.2154 831.898 80.7927 828.994 86.0208 824.881C91.2489 820.778 89.7608 805.614 89.7608 805.614H89.7708Z" fill="#D18337"/>
<path d="M88.6597 807.616C101.904 799.518 102.767 788.467 110.564 775.414C111.963 773.075 113.411 770.944 114.87 769.022C117.786 765.156 124.83 762.242 132.558 746.335C131.169 745.978 124.383 746.722 123.094 745.949C118.391 743.104 114.314 746.523 112.578 741.132C111.586 738.039 106.903 737.455 107.925 734.59C105.931 736.384 104.612 740.299 103.173 741.419C97.36 745.949 94.8203 747.693 86.0406 754.76C78.1935 761.083 74.0864 766.247 55.0489 787.308C36.0114 808.359 56.0211 826.269 72.0428 825.218C84.2847 824.415 81.1498 816.823 85.118 810.956C85.9315 809.747 87.0525 808.617 88.6597 807.626V807.616Z" fill="#E29D50"/>
<path d="M151.586 710.358C150.713 710.15 149.215 710.447 147.449 710.952C146.774 711.151 146.06 711.379 145.326 711.616C142.181 712.667 138.659 714.035 136.278 714.57C136.1 714.61 135.911 714.649 135.742 714.679C131.606 715.432 128.381 713.985 124.264 712.984C121.586 712.34 118.024 714.441 115.723 716.116C114.334 717.127 113.401 717.989 113.401 717.989C110.723 719.198 108.769 728.118 107.132 735.77C107.38 737.068 107.786 738.337 108.382 739.536C110.624 744.036 115.217 746.474 120.038 747.217C122.866 747.653 125.891 747.683 128.729 747.346C130.098 747.188 131.397 746.86 132.568 746.325C133.52 742.48 134.671 739.853 135.455 738.773C137.27 736.275 148.381 735.373 150.038 732.915C151.695 730.458 154.006 729.149 152.379 728.099C150.752 727.048 143.828 729.793 141.1 730.21C138.381 730.626 134.552 728.158 137.121 727.544C140.693 726.691 148.619 722.965 151.01 720.14C151.834 719.159 152.478 717.761 152.846 716.324C153.004 715.7 153.123 715.065 153.173 714.451C153.361 712.419 152.905 710.655 151.586 710.348V710.358Z" fill="#E29D50"/>
<path d="M129.582 718.851C130.495 719.337 131.457 719.317 131.735 718.802C132.002 718.286 131.487 717.484 130.574 716.998C129.661 716.512 128.699 716.532 128.421 717.048C128.153 717.563 128.669 718.366 129.582 718.851Z" fill="#341A1B"/>
<path d="M153.173 714.461C150.236 716.403 148.361 713.222 147.449 710.962C149.215 710.447 150.713 710.159 151.586 710.368C152.905 710.675 153.351 712.439 153.173 714.471V714.461Z" fill="#341A1B"/>
<path d="M116.884 714.283C112.896 715.373 109.83 718.683 109.255 722.767C109.036 724.333 109.155 726.087 109.87 728C112.717 735.651 116.983 742.985 121.933 743.124C126.883 743.263 128.451 736.166 126.437 732.053C124.423 727.94 117.856 716.503 119.552 713.559L116.884 714.283Z" fill="#FCCB95"/>
<path d="M139.344 730.368C139.344 730.368 141.764 726.86 147.697 726.146C153.629 725.423 157.31 727.881 157.409 731.221C157.508 734.561 155.464 734.085 153.996 732.836C152.528 731.597 149.681 728.208 146.318 729.199C142.955 730.19 139.334 730.368 139.334 730.368H139.344Z" fill="#FB705F"/>
<path d="M50.7335 811.105C50.7335 811.105 42.678 825.496 27.0135 816.566C26.7258 816.407 26.4381 816.239 26.1504 816.06C9.93031 806.09 22.3012 793.443 22.3012 793.443C22.3012 793.443 19.7318 802.799 27.5789 807.824C28.9083 808.676 30.5353 809.4 32.5293 809.945C46.2692 813.642 48.045 799.112 48.045 799.112L50.7235 811.105H50.7335Z" fill="#E29D50"/>
<path d="M27.0135 816.575C26.7258 816.417 26.4381 816.248 26.1504 816.07C9.93031 806.099 22.3012 793.453 22.3012 793.453C22.3012 793.453 19.7318 802.809 27.5789 807.834C26.9837 808.736 26.6861 809.965 27.0135 811.6C27.3805 813.414 27.3607 815.138 27.0135 816.575Z" fill="#FCCB95"/>
<path d="M51.1601 852.028C50.3565 849.57 52.6977 843.861 52.8763 839.778L64.2452 820.58C64.1262 816.397 72.3801 796.882 84.4434 812.582C84.4434 812.582 82.8264 820.52 77.6677 824.713C72.4991 828.905 65.9813 831.918 63.9774 834.436L55.9913 852.038H51.17L51.1601 852.028Z" fill="#E29D50"/>
<path d="M113.61 756.256C113.61 756.256 125.822 749.318 131.258 749.705C136.695 750.082 145.574 750.508 154.076 753.005C162.578 755.503 155.554 758.704 150.752 758.932C145.951 759.16 138.986 760.023 134.711 759.923C130.445 759.824 119.453 768.051 113.977 766.425C108.501 764.81 108.957 757.921 113.61 756.256Z" fill="#E29D50"/>
<path d="M143.798 759.953L141.605 769.627L106.655 741.152L98.5306 748.853C98.5306 748.853 133.877 786.813 141.963 790.975C142.469 791.233 142.984 791.461 143.5 791.659C151.516 794.702 158.064 791.302 159.899 782.927L163.361 763.016L143.798 759.953Z" fill="#E6A09A"/>
<path d="M110.594 744.68C107.122 741.112 102.945 737.455 99.6417 735.383C97.4889 734.026 95.4552 732.886 95.3659 733.312C95.1675 734.244 98.9472 738.535 98.9472 738.535C98.9472 738.535 92.9453 733.292 94.0068 735.651C95.0683 738.01 98.3619 741.32 98.3619 741.32C98.3619 741.32 92.1616 737.009 93.6397 739.269C95.1179 741.518 98.5604 744.571 98.5604 744.571C98.5604 744.571 91.4275 740.071 94.0465 743.342C97.9453 748.208 98.2032 748.744 102.112 752.609L110.594 744.68Z" fill="#E6A09A"/>
<path d="M6.10103 826.219L-2.48022 830.213C-4.18655 831.006 -5.13892 832.85 -4.79171 834.693L-3.57148 852.028H2.8967L3.24391 838.182L11.8153 827.765L6.10103 826.229V826.219Z" fill="#AEA29E"/>
<path d="M-29.3847 800.698H-0.317558C30.4758 803.027 11.478 833.177 11.478 833.177L-37.7676 835.962C-37.7676 835.962 -49.4043 832.582 -49.9897 814.495L-29.3847 800.698Z" fill="#EDE5DF"/>
<path d="M11.6168 816.635C11.6168 816.635 -6.90478 822.523 3.25385 838.172L10.5653 852.018H17.9561L12.8172 832.047L11.6268 816.625L11.6168 816.635Z" fill="#EDE5DF"/>
<path d="M19.4441 804.325C19.4441 808.944 16.8946 812.69 13.7398 812.69C10.5851 812.69 8.03552 808.944 8.03552 804.325C8.03552 799.707 10.5851 795.96 13.7398 795.96C16.8946 795.96 19.4441 799.707 19.4441 804.325Z" fill="#EDE5DF"/>
</g>
</g>
<defs>
<linearGradient id="paint0_linear_21_2382" x1="196.5" y1="515" x2="196.5" y2="852" gradientUnits="userSpaceOnUse">
<stop stop-color="#FFBE98"/>
<stop offset="1" stop-color="#F37C20"/>
</linearGradient>
<linearGradient id="paint1_linear_21_2382" x1="200.507" y1="7.55422" x2="200.507" y2="473.306" gradientUnits="userSpaceOnUse">
<stop stop-color="#F37C20"/>
<stop offset="0.23" stop-color="#F37C20" stop-opacity="0.71"/>
<stop offset="0.49" stop-color="#F37C20" stop-opacity="0.41"/>
<stop offset="0.72" stop-color="#F37C20" stop-opacity="0.19"/>
<stop offset="0.89" stop-color="#F37C20" stop-opacity="0.05"/>
<stop offset="1" stop-color="#F37C20" stop-opacity="0"/>
</linearGradient>
<clipPath id="clip0_21_2382">
<rect width="393" height="852" fill="white"/>
</clipPath>
<clipPath id="clip1_21_2382">
<rect width="1116" height="328" fill="white" transform="translate(-196 526)"/>
</clipPath>
</defs>
</svg>
