<svg width="76" height="76" viewBox="0 0 76 76" fill="none" xmlns="http://www.w3.org/2000/svg">
<path d="M36.4167 49.3271V21.9354L29.0384 29.3138L26.7964 27.0401L38 15.8333L49.2069 27.0401L46.9649 29.3169L39.5834 21.9354V49.3271H36.4167ZM20.9507 60.1666C19.4919 60.1666 18.2749 59.6789 17.2995 58.7036C16.3242 57.7282 15.8355 56.5101 15.8334 55.0493V47.3764H19V55.0493C19 55.5369 19.2027 55.9845 19.608 56.3919C20.0134 56.7994 20.4599 57.002 20.9475 56.9999H55.0525C55.5381 56.9999 55.9846 56.7973 56.392 56.3919C56.7995 55.9866 57.0022 55.539 57 55.0493V47.3764H60.1667V55.0493C60.1667 56.508 59.679 57.7251 58.7037 58.7004C57.7284 59.6758 56.5103 60.1645 55.0494 60.1666H20.9507Z" fill="#F25822"/>
</svg>
