<svg width="327" height="103" viewBox="0 0 327 103" fill="none" xmlns="http://www.w3.org/2000/svg">
<g clip-path="url(#clip0_1511_274)" filter="url(#filter0_dddd_1511_274)">
<path d="M67.9194 57.6526L66.2624 58.2011C66.1034 58.2492 68.43 62.1364 68.43 62.1364C68.43 62.1364 76.079 61.2127 76.5655 60.9048C77.0569 60.5969 74.1138 60.5103 74.1138 60.5103C74.1138 60.5103 76.9075 60.0629 77.6349 59.5481C78.2129 59.1392 74.4076 59.067 74.4076 59.067C75.8141 58.7495 78.4634 58.3213 78.4345 57.8547C78.3959 57.2726 73.9404 57.9894 73.9404 57.9894C73.9404 57.9894 77.0183 57.2341 77.1387 56.676C77.2592 56.118 71.2478 56.9166 71.2478 56.9166C71.2478 56.9166 72.1871 55.8774 72.0233 54.5929C71.9799 54.2658 71.5994 54.0445 71.3538 54.03C71.0021 55.6657 67.9146 57.6526 67.9146 57.6526H67.9194Z" fill="#EA9292"/>
<path d="M42.5493 44.7065C42.5493 44.7065 44.476 55.0595 47.2746 60.7412C51.3977 69.1073 71.1129 61.1934 71.1129 61.1934L70.2218 56.9454C70.2218 56.9454 55.2078 58.7591 55.0344 58.201C53.5557 53.5778 50.2128 43.3979 50.2128 43.3979L42.5541 44.7065H42.5493Z" fill="#EA9292"/>
<path d="M54.4612 53.3469C54.4612 53.3469 44.2785 56.0169 44.2881 55.7668C44.2977 55.5166 36.3644 35.8738 41.5473 34.1419C46.7302 32.4099 54.4564 53.3469 54.4564 53.3469H54.4612Z" fill="#E75F48"/>
<path d="M40.3047 26.3627C40.3047 26.3627 40.5889 28.9317 42.0484 30.3221C42.0484 30.1729 42.8961 25.8672 42.8961 25.8672L40.3095 26.3675L40.3047 26.3627Z" fill="black"/>
<path d="M46.6773 17.0008C46.1908 17.0537 45.6995 17.1836 45.2178 17.4001C40.9068 19.3292 40.7912 26.0356 42.6938 29.7592C43.7487 31.8231 45.8199 33.3481 48.1224 33.3096C51.4845 33.2615 53.6183 30.2355 54.0904 27.0363C54.442 24.6501 53.9603 22.1051 52.6068 20.1423C51.2533 18.1842 48.9846 16.7458 46.6821 17.0008H46.6773Z" fill="#F7A19F"/>
<path d="M42.2748 27.5752C41.5137 27.9312 40.454 27.8061 39.7989 27.2721C39.1439 26.7381 38.7778 25.8096 38.8789 24.9195C38.9705 24.1209 39.457 23.3512 40.1602 23.0962C40.8635 22.8412 41.8268 23.2165 42.0821 23.967L42.2748 27.5703V27.5752Z" fill="#F7A19F"/>
<path d="M42.1543 25.3284L38.9511 36.0999C38.3298 38.082 39.3558 40.2036 41.2969 40.9397C43.5416 41.796 46.0174 40.4586 46.5328 38.1157L48.8641 27.8829L42.1543 25.3284Z" fill="#F7A19F"/>
<path d="M47.2939 34.7962L47.6648 33.2952C47.6648 33.2952 44.4327 33.1461 42.689 29.7544C42.689 29.7544 43.2093 33.0498 47.2939 34.7914V34.7962Z" fill="#111010"/>
<path d="M47.9971 26.2134C47.9971 26.2134 47.9827 26.199 47.9731 26.1894C47.8334 25.9777 47.4769 26.1557 47.6166 26.3674C47.8815 26.7667 48.5463 26.478 48.2765 26.0306C48.0164 25.5976 47.3421 25.9681 47.5781 26.4155C47.8141 26.8629 48.527 26.4443 48.1946 26.0402C47.8575 25.6313 47.3372 26.2327 47.7756 26.5454C47.9827 26.6945 48.2043 26.3626 47.9923 26.2134H47.9971Z" fill="#222C44"/>
<path d="M49.288 24.6644C48.4836 24.4239 47.6358 24.2555 46.7977 24.1929C46.4268 24.1641 46.3979 24.7414 46.7688 24.7702C47.5588 24.8328 48.3487 24.9915 49.1098 25.2177C49.4662 25.3235 49.6445 24.7751 49.288 24.6692V24.6644Z" fill="#222C44"/>
<path d="M53.0258 26.4444C53.0258 26.4444 53.0114 26.4299 53.0018 26.4203C52.8621 26.2086 52.5056 26.3866 52.6453 26.5983C52.9102 26.9976 53.575 26.709 53.3052 26.2616C53.0451 25.8286 52.3708 26.199 52.6068 26.6464C52.8428 27.0938 53.5557 26.6753 53.2233 26.2664C52.8861 25.8574 52.3659 26.4588 52.8043 26.7715C53.0114 26.9207 53.233 26.5887 53.021 26.4396L53.0258 26.4444Z" fill="#222C44"/>
<path d="M50.5837 28.441L51.3496 28.1283H51.3544L51.5808 27.8973L51.3641 27.8011C51.234 27.7434 51.0991 27.5991 50.9932 27.4451C50.8872 27.2864 50.7957 27.1084 50.7234 26.9255C50.7331 27.1228 50.762 27.3248 50.8198 27.5269C50.8776 27.7241 50.9546 27.931 51.1377 28.1186L51.1521 27.7963H51.1425L50.5115 28.3351C50.4826 28.3592 50.4778 28.4025 50.5018 28.4265C50.5211 28.4506 50.55 28.4554 50.5789 28.4458L50.5837 28.441Z" fill="#E57F7E"/>
<path d="M50.5837 28.441L51.3496 28.1283H51.3544L51.5808 27.8973L51.3641 27.8011C51.234 27.7434 51.0991 27.5991 50.9932 27.4451C50.8872 27.2864 50.7957 27.1084 50.7234 26.9255C50.7331 27.1228 50.762 27.3248 50.8198 27.5269C50.8776 27.7241 50.9546 27.931 51.1377 28.1186L51.1521 27.7963H51.1425L50.5115 28.3351C50.4826 28.3592 50.4778 28.4025 50.5018 28.4265C50.5211 28.4506 50.55 28.4554 50.5789 28.4458L50.5837 28.441Z" fill="#E57F7E"/>
<path d="M51.7398 24.8136C52.4768 24.7222 53.2474 24.7078 54.0037 24.7896C54.336 24.8232 54.3216 25.3813 53.9892 25.3476C53.2764 25.2706 52.5586 25.2851 51.8602 25.3717C51.5327 25.4102 51.4122 24.8569 51.7398 24.8136Z" fill="#222C44"/>
<path d="M41.1188 25.896C40.666 25.7854 40.3722 25.4101 40.4589 25.0637C40.5215 24.8039 40.7864 24.6307 41.1043 24.6067" stroke="#E57F7E" stroke-width="0.72" stroke-miterlimit="10" stroke-linecap="round"/>
<path d="M46.764 33.3528C44.9481 32.7995 41.3789 30.9185 41.9376 24.6836L43.1948 23.9138C43.1948 23.9138 45.1841 30.2834 53.6761 28.6718C53.6761 28.6718 52.4671 33.2229 48.5944 33.5596C47.9779 33.6126 47.3565 33.526 46.7688 33.348L46.764 33.3528Z" fill="black"/>
<path d="M49.1965 29.5186L50.8679 29.7495C50.8679 29.7495 49.919 31.058 49.1965 29.5186Z" fill="white"/>
<path d="M45.054 19.969C45.054 19.969 49.8516 17.3086 53.1125 20.859C53.1125 20.859 51.1858 15.8653 46.7014 16.0048C42.2169 16.1443 40.4925 20.3539 40.1698 23.1009C40.1698 23.1009 41.6389 22.87 42.0917 23.9716L41.9424 24.6837C41.9424 24.6837 42.9057 25.8286 42.9057 25.6795C42.9057 25.5304 46.5183 22.0906 45.0589 19.9642L45.054 19.969Z" fill="black"/>
<path d="M45.0541 19.9689C45.0541 19.9689 49.7023 22.5861 53.5895 22.0424C53.5895 22.0424 52.9729 18.1408 47.8045 17.7848C42.6312 17.424 45.0541 19.9689 45.0541 19.9689Z" fill="black"/>
<path d="M41.5714 99.3293L43.869 86.898L51.8601 86.0513L48.4787 99.4207L42.7853 100.633L41.5714 99.3293Z" fill="#F69D9A"/>
<path d="M41.8942 94.6675C41.8942 94.6675 44.4615 97.2846 50.1694 95.7114L58.9071 100.489C60.068 101.215 59.5477 103.005 58.1798 103L39.5339 102.629L41.8942 94.6675Z" fill="#101010"/>
<path d="M-8.88945 84.8293L2.56972 87.1626L2.70459 95.1872L-9.59271 91.6945L-10.3008 85.9214L-8.88945 84.8293Z" fill="#F69D9A"/>
<path d="M20.9844 59.6491L45.5549 57.0175C47.525 56.9983 50.3332 56.3007 52.862 56.0698C55.4149 55.8341 57.568 57.9412 57.3657 60.4958L54.8176 92.8971L41.2198 92.2476L43.002 71.1904L25.6278 73.947L20.9844 59.6539V59.6491Z" fill="#DAB5B0"/>
<path d="M15.2475 56.1997C15.2475 56.1997 9.29879 60.8999 12.4875 70.1032C15.6762 79.3064 18.9517 86.9028 18.9517 86.9028L-1.96772 84.9544L-3.92334 96.0194C-3.92334 96.0194 32.5206 102.678 34.2932 99.3293C36.6341 94.9129 32.3809 66.0476 32.3809 66.0476L15.2475 56.2045V56.1997Z" fill="#E6CBC5"/>
<path d="M39.9194 31.9048L46.2294 42.0462L47.0964 37.0669L40.6371 30.2595C40.3433 29.9468 39.8182 30.1729 39.8423 30.6011L39.9194 31.9096V31.9048Z" fill="#F76B4E"/>
<path d="M40.3191 31.5825C40.3191 31.5825 31.3599 37.0188 27.0922 41.1081C20.4691 47.4584 14.3662 56.2864 14.3662 56.2864C14.3662 56.2864 23.9805 64.5756 34.0814 67.3081C34.0814 67.3081 44.7843 50.7202 47.2264 39.0634L40.3191 31.5825Z" fill="#F76B4E"/>
<path opacity="0.38" d="M42.2748 53.6163L36.9137 49.7051L34.0814 67.3081L42.2748 53.6163Z" fill="#0F0B1C"/>
<path d="M65.7325 60.5152L64.0948 61.1262C63.9406 61.1791 66.4068 64.9749 66.4068 64.9749C66.4068 64.9749 74.0126 63.7625 74.4894 63.4354C74.9663 63.1082 72.0232 63.1323 72.0232 63.1323C72.0232 63.1323 74.7977 62.5791 75.5058 62.0354C76.0694 61.6024 72.2641 61.6794 72.2641 61.6794C73.6609 61.309 76.2909 60.7798 76.2428 60.3179C76.185 59.7358 71.7583 60.6258 71.7583 60.6258C71.7583 60.6258 74.8073 59.7551 74.9085 59.1922C75.0097 58.6293 69.032 59.654 69.032 59.654C69.032 59.654 69.9327 58.5812 69.7208 57.3015C69.6678 56.9744 69.2777 56.7675 69.032 56.7627C68.743 58.408 65.7325 60.5152 65.7325 60.5152Z" fill="#F69D9A"/>
<path d="M39.8855 48.5408C39.8855 48.5408 42.2024 58.8121 45.2129 64.3831C49.6492 72.5856 69.0513 63.9308 69.0513 63.9308L68.0012 59.7165C68.0012 59.7165 53.0691 62.0931 52.8716 61.5495C52.1925 59.6732 51.1617 56.8733 50.1839 54.2225C48.6377 50.037 44.2544 47.6171 39.8855 48.536V48.5408Z" fill="#F69D9A"/>
<path d="M51.9708 55.7668C51.6336 55.7668 42.1879 60.3131 42.1879 60.0629C42.1879 59.8127 31.1381 41.3582 36.2488 39.4338C41.3642 37.5095 51.9708 55.7668 51.9708 55.7668Z" fill="#F76B4E"/>
<path d="M95.5677 92.1227C96.3529 93.2676 97.1477 94.1577 97.8461 94.836C99.2622 96.2023 100.1 98.0545 100.144 100.017C98.6457 99.5074 98.4578 101.032 98.4578 101.032L100.476 101.629C101.17 101.836 101.897 101.427 102.08 100.725C102.783 98.0545 104.238 91.8244 103.549 88.3221C102.658 83.7806 99.3634 86.5661 99.3634 86.5661L95.5629 92.1227H95.5677Z" fill="#E6A9A0"/>
<path d="M78.733 93.8737L83.887 100.128C83.887 100.128 82.7743 101.408 83.8003 102.572L85.1779 101.316C85.8956 100.662 86.1172 99.6275 85.7319 98.7375L82.7888 91.9397L78.7282 93.8689L78.733 93.8737Z" fill="#E6A9A0"/>
<path d="M80.3852 97.0104C80.3852 97.0104 75.395 94.0469 73.9404 90.4484C72.4857 86.8498 70.9058 77.8294 70.9058 77.8294L68.9213 77.4349C67.7604 77.204 66.7296 76.5449 66.0264 75.5924L64.5909 73.7787C64.379 73.49 64.9329 72.7443 65.2894 72.7299L66.667 72.677C68.4685 72.6048 70.2555 72.2007 71.8499 71.3636C72.8132 70.8585 74.186 70.5121 75.8285 71.1423C79.1136 72.4028 80.2311 80.8603 82.6925 82.4383C85.1539 84.0162 87.0517 83.8911 88.3763 83.8911C89.7009 83.8911 102.962 82.0871 105.876 87.8649C107.441 90.9535 107.899 97.0297 108 99.9162C108.029 100.777 107.34 101.494 106.478 101.494H104.623C104.623 101.494 104.373 99.9787 105.948 100.041C105.346 98.1698 104.016 96.6352 102.273 95.7259C101.411 95.2785 100.394 94.6483 99.3153 93.7727C99.3153 93.7727 94.0939 96.1926 83.2898 97.1403" fill="#F9BCB0"/>
<path d="M66.2142 72.6914C66.2142 72.6914 65.8433 74.2934 64.9426 74.2164C64.9426 74.2164 64.5862 73.8027 64.4898 73.6487C64.0997 73.033 64.4272 72.5134 65.0775 72.4605C65.3761 72.4364 65.7518 72.4941 66.2142 72.6914Z" fill="#150C07"/>
<path d="M80.7802 79.3496L71.715 82.01L72.1678 84.1364L81.6665 81.3269L80.7802 79.3496Z" fill="#150C07"/>
<path d="M76.238 72.8887L77.3073 80.4369C77.5819 82.3805 75.0145 83.386 73.9308 81.7455C73.0975 80.4802 72.6399 79.0225 73.2709 77.56C75.0146 73.5333 76.238 72.8887 76.238 72.8887Z" fill="#BA746E"/>
<path d="M78.6946 92.0359L77.1773 99.9931C77.1773 99.9931 75.4818 99.9546 75.2409 101.494L77.4518 101.802C78.1936 101.903 78.921 101.523 79.2581 100.859L82.7744 93.9266L78.6898 92.0455L78.6946 92.0359Z" fill="#F9BCB0"/>
<path d="M72.6928 73.1484C72.5771 73.3456 72.6061 73.5765 72.7554 73.6631C72.9047 73.7497 73.1166 73.6583 73.2322 73.4611C73.3478 73.2638 73.3189 73.0329 73.1696 72.9463C73.0203 72.8597 72.8084 72.9511 72.6928 73.1484Z" fill="#150C07"/>
<path d="M102.446 86.3784C102.446 86.3784 101.155 80.2301 103.737 80.9228C106.314 81.6156 103.954 87.533 103.954 87.533L102.451 86.3784H102.446Z" fill="#F9BCB0"/>
</g>
<g clip-path="url(#clip1_1511_274)" filter="url(#filter1_dddd_1511_274)">
<path d="M262.458 102.293C262.458 102.293 264.304 100.231 259.146 100.231C259.146 100.231 261.183 93.8279 256.233 93.9593C251.279 94.0952 251.338 102.288 251.338 102.288H262.458V102.293Z" fill="#EDD4BD"/>
<path d="M248.802 102.755C248.249 101.867 246.375 96.5741 247.464 92.9669C239.207 89.763 244.561 85.0184 246.511 86.4912C245.468 87.257 244.856 87.2615 244.878 88.97C244.892 90.0304 246.888 90.9548 247.9 91.7751C248.353 90.7418 248.984 89.7585 249.832 88.9292C252.087 86.7223 254.795 85.0501 257.059 82.8386C260.979 79.0049 263.02 73.5578 264.916 68.5141C265.66 66.5338 267.04 67.2044 268.895 67.4491C271.799 67.8343 274.738 67.7165 277.66 67.7482C278.939 67.7618 280.649 67.8479 280.527 69.57C280.441 70.7799 279.67 72.0261 278.767 72.801C277.202 74.1424 275.323 74.591 273.341 74.7814C272.856 74.8267 272.397 74.8856 271.921 74.8584C271.921 74.8584 273.364 83.7359 267.325 89.6316L265.774 101.695C265.697 102.307 265.175 102.764 264.558 102.764C263.882 102.764 263.333 102.216 263.333 101.541V92.1648L252.758 102.764H248.802V102.755Z" fill="#FDEBD9"/>
<path d="M277.664 67.7438C277.809 67.6713 280.191 67.4583 280.663 68.206C280.831 68.4689 280.958 70.1093 280.409 70.2725C279.157 70.6441 277.156 67.9976 277.664 67.7438Z" fill="#24033D"/>
<path d="M271.794 69.665C271.794 69.9233 271.644 70.1318 271.458 70.1318C271.272 70.1318 271.118 69.9233 271.118 69.665C271.118 69.4067 271.268 69.1982 271.458 69.1982C271.649 69.1982 271.794 69.4067 271.794 69.665Z" fill="#24033D"/>
<path d="M267.72 85.4442C267.72 85.4442 273.668 87.2252 274.72 88.8611C275.99 90.8414 274.951 98.2688 274.951 98.2688C275.024 99.1389 274.285 99.8594 273.418 99.7688C272.76 99.7008 272.243 99.1842 272.175 98.5271L271.889 91.1541L265.905 89.4955L267.725 85.4397L267.72 85.4442Z" fill="#FDEBD9"/>
<path d="M259.922 102.755C259.922 102.755 261.768 100.693 256.61 100.693C256.61 100.693 258.647 94.29 253.697 94.4214C248.743 94.5574 248.802 102.751 248.802 102.751H259.922V102.755Z" fill="#FDEBD9"/>
<mask id="mask0_1511_274" style="mask-type:luminance" maskUnits="userSpaceOnUse" x="242" y="67" width="39" height="36">
<path d="M248.802 102.755C248.249 101.867 246.375 96.5741 247.464 92.9669C239.207 89.763 244.561 85.0184 246.511 86.4912C245.468 87.257 244.856 87.2615 244.878 88.97C244.892 90.0304 246.888 90.9548 247.9 91.7751C248.353 90.7418 248.984 89.7585 249.832 88.9292C252.087 86.7223 254.795 85.0501 257.059 82.8386C260.979 79.0049 263.02 73.5578 264.916 68.5141C265.66 66.5338 267.04 67.2044 268.895 67.4491C271.799 67.8343 274.738 67.7165 277.66 67.7482C278.939 67.7618 280.649 67.8479 280.527 69.57C280.441 70.7799 279.67 72.0261 278.767 72.801C277.202 74.1424 275.323 74.591 273.341 74.7814C272.856 74.8267 272.397 74.8856 271.921 74.8584C271.921 74.8584 273.364 83.7359 267.325 89.6316L265.774 101.695C265.697 102.307 265.175 102.764 264.558 102.764C263.882 102.764 263.333 102.216 263.333 101.541V92.1648L252.758 102.764H248.802V102.755Z" fill="white"/>
</mask>
<g mask="url(#mask0_1511_274)">
<path d="M251.71 84.1301C251.57 85.0591 251.465 86.115 252.069 86.8355C252.518 87.3748 253.307 87.6376 253.566 88.2902C253.67 88.5485 253.67 88.8385 253.625 89.1104C253.421 90.2569 252.228 91.1315 251.071 90.982C250.862 90.9548 250.649 90.9004 250.445 90.9503C250.104 91.0409 249.905 91.408 249.868 91.7614C249.832 92.1104 249.914 92.4638 249.927 92.8173C249.95 93.6149 249.565 94.4351 248.87 94.8294C248.176 95.2236 247.196 95.0877 246.711 94.4532C246.316 93.9366 246.298 93.2342 246.325 92.5817C246.384 91.1904 246.575 89.772 247.228 88.544C247.328 88.3536 247.45 88.1588 247.641 88.0591C248.013 87.8642 248.48 88.0999 248.889 87.9956C249.419 87.8642 249.651 87.2388 249.696 86.6905C249.741 86.1467 249.705 85.5531 250.027 85.109C250.372 84.6331 251.107 84.4972 251.597 84.8189" fill="#24033D"/>
<path d="M260.865 85.4035C260.244 85.8884 259.681 86.4413 259.182 87.0531C258.887 87.4156 258.611 87.8098 258.474 88.2585C258.338 88.7071 258.361 89.2237 258.633 89.6089C258.842 89.9035 259.169 90.0938 259.509 90.2162C259.917 90.3657 260.371 90.4382 260.797 90.334C262.303 89.9714 262.78 87.7509 264.299 87.4337C264.603 87.3703 264.921 87.3929 265.211 87.2887C265.983 87.0077 266.187 85.9564 265.883 85.1951C265.642 84.5924 265.171 84.0894 264.581 83.8175C263.696 83.4005 262.594 83.541 261.791 84.1029C261.564 84.2616 261.355 84.4564 261.228 84.7011C261.119 84.9096 261.069 85.1498 260.938 85.3492C260.811 85.5485 260.557 85.7026 260.339 85.612" fill="#24033D"/>
<path d="M258.774 79.023C259.472 79.6348 260.33 80.0653 261.242 80.2601C261.836 80.387 262.467 80.4142 263.052 80.2329C263.633 80.0471 264.159 79.6302 264.372 79.0592C264.617 78.4203 264.472 77.6272 264.898 77.0925C265.47 76.3765 266.817 76.4581 267.112 75.5925C267.28 75.0986 266.981 74.5774 266.695 74.1379C266.159 73.3222 265.615 72.4974 264.88 71.8539C264.145 71.2104 263.183 70.7663 262.213 70.8615C261.242 70.9566 260.307 71.6953 260.194 72.6605C260.067 73.7436 260.924 74.8267 260.584 75.8599C260.334 76.6167 259.491 77.1469 259.477 77.9444C259.477 78.1302 259.518 78.3251 259.454 78.5018C259.391 78.6831 259.227 78.81 259.091 78.9459C258.955 79.0864 258.837 79.2768 258.896 79.4625C258.955 79.6483 259.282 79.6937 259.323 79.5033" fill="#24033D"/>
</g>
<path d="M268.546 68.5323C267.752 65.3511 267.897 61.9161 266.527 58.9343C266.373 58.5989 266.178 58.2455 265.846 58.0823C265.402 57.8603 264.83 58.0597 264.504 58.4358C264.177 58.8119 264.05 59.3195 263.986 59.8134C263.805 61.2953 264.154 62.7952 264.699 64.1819C265.243 65.5686 265.983 66.8737 266.627 68.2151C265.724 68.0429 265.012 67.3813 264.281 66.8239C263.306 66.0807 262.213 65.4916 261.056 65.0792C260.153 64.7575 259.173 64.5445 258.238 64.7575C257.304 64.9704 256.437 65.7 256.315 66.6517C256.183 67.694 256.977 68.6819 257.939 69.1124C258.901 69.5429 259.99 69.5474 261.047 69.5474C262.326 69.5474 263.61 69.5384 264.889 69.5384C265.547 69.5384 266.214 69.5338 266.854 69.3752C267.493 69.2166 268.115 68.8903 268.491 68.3511" fill="#FDEBD9"/>
<path d="M276.725 32.7821L278.309 33.4619C278.458 33.5208 275.845 37.1507 275.845 37.1507C275.845 37.1507 268.405 35.5963 267.951 35.2519C267.498 34.9075 270.397 35.0706 270.397 35.0706C270.397 35.0706 267.688 34.3954 267.017 33.829C266.482 33.3758 270.229 33.6296 270.229 33.6296C268.872 33.1991 266.305 32.551 266.373 32.0979C266.459 31.5269 270.778 32.6099 270.778 32.6099C270.778 32.6099 267.815 31.6084 267.743 31.0465C267.67 30.4846 273.513 31.7807 273.513 31.7807C273.513 31.7807 272.679 30.6795 272.946 29.4287C273.014 29.1115 273.409 28.9212 273.649 28.9302C273.858 30.5662 276.725 32.7821 276.725 32.7821Z" fill="#F3B6B5"/>
<path d="M295.071 25.8804C295.071 25.8804 297.163 33.0857 296.015 38.4874C294.1 47.4873 273.291 35.995 273.291 35.995L274.525 31.8893C274.525 31.8893 289.46 34.9709 289.351 34.4089C289.074 32.986 288.334 28.2142 288.334 28.2142L295.076 25.8804H295.071Z" fill="#F3B6B5"/>
<path d="M279.402 17.7869C279.402 17.7869 281.498 13.1555 277.941 9.91992C274.802 7.06044 270.451 7.59518 268.287 9.86554C268.287 9.86554 273.849 22.2823 279.402 17.7869Z" fill="#141212"/>
<path d="M268.269 10.7266C268.623 10.5136 269.018 10.3505 269.449 10.2508C273.323 9.34446 276.83 13.7719 277.46 17.2341C277.81 19.151 277.202 21.231 275.646 22.382C273.368 24.0678 270.397 23.1298 268.441 21.2265C266.985 19.8081 266.005 17.8594 265.91 15.8565C265.815 13.8535 266.595 11.7372 268.269 10.7312V10.7266Z" fill="#F3B6B5"/>
<path d="M276.621 15.5574C277.311 15.4078 277.955 14.7825 278.123 14.0937C278.29 13.4003 278.059 12.5937 277.537 12.0499C277.07 11.5605 276.349 11.2976 275.745 11.4834C275.142 11.6738 274.693 12.417 274.906 13.0469L276.621 15.5574Z" fill="#F3B6B5"/>
<path d="M275.55 13.9939L283.204 19.5724C284.633 20.5784 285.027 22.527 284.106 24.0134C283.04 25.7309 280.699 26.0979 279.157 24.7974L272.361 19.1373L275.546 14.003L275.55 13.9939Z" fill="#F3B6B5"/>
<path d="M276.957 22.953L275.94 22.1373C275.94 22.1373 278.027 20.3881 277.46 17.2295C277.46 17.2295 278.798 19.6992 276.957 22.953Z" fill="#1E1C1C"/>
<path d="M274.911 12.3489C272.924 15.0951 269.331 16.4546 265.942 16.296C265.942 16.296 265.152 12.0725 269.081 9.19037C272.338 6.80218 274.911 12.3489 274.911 12.3489Z" fill="#141212"/>
<path d="M276.535 13.8445C276.78 13.5409 276.789 13.1375 276.553 12.9517C276.376 12.8113 276.113 12.8294 275.891 12.9744" stroke="#1E1C1C" stroke-width="0.64" stroke-miterlimit="10" stroke-linecap="round"/>
<path d="M271.504 20.3699L270.828 20.5375H270.819L270.592 20.5149L270.664 20.3517C270.696 20.2838 270.696 20.1523 270.682 20.039C270.669 19.9167 270.646 19.7943 270.619 19.672C270.56 19.4273 270.487 19.1826 270.406 18.9424C270.533 19.1644 270.651 19.391 270.755 19.6267C270.805 19.7445 270.855 19.8668 270.896 19.9937C270.932 20.1251 270.973 20.252 270.941 20.4333L270.787 20.2475H270.791L271.485 20.2702C271.513 20.2702 271.535 20.2928 271.535 20.32C271.535 20.3427 271.517 20.3608 271.499 20.3653L271.504 20.3699Z" fill="#1E1C1C"/>
<path d="M271.771 21.3579C272.211 21.1857 272.561 20.9138 272.665 20.5241C272.733 20.3338 272.715 20.1163 272.715 19.8987C272.692 19.6812 272.656 19.4546 272.624 19.219C272.692 19.3142 272.747 19.4184 272.81 19.5226C272.86 19.6314 272.896 19.7447 272.937 19.858C272.987 20.0936 273.023 20.3519 272.937 20.6011C272.86 20.8504 272.688 21.077 272.47 21.1993C272.252 21.3307 272.003 21.3761 271.767 21.3489L271.771 21.3579Z" fill="#1E1C1C"/>
<path d="M270.515 17.1253C270.732 17.3247 270.982 17.5105 271.236 17.6328C271.363 17.6872 271.494 17.7325 271.608 17.7144C271.717 17.7008 271.803 17.6283 271.866 17.5241C272.003 17.3292 271.935 17.0392 271.817 16.7809C271.694 16.5226 271.522 16.2688 271.331 16.0422C271.299 16.0014 271.304 15.9425 271.345 15.9108C271.381 15.8791 271.431 15.8836 271.467 15.9108C271.703 16.1283 271.907 16.3685 272.066 16.6585C272.143 16.8035 272.202 16.9621 272.225 17.1389C272.252 17.3111 272.225 17.515 272.121 17.6736C272.025 17.8322 271.853 17.9727 271.649 17.9863C271.449 18.0044 271.277 17.941 271.132 17.8594C270.837 17.6963 270.61 17.4742 270.41 17.2295C270.383 17.1978 270.388 17.1479 270.419 17.1207C270.451 17.0981 270.492 17.0981 270.519 17.1207L270.515 17.1253Z" fill="#1E1C1C"/>
<path d="M267.96 19.9713C268.151 20.1344 268.355 20.284 268.568 20.3927C268.673 20.4426 268.782 20.4834 268.872 20.4788C268.959 20.4788 269.022 20.4335 269.067 20.3565C269.167 20.216 269.095 19.9758 268.986 19.7674C268.872 19.5589 268.723 19.3504 268.568 19.1601C268.537 19.1193 268.541 19.0604 268.582 19.0287C268.618 19.0015 268.668 19.0015 268.7 19.0287C268.904 19.2054 269.081 19.4003 269.226 19.6359C269.299 19.7538 269.353 19.8852 269.39 20.0302C269.421 20.1752 269.412 20.3565 269.321 20.506C269.24 20.651 269.054 20.7643 268.881 20.7507C268.714 20.7462 268.573 20.6873 268.455 20.6148C268.215 20.4698 268.024 20.284 267.856 20.0755C267.829 20.0438 267.833 19.9939 267.865 19.9667C267.897 19.9441 267.938 19.9441 267.965 19.9667L267.96 19.9713Z" fill="#1E1C1C"/>
<path d="M274.543 4.06047C276.575 5.68733 276.934 8.60572 275.351 10.577C273.767 12.5483 270.837 12.8292 268.804 11.1978C266.772 9.57096 266.413 6.65257 267.997 4.68131C269.58 2.71004 272.511 2.42907 274.543 4.06047Z" fill="#141212"/>
<path d="M294.155 98.2871L299.726 98.2645L298.356 89.1694L292.785 89.1921L294.155 98.2871Z" fill="#F3B6B5"/>
<path d="M299.603 97.3672L292.368 97.3989L286.497 99.8822C285.331 100.485 284.601 101.69 284.61 103.005L301.259 102.937L300.284 97.988C300.252 97.6391 299.957 97.3717 299.603 97.3717V97.3672Z" fill="#A15C48"/>
<path d="M291.791 97.6617L292.994 96.0212C293.279 95.627 293.765 95.4276 294.246 95.5182C294.94 95.6451 295.775 96.1345 295.652 97.7478L291.791 97.6662V97.6617Z" fill="#A15C48"/>
<path d="M305.805 54.4343C305.415 54.6926 298.914 73.7256 298.914 73.7256L300.697 92.3824L290.635 93.2072L287.681 78.1621C287.123 75.3207 287.282 72.3887 288.139 69.6244C290.916 60.6835 296.868 44.1067 296.868 44.1067L306.186 41.791L305.805 54.4298V54.4343Z" fill="#F9BCAF"/>
<path d="M312.896 98.2871L318.471 98.2645L317.101 89.1694L311.53 89.1921L312.896 98.2871Z" fill="#F3B6B5"/>
<path d="M318.349 97.3672L311.113 97.3989L305.243 99.8822C304.077 100.485 303.346 101.69 303.355 103.005L320.005 102.937L319.029 97.988C318.998 97.6391 318.703 97.3717 318.349 97.3717V97.3672Z" fill="#A15C48"/>
<path d="M310.537 97.6617L311.739 96.0212C312.025 95.627 312.51 95.4276 312.991 95.5182C313.685 95.6451 314.52 96.1345 314.397 97.7478L310.537 97.6662V97.6617Z" fill="#A15C48"/>
<path d="M314.456 38.0977C314.456 38.0977 317.428 39.2396 316.421 51.7742C316.217 54.3255 316.099 56.8859 316.035 59.4463L315.69 72.724L319.587 91.7162L309.316 92.3959L304.136 78.5381C302.884 75.1847 302.267 71.6319 302.326 68.0519C302.48 58.6034 303.736 42.6656 303.736 42.6656L314.47 38.0977H314.456Z" fill="#F9BCAF"/>
<path d="M302.643 63.6787L303.727 53.0067L300.298 50.8496" stroke="#AD5549" stroke-width="1.18" stroke-miterlimit="10"/>
<path d="M278.59 24.6976L282.641 17.3201C282.641 17.3201 287.536 17.805 291.22 19.2234C304.204 24.2263 315.876 38.5554 315.876 38.5554C315.876 38.5554 308.663 44.8 295.457 45.5931L278.59 24.7021V24.6976Z" fill="#7AA0C0"/>
<path d="M281.756 45.2578L283.462 44.9995C283.621 44.9723 283.326 49.4314 283.326 49.4314C283.326 49.4314 276.19 52.0417 275.623 51.9918C275.056 51.942 277.601 50.5462 277.601 50.5462C277.601 50.5462 274.947 51.4027 274.076 51.2758C273.382 51.1761 276.693 49.4088 276.693 49.4088C275.314 49.7577 272.792 50.5689 272.61 50.1474C272.384 49.6172 276.621 48.2532 276.621 48.2532C276.621 48.2532 273.577 48.9692 273.218 48.5296C272.86 48.0901 278.504 46.1007 278.504 46.1007C278.504 46.1007 277.211 45.6067 276.775 44.4058C276.666 44.0977 276.898 43.7306 277.111 43.6128C278.154 44.8907 281.761 45.2578 281.761 45.2578H281.756Z" fill="#F3B6B5"/>
<path d="M293.669 29.7052C293.669 29.7052 299.259 34.7172 301.146 39.9014C304.29 48.5478 280.54 49.794 280.54 49.794L279.415 45.6612C279.415 45.6612 293.724 40.3818 293.329 39.9603C292.34 38.8999 289.183 35.2429 289.183 35.2429L293.665 29.7007L293.669 29.7052Z" fill="#F3B6B5"/>
<path d="M298.061 30.8835L290.861 38.6235C290.861 38.6235 277.156 26.8412 281.089 21.4848C285.803 15.0635 298.061 30.8835 298.061 30.8835Z" fill="#7AA0C0"/>
</g>
<defs>
<filter id="filter0_dddd_1511_274" x="-35" y="12" width="164" height="166" filterUnits="userSpaceOnUse" color-interpolation-filters="sRGB">
<feFlood flood-opacity="0" result="BackgroundImageFix"/>
<feColorMatrix in="SourceAlpha" type="matrix" values="0 0 0 0 0 0 0 0 0 0 0 0 0 0 0 0 0 0 127 0" result="hardAlpha"/>
<feOffset dy="3"/>
<feGaussianBlur stdDeviation="3.5"/>
<feColorMatrix type="matrix" values="0 0 0 0 0 0 0 0 0 0 0 0 0 0 0 0 0 0 0.1 0"/>
<feBlend mode="normal" in2="BackgroundImageFix" result="effect1_dropShadow_1511_274"/>
<feColorMatrix in="SourceAlpha" type="matrix" values="0 0 0 0 0 0 0 0 0 0 0 0 0 0 0 0 0 0 127 0" result="hardAlpha"/>
<feOffset dy="13"/>
<feGaussianBlur stdDeviation="6.5"/>
<feColorMatrix type="matrix" values="0 0 0 0 0 0 0 0 0 0 0 0 0 0 0 0 0 0 0.09 0"/>
<feBlend mode="normal" in2="effect1_dropShadow_1511_274" result="effect2_dropShadow_1511_274"/>
<feColorMatrix in="SourceAlpha" type="matrix" values="0 0 0 0 0 0 0 0 0 0 0 0 0 0 0 0 0 0 127 0" result="hardAlpha"/>
<feOffset dy="30"/>
<feGaussianBlur stdDeviation="9"/>
<feColorMatrix type="matrix" values="0 0 0 0 0 0 0 0 0 0 0 0 0 0 0 0 0 0 0.05 0"/>
<feBlend mode="normal" in2="effect2_dropShadow_1511_274" result="effect3_dropShadow_1511_274"/>
<feColorMatrix in="SourceAlpha" type="matrix" values="0 0 0 0 0 0 0 0 0 0 0 0 0 0 0 0 0 0 127 0" result="hardAlpha"/>
<feOffset dy="54"/>
<feGaussianBlur stdDeviation="10.5"/>
<feColorMatrix type="matrix" values="0 0 0 0 0 0 0 0 0 0 0 0 0 0 0 0 0 0 0.01 0"/>
<feBlend mode="normal" in2="effect3_dropShadow_1511_274" result="effect4_dropShadow_1511_274"/>
<feBlend mode="normal" in="SourceGraphic" in2="effect4_dropShadow_1511_274" result="shape"/>
</filter>
<filter id="filter1_dddd_1511_274" x="225" y="0" width="113" height="165" filterUnits="userSpaceOnUse" color-interpolation-filters="sRGB">
<feFlood flood-opacity="0" result="BackgroundImageFix"/>
<feColorMatrix in="SourceAlpha" type="matrix" values="0 0 0 0 0 0 0 0 0 0 0 0 0 0 0 0 0 0 127 0" result="hardAlpha"/>
<feOffset dy="3"/>
<feGaussianBlur stdDeviation="3"/>
<feColorMatrix type="matrix" values="0 0 0 0 0 0 0 0 0 0 0 0 0 0 0 0 0 0 0.1 0"/>
<feBlend mode="normal" in2="BackgroundImageFix" result="effect1_dropShadow_1511_274"/>
<feColorMatrix in="SourceAlpha" type="matrix" values="0 0 0 0 0 0 0 0 0 0 0 0 0 0 0 0 0 0 127 0" result="hardAlpha"/>
<feOffset dy="11"/>
<feGaussianBlur stdDeviation="5.5"/>
<feColorMatrix type="matrix" values="0 0 0 0 0 0 0 0 0 0 0 0 0 0 0 0 0 0 0.09 0"/>
<feBlend mode="normal" in2="effect1_dropShadow_1511_274" result="effect2_dropShadow_1511_274"/>
<feColorMatrix in="SourceAlpha" type="matrix" values="0 0 0 0 0 0 0 0 0 0 0 0 0 0 0 0 0 0 127 0" result="hardAlpha"/>
<feOffset dy="25"/>
<feGaussianBlur stdDeviation="7.5"/>
<feColorMatrix type="matrix" values="0 0 0 0 0 0 0 0 0 0 0 0 0 0 0 0 0 0 0.05 0"/>
<feBlend mode="normal" in2="effect2_dropShadow_1511_274" result="effect3_dropShadow_1511_274"/>
<feColorMatrix in="SourceAlpha" type="matrix" values="0 0 0 0 0 0 0 0 0 0 0 0 0 0 0 0 0 0 127 0" result="hardAlpha"/>
<feOffset dy="44"/>
<feGaussianBlur stdDeviation="9"/>
<feColorMatrix type="matrix" values="0 0 0 0 0 0 0 0 0 0 0 0 0 0 0 0 0 0 0.01 0"/>
<feBlend mode="normal" in2="effect3_dropShadow_1511_274" result="effect4_dropShadow_1511_274"/>
<feBlend mode="normal" in="SourceGraphic" in2="effect4_dropShadow_1511_274" result="shape"/>
</filter>
<clipPath id="clip0_1511_274">
<rect width="122" height="87" fill="white" transform="matrix(-1 0 0 1 108 16)"/>
</clipPath>
<clipPath id="clip1_1511_274">
<rect width="77" height="100" fill="white" transform="translate(243 3)"/>
</clipPath>
</defs>
</svg>
