<svg width="19" height="24" viewBox="0 0 19 24" fill="none" xmlns="http://www.w3.org/2000/svg">
<path d="M0.979013 21.0382C1.1027 22.483 2.30608 23.6585 3.7532 23.7507C4.41461 23.7928 5.03382 23.6185 5.54758 23.291C5.78555 23.1393 6.08246 23.1395 6.32042 23.2912C6.89874 23.6599 7.6121 23.8348 8.37027 23.7243C9.67444 23.5342 10.7211 22.4531 10.8777 21.1445C11.0253 19.911 10.4186 18.8041 9.45814 18.2243C8.52109 17.6586 7.9205 16.6721 7.9205 15.5776L7.92049 12.7517C7.92049 12.5459 7.66823 12.4467 7.52798 12.5973L6.64502 13.5458C6.53404 13.665 6.33729 13.6317 6.27169 13.4827L5.68299 12.1447C5.62059 12.0029 5.43747 11.9641 5.32293 12.0684L4.52425 12.7959C4.44985 12.8637 4.33969 12.8742 4.25375 12.8219L3.53716 12.3855C3.38614 12.2935 3.19265 12.4022 3.19264 12.5791L3.19264 16.4608C3.19264 17.2279 2.79828 17.9231 2.18055 18.3779C1.38057 18.967 0.885743 19.9488 0.979013 21.0382Z" fill="white"/>
<path d="M7.39053 9.3863L8.27793 9.3234C8.39574 9.31505 8.50021 9.39857 8.518 9.51532L8.67609 10.5525C8.69897 10.7027 8.86012 10.7882 8.99731 10.7231L10.1051 10.1974C10.2463 10.1304 10.4113 10.223 10.4277 10.3784L10.5753 11.7814C10.5966 11.9843 10.8542 12.0579 10.9795 11.8969L13.9106 8.13017C14.0158 7.99476 14.2095 7.97653 14.3438 8.08163C14.3449 8.08175 14.3459 8.08296 14.3469 8.08418C15.4879 8.97194 17.2482 8.61666 18.2809 7.28961C19.3123 5.96466 19.2237 4.17009 18.0827 3.28233C17.6434 2.94089 17.1126 2.78328 16.5671 2.79433C16.0258 2.8053 15.5279 2.42828 15.4014 1.90188C15.2697 1.35425 14.975 0.864577 14.5211 0.511289C13.3284 -0.417404 11.4884 -0.0456921 10.4095 1.34023C9.60399 2.37567 9.45061 3.68245 9.92088 4.66507C10.0812 4.99995 10.0133 5.40029 9.78525 5.69328L7.19565 9.02105C7.07519 9.17584 7.19489 9.40017 7.39053 9.3863Z" fill="white"/>
<path d="M3.59 10.7047C3.47583 10.7047 3.37085 10.6291 3.33842 10.5142L2.56171 7.75264C2.52263 7.61319 2.60359 7.46914 2.74279 7.4298C2.88123 7.39047 3.0263 7.4722 3.06538 7.61063L3.84209 10.3722C3.88117 10.5116 3.8002 10.6557 3.661 10.695C3.63751 10.7016 3.6135 10.7047 3.59 10.7047Z" fill="white"/>
<path d="M5.09291 10.4182C5.06278 10.4182 5.03213 10.4131 5.00224 10.4019C4.86662 10.3518 4.7974 10.2011 4.84772 10.0658L5.68854 7.79412C5.73885 7.65875 5.88955 7.58979 6.02441 7.63985C6.16003 7.68991 6.22925 7.84061 6.17893 7.97598L5.33811 10.2476C5.29903 10.3529 5.19917 10.4182 5.09291 10.4182Z" fill="white"/>
<path d="M2.43351 11.2247C2.37655 11.2247 2.31908 11.2063 2.27106 11.168L0.0987749 9.44034C-0.0143731 9.35043 -0.0330183 9.18595 0.0568872 9.07254C0.146282 8.95965 0.311023 8.94024 0.424171 9.03066L2.59646 10.7583C2.70961 10.8482 2.72825 11.0127 2.63835 11.1261C2.58675 11.1909 2.51064 11.2247 2.43351 11.2247Z" fill="white"/>
</svg>
