<svg width="172" height="113" viewBox="0 0 172 113" fill="none" xmlns="http://www.w3.org/2000/svg">
<g clip-path="url(#clip0_1523_310)" filter="url(#filter0_dddd_1523_310)">
<path d="M71.7222 14.0782C73.4302 13.7827 75.1183 14.3697 76.6001 15.17C81.1571 17.522 85.7488 19.8369 90.5668 21.6258C91.9327 22.2234 93.4544 22.5189 94.6806 23.4014C96.0744 24.5608 96.2196 26.5829 95.7762 28.2233C94.9162 31.4843 93.7673 34.7533 91.7317 37.4856C90.0609 39.88 87.4143 37.5757 86.0856 36.0532C85.5465 35.2661 85.0778 34.426 84.3935 33.7502C84.3017 33.7913 84.2098 33.8323 84.1193 33.8761C82.2302 30.9357 80.3317 27.9874 78.8979 24.7874C78.1484 23.4716 77.9034 21.8696 76.8331 20.7473C76.9449 20.6691 77.0607 20.5922 77.1739 20.514C76.1221 17.9315 74.8614 14.534 71.5518 14.3935C71.854 14.3313 72.1562 14.269 72.4597 14.2067C72.2121 14.1603 71.9658 14.114 71.7195 14.0769L71.7222 14.0782Z" fill="#585459"/>
<path d="M66.2945 18.2084C67.6524 16.3759 69.3032 14.3883 71.7222 14.0782C71.9685 14.114 72.2148 14.1603 72.4624 14.208C72.1589 14.2703 71.8554 14.3326 71.5545 14.3949C74.8641 14.5353 76.1235 17.9315 77.1766 20.5154C77.0621 20.5936 76.9476 20.6704 76.8358 20.7486C73.1907 22.8409 70.9354 26.7339 69.9076 30.7039C72.1003 32.6636 73.9415 34.9838 75.5244 37.4538C78.5332 36.7157 82.145 36.6759 84.122 33.8787C84.2126 33.835 84.3044 33.7939 84.3963 33.7528C85.0806 34.4286 85.5492 35.27 86.0884 36.0558C83.8677 40.5717 79.324 43.1569 75.7494 46.447C74.5353 44.3932 72.4611 43.1383 70.7517 41.5641C72.2734 41.7549 73.5821 42.6043 75.0092 43.0787C75.4472 42.9197 75.2169 42.4599 75.1743 42.126C74.7443 37.797 71.8234 34.3756 69.4231 30.9477C67.3662 28.8289 64.5571 27.5542 61.8213 26.5219C62.9596 23.5803 64.5292 20.8175 66.2971 18.2098L66.2945 18.2084Z" fill="#433F43"/>
<path d="M23.3918 17.4373C24.9282 16.4474 26.7494 15.602 28.6239 15.981C24.9934 16.5866 23.0457 20.1576 22.2243 23.4001C22.3574 23.4504 22.4932 23.5021 22.6277 23.5538C22.3627 23.7499 22.0659 23.9434 21.9447 24.268C20.3139 28.3254 18.5233 32.3536 16.2347 36.0876C15.6277 36.8535 14.8555 37.5611 14.6625 38.5642C13.5056 39.668 12.7174 41.3111 11.0693 41.7801C9.82316 42.0107 8.88459 40.9904 8.24689 40.0721C6.28055 37.2815 4.54186 34.1862 4.04795 30.7701C3.71379 28.5824 5.17157 26.3762 7.28302 25.7309C12.981 23.6452 18.265 20.6373 23.3918 17.4373Z" fill="#585459"/>
<path d="M22.2229 23.4C23.0443 20.1576 24.9934 16.5865 28.6225 15.981C33.7853 17.4849 36.199 22.9853 38.4063 27.4044C35.6332 28.5082 33.1063 30.1897 30.9163 32.1985C29.0632 28.6354 26.7028 24.8311 22.6263 23.5524C22.4905 23.5007 22.356 23.4491 22.2229 23.3987V23.4Z" fill="#433F43"/>
<path d="M49.1128 24.8576C49.8889 23.0807 51.0299 20.8559 53.1639 20.575C54.7469 20.9672 52.9749 22.4778 52.6327 23.2821C53.1812 23.2211 53.7297 23.1575 54.2796 23.1204C54.406 23.9791 53.6086 24.5078 53.1373 25.104C56.0702 25.3028 58.9751 25.7825 61.8188 26.5205C64.5546 27.5528 67.3623 28.8275 69.4205 30.9463C71.8222 34.3742 74.7418 37.7956 75.1718 42.1246C72.0578 39.8468 68.0799 38.0169 64.1539 39.0292C62.7587 39.3419 61.7762 40.3874 60.8669 41.4051C60.988 39.3525 63.2526 38.6622 64.8195 37.9201C64.4161 36.982 63.3098 37.3186 62.575 37.6127C61.036 38.2222 59.9256 39.4903 58.8979 40.7293C59.6447 38.3799 62.0837 37.1132 64.2857 36.3923C65.7155 35.8504 67.4236 36.1538 68.6883 35.1984C65.0924 33.2771 60.8749 36.1233 58.4293 38.7907C57.2777 38.7973 56.2259 39.3923 55.5896 40.3384C52.931 43.769 52.8777 48.3153 52.4104 52.431C51.9751 52.4495 51.4532 52.4085 51.2934 51.9235C50.5066 50.1081 50.3123 48.1073 49.7904 46.2111C49.379 48.2663 49.2299 50.4474 48.2341 52.3263C48.1409 52.2561 47.9532 52.113 47.8613 52.0414C47.7468 48.9646 47.6829 45.7593 46.329 42.9236C46.2358 44.1228 46.4821 45.4956 45.6194 46.4827C45.1708 44.1771 44.3014 40.0469 41.1595 40.6564C39.7603 38.0102 37.2788 35.7828 34.2514 35.27C33.651 35.1229 33.0692 35.4065 32.8455 35.9802C36.1924 36.9396 39.8762 39.3393 39.538 43.2946C38.5914 41.9457 37.6262 40.5027 36.0367 39.8388C32.5713 38.3084 28.556 39.3724 25.4541 41.2567C25.4155 40.7306 25.3862 40.2059 25.3689 39.6798C27.0157 37.0482 28.6785 34.3862 30.9138 32.1998C33.1051 30.1897 35.6306 28.5095 38.4037 27.4057C41.0703 26.5775 43.8421 26.1986 46.6046 25.8633C46.0241 24.4799 44.6116 22.8077 45.5182 21.3342C47.3195 21.4548 48.3193 23.4292 49.1101 24.8589L49.1128 24.8576Z" fill="#6A686E"/>
<path d="M69.9065 30.7012C70.9343 26.7313 73.1895 22.8383 76.8346 20.746C77.9037 21.8696 78.1499 23.4703 78.8995 24.7861C80.3333 27.9862 82.2317 30.9358 84.1209 33.8748C82.1425 36.672 78.532 36.7118 75.5233 37.4498C73.9404 34.9812 72.0992 32.6597 69.9065 30.6999V30.7012Z" fill="#E69685"/>
<path d="M21.9447 24.2679C22.0659 23.9433 22.3628 23.7498 22.6277 23.5537C26.7028 24.8324 29.0646 28.6367 30.9177 32.1998C28.6811 34.3862 27.0197 37.0482 25.3728 39.6798C22.3415 38.5986 18.064 39.4625 16.2361 36.0889C18.5246 32.3535 20.3152 28.3266 21.9461 24.2692L21.9447 24.2679Z" fill="#E69685"/>
<path d="M58.4304 38.7895C60.876 36.1221 65.0936 33.2758 68.6895 35.1972C67.4247 36.1526 65.7167 35.8491 64.2868 36.3911C62.0849 37.1119 59.6459 38.3787 58.899 40.728C59.9268 39.4891 61.0358 38.221 62.5761 37.6115C63.311 37.316 64.4173 36.9794 64.8207 37.9189C63.2537 38.6609 60.9892 39.3513 60.868 41.4038C61.776 40.3862 62.7598 39.3407 64.155 39.028C68.0811 38.0156 72.059 39.8455 75.1729 42.1233C75.2169 42.4559 75.4472 42.9171 75.0079 43.0761C73.5807 42.6017 72.272 41.7523 70.7503 41.5615C72.4597 43.1344 74.5339 44.3905 75.7481 46.4444C75.7254 46.6458 75.7068 46.8485 75.6921 47.05C75.5643 47.0751 75.3074 47.1281 75.1796 47.1533L75.0238 47.1758C75.3407 47.8781 75.7281 48.546 76.1435 49.1939C76.4324 49.6405 76.6347 50.201 76.2806 50.674C76.1608 50.6727 75.9238 50.6674 75.8053 50.6661C74.498 48.9832 72.9829 47.4832 71.1817 46.3291C69.1048 44.69 66.2691 43.948 63.6997 44.7642C62.5282 45.0398 61.531 45.868 60.3355 46.0098C59.0255 45.444 57.3574 44.9285 56.8994 43.406C56.4228 41.7165 57.412 40.0655 58.4304 38.7895Z" fill="#FEFFFE"/>
<path d="M32.8481 35.979C33.0717 35.4039 33.6535 35.1216 34.2539 35.2687C37.28 35.7815 39.7629 38.009 41.1621 40.6551C41.6973 41.6874 42.982 42.5871 42.5174 43.8896C42.2258 45.5804 40.2967 46.769 38.6978 46.5226C35.8901 44.7708 32.1491 44.6131 29.3561 46.4841C27.7132 47.1877 26.2075 48.22 25.1505 49.6749C24.357 49.9187 23.734 50.4686 23.0576 50.9205C22.6037 49.659 23.3226 48.3922 24.0854 47.421C24.0095 47.0764 23.9323 46.7319 23.8564 46.3887C25.1491 44.5151 27.2606 43.459 28.749 41.7815C26.8106 42.0504 25.1345 43.1251 23.28 43.6485C23.3931 42.4533 24.5487 41.8384 25.4553 41.2541C28.5586 39.3698 32.5725 38.3058 36.0379 39.8363C37.6275 40.5001 38.5927 41.9431 39.5392 43.292C39.8774 39.338 36.1937 36.937 32.8468 35.9776L32.8481 35.979Z" fill="#FEFFFE"/>
<path d="M14.6625 38.5642C14.8542 37.5611 15.6277 36.8549 16.2347 36.0876C18.064 39.4613 22.3401 38.596 25.3715 39.6786C25.3888 40.2046 25.4181 40.7294 25.4567 41.2554C24.5501 41.8398 23.3945 42.4546 23.2813 43.6498C25.1359 43.1264 26.812 42.0518 28.7504 41.7828C27.2633 43.4603 25.1518 44.5151 23.8578 46.3901C23.8099 46.4537 23.7127 46.5835 23.6634 46.6471C20.2393 44.5032 16.8405 42.0266 14.6611 38.5642H14.6625Z" fill="#433F43"/>
<path d="M55.5908 40.3371C56.2271 39.391 57.2789 38.7961 58.4304 38.7894C57.4133 40.0668 56.4228 41.7178 56.8994 43.406C57.3574 44.9272 59.0242 45.4439 60.3355 46.0097C61.5311 45.868 62.5282 45.0398 63.6998 44.7642C66.2692 43.9479 69.1049 44.69 71.1817 46.3291C71.1191 46.398 70.994 46.5358 70.9328 46.6047C72.2334 48.3564 73.7778 50.0088 74.5752 52.064C73.6992 52.439 72.7846 52.6974 71.8673 52.9425C70.7291 51.685 69.8637 50.136 68.3886 49.2191C66.0402 47.515 62.3418 47.6661 60.5406 50.091C59.3863 51.7367 58.4624 53.9867 59.2718 55.9584C59.626 56.7349 60.036 57.4955 60.6191 58.1275C58.3918 57.6863 56.3083 58.9371 54.105 58.7158C54.9544 58.3713 55.8317 58.0997 56.6931 57.783V57.1165C54.8838 56.8502 53.1358 57.3855 51.5037 58.1063C52.1933 56.6673 54.0065 56.6143 55.0409 55.5463C52.7178 54.9738 50.8447 56.9191 49.5027 58.533C48.0529 57.5339 46.5073 56.3506 44.6128 56.7521C44.8524 58.1063 46.7429 57.8612 47.1942 59.1266C44.5955 58.2826 41.8224 58.1726 39.1411 58.6734C39.9546 58.4866 40.2301 57.6558 40.5164 56.9787C41.6506 55.0467 40.8998 52.5874 39.6963 50.8688C37.9909 48.5671 34.5282 48.477 32.1904 49.8299C30.4331 50.5998 29.4399 52.284 28.3189 53.7323C27.4682 53.2566 26.5789 52.8484 25.6643 52.5052C26.2155 50.1559 27.829 48.2743 29.3587 46.4841C32.1518 44.6118 35.8927 44.7708 38.7005 46.5225C40.298 46.769 42.2284 45.5804 42.52 43.8896C42.9846 42.5871 41.6999 41.686 41.1647 40.6551C44.3079 40.0456 45.1759 44.1772 45.6246 46.4815C46.486 45.4943 46.2397 44.1215 46.3342 42.9223C47.6881 45.7593 47.752 48.9646 47.8665 52.0401C47.9584 52.1104 48.1461 52.2548 48.2393 52.325C49.2364 50.4461 49.3855 48.265 49.7956 46.2098C50.3175 48.106 50.5118 50.1069 51.2986 51.9222C51.4584 52.4072 51.9803 52.4483 52.4156 52.4297C52.8829 48.3127 52.9361 43.7664 55.5948 40.3371H55.5908Z" fill="#B9B8BC"/>
<path d="M70.9327 46.6061C70.9953 46.5372 71.1204 46.3993 71.1817 46.3304C72.9829 47.4846 74.498 48.9859 75.8053 50.6674C76.9356 57.2398 75.342 64.0095 73.2412 70.2519L73.1507 70.2559C70.8648 67.0758 67.8028 64.5793 64.5677 62.4354C65.6568 62.6977 66.6086 63.2993 67.6031 63.7843C67.7789 63.6266 67.9533 63.4702 68.1303 63.3165C67.0347 62.2207 65.7473 61.3011 64.2908 60.7459C63.8994 60.5339 63.5293 60.2821 63.1646 60.0304C63.4361 60.0171 63.7091 60.0078 63.9833 60.0025C67.1225 60.1152 70.1473 57.5485 70.3629 54.3895C71.1098 54.1947 72.055 53.9112 71.8673 52.9439C72.7846 52.6987 73.6992 52.4403 74.5752 52.0653C73.7777 50.0102 72.2334 48.3578 70.9327 46.6061Z" fill="#6A686E"/>
<path d="M25.1518 49.6749C26.2088 48.22 27.7132 47.1891 29.3574 46.4841C27.829 48.2756 26.2142 50.1559 25.663 52.5053C26.5763 52.8484 27.4656 53.2552 28.3176 53.7323C28.1552 54.4465 28.697 54.8997 29.2575 55.2217C29.786 57.457 31.3849 59.4804 33.6229 60.192C35.2351 60.7909 36.8886 60.0396 38.5088 59.8992C36.0565 61.0149 32.7202 61.4919 31.3117 63.987C32.7123 63.9472 33.8652 63.0753 35.1605 62.6699C32.3129 64.9993 29.0685 66.9923 26.8865 70.0505C24.9893 64.8125 23.8737 59.234 24.2425 53.6514C24.3676 52.2972 24.2039 50.7893 25.1531 49.6749H25.1518Z" fill="#6A686E"/>
<path d="M75.0227 47.1772L75.1785 47.1547C75.9613 47.4926 76.1383 48.432 76.1423 49.1953C75.727 48.546 75.3396 47.8782 75.0227 47.1772Z" fill="#433F43"/>
<path d="M60.5406 50.091C62.3419 47.6674 66.0389 47.515 68.3887 49.2191C69.8638 50.1347 70.7291 51.685 71.8674 52.9425C72.0551 53.9098 71.1099 54.1934 70.363 54.3882C69.6867 53.022 68.8387 51.7023 67.5819 50.7946C65.6355 49.1555 62.4005 49.3794 60.7936 51.3842C59.6739 52.6417 59.5302 54.3736 59.2719 55.9584C58.4624 53.9867 59.3864 51.7367 60.5406 50.091Z" fill="#332E2E"/>
<path d="M32.1877 49.8299C34.5255 48.477 37.9882 48.5671 39.6936 50.8687C40.8971 52.5874 41.6466 55.0454 40.5137 56.9786C40.8026 55.2123 40.3925 53.2711 39.1251 51.9527C37.4943 50.189 34.4309 50.0684 32.6443 51.6611C31.1306 52.4681 30.3904 54.0317 29.2575 55.2216C28.697 54.9009 28.1552 54.4464 28.3176 53.7322C29.4372 52.2826 30.4304 50.5984 32.189 49.8299H32.1877Z" fill="#332E2E"/>
<path d="M60.7937 51.3843C62.4005 49.3794 65.6356 49.1555 67.582 50.7946C67.5061 50.8277 67.3543 50.8927 67.2785 50.9258C68.4873 52.8458 69.0637 55.6788 67.1786 57.3868C65.4745 59.3811 62.8053 58.5118 60.6193 58.1275C60.0375 57.4955 59.6261 56.7349 59.272 55.9584C59.5302 54.3749 59.674 52.6417 60.7937 51.3843Z" fill="#6A686E"/>
<path d="M32.643 51.6612C34.4296 50.0685 37.4929 50.1891 39.1238 51.9527C40.3912 53.2712 40.8012 55.2124 40.5123 56.9787C40.2261 57.6545 39.9505 58.4867 39.1371 58.6735C38.2291 58.798 37.3412 59.0207 36.4519 59.234C34.3164 59.7123 31.9361 58.2057 31.558 56.0366C31.1812 54.4836 31.8655 52.9704 32.6417 51.6612H32.643Z" fill="#6A686E"/>
<path d="M61.9852 57.1523C59.4823 55.4721 60.2744 50.7774 63.4829 50.6594C62.6561 51.0371 62.2261 52.1833 63.0928 52.7729C64.1232 53.6859 65.8792 52.5331 65.1657 51.2385L65.1324 51.0742C66.9922 51.9315 67.771 54.3789 66.8045 56.1638C65.9365 57.8652 63.4549 58.3925 61.9838 57.1509L61.9852 57.1523Z" fill="#332E2E"/>
<path d="M63.4828 50.6608C64.0739 50.7562 64.649 50.9351 65.1656 51.2398C65.8778 52.5344 64.1218 53.6859 63.0927 52.7743C62.226 52.1846 62.656 51.0384 63.4828 50.6608Z" fill="#FEFFFE"/>
<path d="M67.2785 50.9257C67.3543 50.8926 67.5061 50.8277 67.582 50.7946C68.8387 51.7022 69.6868 53.022 70.3631 54.3881C70.1474 57.5471 67.1227 60.1125 63.9835 60.0012C62.5883 59.6315 61.1704 59.1862 59.7046 59.3492C61.1172 60.1297 62.7786 60.2304 64.291 60.7445C65.7474 61.2997 67.0348 62.2193 68.1305 63.3152C67.9534 63.4689 67.779 63.6252 67.6033 63.7829C66.6088 63.2979 65.6569 62.6963 64.5679 62.434C67.803 64.5779 70.8637 67.0744 73.1508 70.2546C74.988 72.6927 77.3445 75.2845 77.4164 78.4726C77.1062 78.466 76.7361 78.4978 76.6242 78.1374C75.8148 76.5168 75.0693 74.8128 73.7553 73.5209C73.3479 74.3821 74.4103 74.9705 74.7378 75.6807C76.1716 78.2394 77.8357 81.1188 77.0982 84.1585C77.0968 84.5918 76.3753 85.2597 76.318 84.511C76.3393 82.4479 76.0385 80.1489 74.5168 78.6144C74.9122 82.11 74.8389 85.8175 72.862 88.8784C72.5504 89.5966 72.1178 90.291 71.4055 90.6765C72.2722 89.105 73.0736 87.1585 72.1537 85.4266C71.946 87.3122 71.5493 89.2243 70.3897 90.7826C68.7868 93.4261 66.5662 96.5108 63.2166 96.7811C63.4576 95.411 63.869 94.074 63.9701 92.684C64.2018 90.1611 64.4002 87.3042 63.1048 85.0357C61.9226 84.784 60.6153 85.1841 59.3811 85.155C60.7284 87.5587 61.9798 90.177 61.8547 93.006C61.888 95.8894 60.5846 98.896 58.0538 100.429C57.9393 100.418 57.713 100.397 57.5985 100.388C57.5133 99.7268 57.3988 99.0722 57.2138 98.4322C56.0382 100.169 54.9465 102.215 52.7792 102.873C53.0774 102.293 53.3144 101.684 53.4581 101.049C52.3931 101.855 51.9445 103.202 50.9047 104.015C49.2179 103.556 48.278 101.861 46.9747 100.811C47.1677 101.509 47.394 102.199 47.6124 102.894C45.1162 102.744 43.7023 100.405 42.6253 98.4534C42.4536 99.0815 42.3364 99.7268 42.3337 100.38C39.4355 99.6142 38.1801 96.275 37.7966 93.5891C37.5863 90.6474 38.6993 87.8144 40.3541 85.4279C38.9775 85.5989 37.5943 85.4783 36.219 85.3657C35.2246 87.8144 34.8571 90.6129 35.4908 93.1968C35.6812 94.6385 36.4653 95.9159 36.6544 97.3562C35.2791 97.4715 33.9798 96.9057 32.9081 96.0934C29.4547 93.6328 26.6869 89.8378 26.4712 85.4995C25.3902 86.6099 26.6469 88.4716 25.9201 89.6629C24.9828 89.4058 24.5821 88.139 24.2746 87.2671C23.0338 82.7327 24.5941 78.0725 26.3514 73.9237C24.6646 75.0619 23.762 77.1264 22.9379 78.9404C22.5132 79.6599 22.657 80.9386 21.6692 81.1387C21.7797 76.9594 23.995 73.0001 26.8799 70.0545C29.0619 66.9962 32.305 65.0033 35.154 62.6738C33.8586 63.0793 32.7057 63.9512 31.3052 63.9909C32.715 61.4958 36.05 61.0201 38.5022 59.9031C36.882 60.0449 35.2272 60.7949 33.6163 60.1959C31.3784 59.483 29.7795 57.461 29.251 55.2256C30.3853 54.0357 31.1255 52.4721 32.6378 51.6651C31.8617 52.9743 31.1787 54.4875 31.5541 56.0405C31.9322 58.2097 34.3126 59.7149 36.448 59.2379C37.3373 59.0246 38.2253 58.802 39.1333 58.6774C41.8145 58.1765 44.589 58.2878 47.1864 59.1306C46.735 57.8665 44.8446 58.1103 44.605 56.7561C46.4994 56.3546 48.0464 57.5378 49.4948 58.5369C50.8368 56.9243 52.71 54.9778 55.0331 55.5502C53.9987 56.6182 52.1854 56.6712 51.4958 58.1103C53.128 57.3894 54.876 56.8541 56.6852 57.1204V57.787C55.8239 58.105 54.9465 58.3753 54.0972 58.7198C56.3005 58.9411 58.384 57.6902 60.6113 58.1315C62.7973 58.5157 65.4665 59.3863 67.1706 57.3908C69.0571 55.6827 68.4793 52.8497 67.2705 50.9297L67.2785 50.9257Z" fill="#FEFFFE"/>
<path d="M36.0579 51.2067C37.6009 51.167 39.1492 52.17 39.3941 53.7522C40.2715 56.3414 37.4904 59.3042 34.8424 58.2852C32.6031 57.4902 32.2983 54.4796 33.6815 52.7849C34.4923 54.8904 37.9124 53.3864 36.2562 51.5168C36.2083 51.4386 36.1085 51.2862 36.0592 51.208L36.0579 51.2067Z" fill="#332E2E"/>
<path d="M33.6814 52.7835C34.174 51.8467 35.1565 51.1272 36.2561 51.5154C37.9136 53.3851 34.4935 54.889 33.6814 52.7835Z" fill="#F6E4DF"/>
<path d="M59.7046 59.3492C61.169 59.1875 62.5869 59.6328 63.9834 60.0011C63.7092 60.0064 63.4376 60.0144 63.1647 60.029C63.5308 60.2807 63.8995 60.5325 64.2909 60.7445C62.7772 60.2304 61.1171 60.1283 59.7046 59.3492Z" fill="#B9B8BC"/>
<path d="M44.8444 66.547C47.6548 65.7532 50.6782 65.6804 53.5418 66.2342C55.3311 66.5443 57.3906 67.9529 56.9407 70.012C56.07 73.2081 53.3315 75.7708 50.127 76.6202C50.0565 78.0022 50.2482 79.3962 50.0085 80.7676C50.3001 81.1108 50.5943 81.4527 50.8859 81.7972C50.4825 83.4973 50.5624 85.2967 49.91 86.9385C49.4201 85.2411 49.267 83.4615 48.6586 81.7932C48.9515 81.4553 49.2324 81.1042 49.5026 80.7464C49.1139 79.4055 49.3615 77.9982 49.1632 76.6334C46.213 75.629 43.372 73.5486 42.2617 70.558C41.5854 68.7241 43.1856 67.0492 44.8444 66.5443V66.547Z" fill="#332E2E"/>
<path d="M45.1761 67.9238C47.5298 67.611 50.488 66.9724 52.5568 68.1424C50.0779 68.3239 47.5777 68.1808 45.0962 68.3465C45.1148 68.2418 45.1548 68.0311 45.1761 67.9238Z" fill="#FEFFFE"/>
<path d="M43.4306 84.6501C45.2771 83.8895 47.0331 82.9553 48.6587 81.7959C49.2671 83.4642 49.4202 85.2437 49.9101 86.9411C50.5624 85.2981 50.4826 83.4986 50.8859 81.7999C52.5088 83.0348 54.3979 83.8723 56.3829 84.3361C56.5906 85.836 57.5971 87.5162 56.5666 88.9168C54.0811 93.4592 46.474 93.6871 43.862 89.1514C42.8795 87.8157 43.404 86.158 43.4306 84.6501Z" fill="#E69685"/>
<path d="M56.383 84.3361C57.2789 84.564 58.1855 84.7508 59.0948 84.9297C58.8033 86.7185 58.0391 88.4133 57.0539 89.9265C54.7188 93.3585 49.7158 94.2383 46.0893 92.468C43.3401 91.1098 42.0781 88.0701 41.262 85.3007C41.9955 85.1218 42.7304 84.9323 43.4307 84.6501C43.404 86.158 42.8795 87.8157 43.862 89.1514C46.474 93.6871 54.0811 93.4592 56.5667 88.9168C57.5958 87.5162 56.5906 85.8347 56.383 84.3361Z" fill="#332E2E"/>
<path d="M59.3838 85.1536C60.6179 85.1828 61.9253 84.7826 63.1075 85.0344C64.4028 87.3029 64.2045 90.1597 63.9728 92.6827C63.9808 92.6032 63.9968 92.4468 64.0061 92.3686C63.3245 92.6827 62.6029 92.9066 61.8587 93.0033C61.9838 90.1756 60.7324 87.556 59.3851 85.1523L59.3838 85.1536Z" fill="#F6E4DF"/>
<path d="M36.2229 85.3617C37.5981 85.4743 38.9814 85.5949 40.3579 85.424C38.7044 87.8104 37.5915 90.6434 37.8005 93.5851C36.9125 93.4725 36.1257 93.0365 35.4414 92.4826C35.4547 92.7185 35.472 92.9557 35.4947 93.1942C34.8596 90.609 35.2284 87.8104 36.2229 85.363V85.3617Z" fill="#F6E4DF"/>
<path d="M72.1562 85.4266C73.0748 87.1585 72.2747 89.105 71.408 90.6765C72.1203 90.2923 72.5516 89.5966 72.8645 88.8784L72.8951 88.8161C77.4216 96.8885 83.463 104.449 85.4094 113.68C79.1962 114.838 72.8605 115.027 66.5687 115.455C65.987 115.467 65.4038 115.457 64.8234 115.446C63.6971 113.25 62.5202 110.953 60.4274 109.507C61.5351 108.725 62.4643 110.223 63.6079 110.168C61.7774 106.901 58.6248 104.427 57.428 100.783C57.6383 100.662 57.8473 100.547 58.0577 100.426C60.5885 98.8946 61.8919 95.8867 61.8586 93.0034C62.6041 92.9066 63.3257 92.6827 64.006 92.3687C63.9967 92.4468 63.982 92.6032 63.9727 92.6827C63.8702 94.0727 63.4601 95.4097 63.2192 96.7798C66.5687 96.5095 68.7894 93.4234 70.3923 90.7812C71.5518 89.2229 71.9486 87.3109 72.1562 85.4253V85.4266Z" fill="#6A686E"/>
<path d="M35.4416 92.4827C36.1259 93.0365 36.9127 93.4725 37.8007 93.5851C38.1841 96.271 39.4382 99.6102 42.3378 100.376C42.4523 100.644 42.6094 100.946 42.4576 101.235C41.0091 104.366 38.0789 106.437 36.1179 109.19C38.0576 108.833 39.6246 107.506 41.5337 107.084C41.2847 108.121 40.1784 108.494 39.5194 109.221C37.8566 110.973 36.6558 113.099 35.6293 115.267C32.1599 115.014 28.6759 114.737 25.2598 114.063C26.3568 107.545 29.8927 101.836 32.7923 96.0021L32.9135 96.0908C33.9852 96.9031 35.2845 97.4689 36.6598 97.3536C36.4707 95.9133 35.6879 94.6359 35.4962 93.1942C35.4736 92.9557 35.4562 92.7199 35.4429 92.4827H35.4416Z" fill="#6A686E"/>
<path d="M42.6279 98.4494C43.7049 100.403 45.1187 102.74 47.6149 102.89C47.3966 102.197 47.1689 101.506 46.9772 100.807C48.2806 101.858 49.2205 103.552 50.9073 104.011C51.947 103.198 52.3957 101.851 53.4607 101.045C53.3169 101.68 53.0786 102.289 52.7817 102.869C54.9491 102.211 56.0408 100.165 57.2163 98.4282C57.4014 99.0682 57.5159 99.7241 57.6011 100.384C57.7156 100.395 57.9419 100.415 58.0564 100.425C57.846 100.546 57.637 100.661 57.4267 100.782C58.6222 104.425 61.7761 106.899 63.6066 110.167C62.463 110.223 61.5338 108.724 60.4261 109.506C62.5189 110.951 63.6958 113.248 64.8221 115.445C65.4025 115.455 65.9856 115.466 66.5674 115.454C65.6488 115.552 64.7236 115.576 63.801 115.544C62.9596 113.917 61.9478 112.319 60.506 111.154C60.3888 111.223 60.1519 111.36 60.0334 111.429C61.3434 112.656 62.2207 114.201 63.1766 115.691C54.5897 115.968 45.9228 116.323 37.3745 115.412C38.2545 113.567 39.6138 112.026 40.9477 110.498C38.7045 110.868 37.738 113.612 36.6889 115.398C36.3334 115.364 35.982 115.324 35.6318 115.266C36.6583 113.099 37.8591 110.971 39.5219 109.22C40.1809 108.492 41.2872 108.118 41.5362 107.082C39.6271 107.505 38.0601 108.831 36.1204 109.189C38.0814 106.436 41.0103 104.365 42.4601 101.233C42.6132 100.943 42.4548 100.641 42.3403 100.375C42.3416 99.7215 42.4601 99.0762 42.6318 98.4481L42.6279 98.4494Z" fill="#B9B8BC"/>
<path d="M36.6849 115.401C37.734 113.615 38.7005 110.871 40.9438 110.501C39.6111 112.03 38.2519 113.57 37.3705 115.414C37.1402 115.408 36.9112 115.402 36.6836 115.401H36.6849Z" fill="#585459"/>
<path d="M60.0321 111.431C60.1519 111.362 60.3876 111.226 60.5047 111.157C61.9465 112.322 62.9596 113.92 63.7997 115.547C63.6439 115.583 63.3297 115.659 63.174 115.695C62.2181 114.205 61.3421 112.658 60.0308 111.432L60.0321 111.431Z" fill="#6A686E"/>
</g>
<defs>
<filter id="filter0_dddd_1523_310" x="0" y="-8" width="172" height="146" filterUnits="userSpaceOnUse" color-interpolation-filters="sRGB">
<feFlood flood-opacity="0" result="BackgroundImageFix"/>
<feColorMatrix in="SourceAlpha" type="matrix" values="0 0 0 0 0 0 0 0 0 0 0 0 0 0 0 0 0 0 127 0" result="hardAlpha"/>
<feOffset dx="3"/>
<feGaussianBlur stdDeviation="3.5"/>
<feColorMatrix type="matrix" values="0 0 0 0 0 0 0 0 0 0 0 0 0 0 0 0 0 0 0.1 0"/>
<feBlend mode="normal" in2="BackgroundImageFix" result="effect1_dropShadow_1523_310"/>
<feColorMatrix in="SourceAlpha" type="matrix" values="0 0 0 0 0 0 0 0 0 0 0 0 0 0 0 0 0 0 127 0" result="hardAlpha"/>
<feOffset dx="14"/>
<feGaussianBlur stdDeviation="7"/>
<feColorMatrix type="matrix" values="0 0 0 0 0 0 0 0 0 0 0 0 0 0 0 0 0 0 0.09 0"/>
<feBlend mode="normal" in2="effect1_dropShadow_1523_310" result="effect2_dropShadow_1523_310"/>
<feColorMatrix in="SourceAlpha" type="matrix" values="0 0 0 0 0 0 0 0 0 0 0 0 0 0 0 0 0 0 127 0" result="hardAlpha"/>
<feOffset dx="31"/>
<feGaussianBlur stdDeviation="9"/>
<feColorMatrix type="matrix" values="0 0 0 0 0 0 0 0 0 0 0 0 0 0 0 0 0 0 0.05 0"/>
<feBlend mode="normal" in2="effect2_dropShadow_1523_310" result="effect3_dropShadow_1523_310"/>
<feColorMatrix in="SourceAlpha" type="matrix" values="0 0 0 0 0 0 0 0 0 0 0 0 0 0 0 0 0 0 127 0" result="hardAlpha"/>
<feOffset dx="54"/>
<feGaussianBlur stdDeviation="11"/>
<feColorMatrix type="matrix" values="0 0 0 0 0 0 0 0 0 0 0 0 0 0 0 0 0 0 0.01 0"/>
<feBlend mode="normal" in2="effect3_dropShadow_1523_310" result="effect4_dropShadow_1523_310"/>
<feBlend mode="normal" in="SourceGraphic" in2="effect4_dropShadow_1523_310" result="shape"/>
</filter>
<clipPath id="clip0_1523_310">
<rect width="92" height="102" fill="white" transform="translate(4 14)"/>
</clipPath>
</defs>
</svg>
