<svg width="197" height="120" viewBox="0 0 197 120" fill="none" xmlns="http://www.w3.org/2000/svg">
<g clip-path="url(#clip0_97_3542)">
<path d="M134.825 10.6193C134.391 11.8054 133.302 12.6289 132.04 12.7248C130.778 12.8207 129.69 13.6441 129.253 14.8303C128.762 16.1707 129.475 17.2339 130.797 17.7112C132.253 18.2366 132.891 17.6987 134.85 18.4138C135.435 18.6264 136.327 19.0746 136.812 19.4665C138.208 20.5943 140.817 21.7763 141.979 19.4707C142.547 18.3429 142.112 16.9545 141.21 16.0685C140.307 15.1826 140.006 13.8526 140.441 12.6664C140.758 11.7992 140.207 10.7527 139.555 10.2169C138.233 9.12459 135.508 8.75561 134.825 10.6193Z" fill="#FCBD7B" fill-opacity="0.5"/>
<path d="M145.493 8.16761C146.97 6.62289 147.402 4.64039 146.456 3.73983C145.509 2.83926 143.545 3.36042 142.068 4.90306C140.591 6.44778 140.159 8.43028 141.105 9.33084C142.052 10.2314 144.016 9.71025 145.493 8.16761Z" fill="#FCBD7B" fill-opacity="0.5"/>
<path d="M145.05 11.8011C143.625 12.4848 142.81 13.746 143.228 14.6153C143.648 15.4846 145.144 15.6347 146.569 14.9489C147.993 14.2651 148.808 13.0039 148.39 12.1346C147.97 11.2653 146.475 11.1152 145.05 11.8011Z" fill="#FCBD7B" fill-opacity="0.5"/>
<path d="M136.682 7.71924C137.988 7.63794 138.939 5.84514 138.807 3.71463C138.676 1.58413 137.51 -0.0794202 136.204 0.00188098C134.898 0.0831821 133.948 1.87598 134.079 4.00648C134.211 6.13699 135.377 7.80054 136.682 7.71924Z" fill="#FCBD7B" fill-opacity="0.5"/>
<path d="M131.643 10.3898C132.525 9.9958 132.717 8.50736 132.069 7.06687C131.422 5.62638 130.183 4.77793 129.301 5.17401C128.42 5.56801 128.227 7.05645 128.875 8.49694C129.523 9.93743 130.762 10.7859 131.643 10.3898Z" fill="#FCBD7B" fill-opacity="0.5"/>
<path d="M171.336 17.5382C172.402 17.7779 173.227 18.618 173.448 19.6853C173.67 20.7527 174.495 21.5928 175.56 21.8325C176.764 22.1035 177.597 21.3802 177.861 20.1982C178.151 18.8973 177.62 18.4137 178.017 16.6605C178.136 16.1373 178.421 15.3263 178.705 14.8698C179.52 13.5544 180.244 11.1967 178.141 10.4587C177.111 10.0981 175.968 10.6213 175.308 11.4885C174.647 12.3557 173.54 12.7581 172.475 12.5183C171.698 12.3432 170.86 12.929 170.471 13.5419C169.679 14.7927 169.663 17.1567 171.336 17.5361V17.5382Z" fill="#FCBD7B" fill-opacity="0.5"/>
<path d="M165.641 11.9848C167.126 13.0772 168.875 13.2273 169.544 12.3204C170.212 11.4136 169.55 9.79385 168.064 8.70149C166.579 7.60914 164.83 7.45904 164.162 8.36586C163.493 9.27268 164.156 10.8925 165.641 11.9848Z" fill="#FCBD7B" fill-opacity="0.5"/>
<path d="M173.841 9.92489C174.541 9.47044 174.503 8.17796 173.76 7.03766C173.016 5.89527 171.846 5.33867 171.148 5.79104C170.448 6.24341 170.486 7.53797 171.23 8.67828C171.973 9.82066 173.143 10.3773 173.841 9.92489Z" fill="#FCBD7B" fill-opacity="0.5"/>
<path d="M168.647 16.2729C168.434 15.1681 166.792 14.5531 164.981 14.8991C163.167 15.2452 161.87 16.423 162.083 17.5279C162.296 18.6327 163.938 19.2477 165.75 18.9017C167.563 18.5556 168.86 17.3778 168.647 16.2729Z" fill="#FCBD7B" fill-opacity="0.5"/>
<path d="M171.491 20.2814C171.056 19.5705 169.759 19.5726 168.595 20.2814C167.431 20.9923 166.84 22.143 167.275 22.8538C167.709 23.5647 169.007 23.5626 170.17 22.8538C171.334 22.143 171.925 20.9923 171.491 20.2814Z" fill="#FCBD7B" fill-opacity="0.5"/>
<path d="M146.266 41.347C147.199 42.0079 147.657 43.1544 147.44 44.276C147.222 45.3975 147.682 46.542 148.614 47.2028C149.667 47.9512 150.768 47.5864 151.501 46.5482C152.308 45.4079 151.99 44.7242 153.085 43.1899C153.411 42.7312 154.017 42.0621 154.474 41.7348C155.794 40.7904 157.451 38.8017 155.713 37.2403C154.863 36.4752 153.544 36.5211 152.556 37.0965C151.566 37.6697 150.331 37.6134 149.399 36.9505C148.718 36.4669 147.67 36.6983 147.047 37.134C145.777 38.0241 144.803 40.3068 146.268 41.347H146.266Z" fill="#FCBD7B" fill-opacity="0.5"/>
<path d="M146.642 35.5764C147.655 34.9698 147.67 33.1353 146.675 31.4801C145.679 29.8249 144.049 28.9744 143.036 29.5831C142.022 30.1897 142.008 32.0242 143.002 33.6794C143.999 35.3346 145.626 36.1831 146.642 35.5764Z" fill="#FCBD7B" fill-opacity="0.5"/>
<path d="M151.767 34.9906C152.627 34.8342 153.114 33.5688 152.857 32.1638C152.6 30.7587 151.693 29.7498 150.835 29.9061C149.974 30.0625 149.487 31.3278 149.744 32.7329C150.001 34.1359 150.908 35.1469 151.767 34.9906Z" fill="#FCBD7B" fill-opacity="0.5"/>
<path d="M144.176 39.0393C144.419 37.8844 143.08 36.6274 141.185 36.2334C139.29 35.8394 137.56 36.4544 137.318 37.6093C137.075 38.7642 138.414 40.0212 140.309 40.4152C142.204 40.8092 143.934 40.1942 144.176 39.0393Z" fill="#FCBD7B" fill-opacity="0.5"/>
<path d="M142.988 46.0188C144.402 45.7999 145.438 44.9244 145.305 44.0613C145.171 43.2004 143.917 42.6771 142.503 42.896C141.089 43.1149 140.052 43.9904 140.186 44.8514C140.32 45.7144 141.575 46.2356 142.988 46.0167V46.0188Z" fill="#FCBD7B" fill-opacity="0.5"/>
<path d="M190.753 54.9076C189.234 54.4614 188.115 53.169 187.893 51.6034C187.732 50.4589 186.502 49.6292 185.468 49.4187C183.36 48.9913 180.136 50.1879 180.483 52.6478C180.704 54.2134 179.988 55.7643 178.653 56.6128C177.315 57.4612 176.599 59.0122 176.822 60.5778C177.073 62.3456 178.485 63.1023 180.23 62.8501C182.148 62.5728 182.532 61.6055 185.119 61.2407C185.892 61.1323 187.141 61.101 187.908 61.247C190.116 61.6701 193.695 61.4408 193.613 58.2117C193.574 56.6316 192.274 55.3537 190.753 54.9076Z" fill="#FCBD7B" fill-opacity="0.5"/>
<path d="M186.654 47.5319C188.232 47.9696 190.093 46.2394 190.812 43.6648C191.53 41.0903 190.835 38.6471 189.259 38.2093C187.682 37.7716 185.821 39.5018 185.102 42.0763C184.383 44.6509 185.079 47.0941 186.654 47.5319Z" fill="#FCBD7B" fill-opacity="0.5"/>
<path d="M196.359 46.3375C195.383 45.6246 193.643 46.3375 192.473 47.9344C191.303 49.5291 191.148 51.399 192.124 52.112C193.102 52.8249 194.84 52.112 196.01 50.5152C197.178 48.9204 197.334 47.0505 196.356 46.3375H196.359Z" fill="#FCBD7B" fill-opacity="0.5"/>
<path d="M175.73 40.1151C174.336 40.9718 174.347 43.5109 175.751 45.7874C177.157 48.0617 179.426 49.2125 180.819 48.3557C182.213 47.4989 182.202 44.9598 180.798 42.6833C179.392 40.409 177.123 39.2583 175.73 40.1151Z" fill="#FCBD7B" fill-opacity="0.5"/>
<path d="M175.341 50.3481C173.774 49.139 171.904 48.9326 171.165 49.8874C170.423 50.8422 171.092 52.5974 172.659 53.8065C174.226 55.0156 176.095 55.222 176.835 54.2673C177.577 53.3125 176.908 51.5572 175.341 50.3481Z" fill="#FCBD7B" fill-opacity="0.5"/>
<path d="M153.275 61.5097C151.975 61.295 150.92 60.3423 150.578 59.0727C150.235 57.8032 149.18 56.8505 147.881 56.6358C146.412 56.394 145.459 57.3258 145.225 58.7684C144.968 60.3569 145.643 60.901 145.29 63.0398C145.186 63.6777 144.899 64.6763 144.592 65.2454C143.706 66.8881 143 69.7795 145.587 70.5195C146.853 70.8823 148.192 70.1693 148.925 69.0769C149.659 67.9846 150.964 67.4197 152.264 67.6344C153.212 67.7907 154.18 67.0236 154.604 66.2564C155.467 64.695 155.318 61.8432 153.275 61.5076V61.5097Z" fill="#FCBD7B" fill-opacity="0.5"/>
<path d="M160.533 67.7946C158.665 66.5855 156.549 66.5271 155.807 67.6674C155.065 68.8078 155.981 70.711 157.848 71.9201C159.716 73.1292 161.832 73.1876 162.574 72.0473C163.316 70.907 162.401 69.0037 160.533 67.7946Z" fill="#FCBD7B" fill-opacity="0.5"/>
<path d="M150.805 70.859C149.995 71.4552 150.131 73.0104 151.108 74.332C152.086 75.6537 153.534 76.2437 154.345 75.6474C155.155 75.0512 155.019 73.4961 154.042 72.1744C153.064 70.8528 151.616 70.2628 150.805 70.859Z" fill="#FCBD7B" fill-opacity="0.5"/>
<path d="M159.908 59.4688C157.75 60.0149 156.271 61.5263 156.607 62.8438C156.942 64.1613 158.964 64.7846 161.122 64.2364C163.28 63.6902 164.759 62.1788 164.425 60.8613C164.091 59.5459 162.068 58.9205 159.908 59.4688Z" fill="#FCBD7B" fill-opacity="0.5"/>
<path d="M152.895 58.2178C153.469 59.0413 155.032 58.9495 156.384 58.0094C157.735 57.0713 158.364 55.6412 157.79 54.8178C157.215 53.9943 155.652 54.0861 154.301 55.0262C152.949 55.9643 152.32 57.3944 152.895 58.2178Z" fill="#FCBD7B" fill-opacity="0.5"/>
<path d="M130.191 67.2673C130.647 67.2026 131.382 67.1839 131.833 67.2694C133.133 67.5174 135.243 67.3798 135.193 65.4786C135.168 64.5468 134.401 63.7963 133.507 63.5337C132.613 63.271 131.952 62.5101 131.821 61.5887C131.725 60.9154 131 60.4255 130.392 60.3025C129.151 60.0523 127.252 60.759 127.459 62.2078C127.59 63.1293 127.168 64.0444 126.383 64.5447C125.595 65.045 125.175 65.9602 125.307 66.8816C125.455 67.9239 126.289 68.368 127.314 68.2179C128.445 68.0532 128.67 67.482 130.193 67.2673H130.191Z" fill="#FCBD7B" fill-opacity="0.5"/>
<path d="M131.088 59.1912C132.017 59.4497 133.112 58.4283 133.534 56.9106C133.956 55.393 133.545 53.9546 132.617 53.6982C131.687 53.4397 130.592 54.4612 130.17 55.9788C129.748 57.4964 130.16 58.9348 131.088 59.1912Z" fill="#FCBD7B" fill-opacity="0.5"/>
<path d="M136.601 60.9444C137.288 60.0042 137.38 58.9014 136.804 58.4824C136.227 58.0634 135.203 58.4845 134.516 59.4247C133.829 60.3649 133.737 61.4676 134.313 61.8866C134.888 62.3057 135.914 61.8846 136.601 60.9444Z" fill="#FCBD7B" fill-opacity="0.5"/>
<path d="M127.651 59.6792C128.472 59.1726 128.463 57.6779 127.634 56.3375C126.805 54.9992 125.468 54.3216 124.646 54.8282C123.825 55.3348 123.834 56.8295 124.663 58.1699C125.493 59.5082 126.83 60.1858 127.651 59.6792Z" fill="#FCBD7B" fill-opacity="0.5"/>
<path d="M122.848 62.8959C123.771 63.6068 124.872 63.7277 125.309 63.1648C125.745 62.602 125.351 61.568 124.427 60.8571C123.504 60.1463 122.403 60.0254 121.966 60.5882C121.529 61.1511 121.924 62.1851 122.848 62.8959Z" fill="#FCBD7B" fill-opacity="0.5"/>
<path d="M128.516 94.0156C127.39 95.1622 125.697 95.5437 124.187 94.9954C122.676 94.4471 120.984 94.8307 119.858 95.9752C118.586 97.2698 118.851 98.8708 120.13 100.115C121.538 101.485 122.557 101.195 124.45 103.046C125.014 103.599 125.812 104.585 126.167 105.289C127.189 107.324 129.587 110.055 132.143 107.995C133.394 106.986 133.62 105.154 133.041 103.657C132.462 102.16 132.813 100.463 133.939 99.319C134.76 98.483 134.673 96.9821 134.203 96.021C133.246 94.0656 130.287 92.2145 128.518 94.0135L128.516 94.0156Z" fill="#FCBD7B" fill-opacity="0.5"/>
<path d="M139.896 91.1906C137.374 92.2037 135.834 94.2717 136.455 95.8101C137.075 97.3465 139.622 97.7718 142.144 96.7587C144.665 95.7455 146.205 93.6775 145.585 92.1391C144.964 90.6027 142.417 90.1774 139.896 91.1906Z" fill="#FCBD7B" fill-opacity="0.5"/>
<path d="M139.724 100.73C137.717 100.776 136.11 101.808 136.139 103.034C136.168 104.26 137.819 105.214 139.829 105.166C141.839 105.121 143.443 104.089 143.414 102.863C143.385 101.637 141.734 100.682 139.724 100.73Z" fill="#FCBD7B" fill-opacity="0.5"/>
<path d="M135.686 82.4518C134.134 81.8618 132.092 83.4399 131.125 85.9727C130.158 88.5077 130.634 91.0405 132.186 91.6284C133.739 92.2183 135.782 90.6403 136.747 88.1074C137.712 85.5725 137.238 83.0396 135.686 82.4518Z" fill="#FCBD7B" fill-opacity="0.5"/>
<path d="M124.983 84.8262C123.754 84.822 122.754 86.4418 122.745 88.4472C122.737 90.4526 123.727 92.0807 124.954 92.087C126.182 92.0912 127.183 90.4714 127.191 88.466C127.199 86.4605 126.209 84.8324 124.983 84.8262Z" fill="#FCBD7B" fill-opacity="0.5"/>
<path d="M90.5841 64.1154C90.5757 65.4684 89.7735 66.69 88.5366 67.2403C87.2998 67.7907 86.4976 69.0143 86.4892 70.3652C86.4788 71.8932 87.5798 72.7104 89.0861 72.7146C90.7428 72.7208 91.192 71.9495 93.4254 71.9641C94.0918 71.9683 95.1532 72.0996 95.7841 72.3185C97.5975 72.9543 100.656 73.2066 100.995 70.4653C101.16 69.1227 100.219 67.8803 98.991 67.3112C97.7605 66.7442 96.977 65.5101 96.9875 64.1571C96.9938 63.169 96.0599 62.3122 95.2096 62.0058C93.4818 61.3804 90.6008 61.9891 90.5862 64.1133L90.5841 64.1154Z" fill="#FCBD7B" fill-opacity="0.5"/>
<path d="M96.4484 60.5587C97.727 61.1278 99.5195 59.8958 100.451 57.807C101.383 55.7182 101.103 53.5648 99.8225 52.9977C98.5439 52.4286 96.7513 53.6606 95.8196 55.7495C94.8878 57.8383 95.1677 59.9917 96.4484 60.5608V60.5587Z" fill="#FCBD7B" fill-opacity="0.5"/>
<path d="M100.499 65.12C101.237 65.8455 102.798 65.4577 103.988 64.2549C105.177 63.052 105.545 61.4885 104.807 60.7631C104.07 60.0376 102.509 60.4254 101.318 61.6282C100.13 62.8311 99.7619 64.3945 100.499 65.12Z" fill="#FCBD7B" fill-opacity="0.5"/>
<path d="M91.4071 60.5236C92.6941 59.9733 93.0054 57.824 92.1028 55.7227C91.2003 53.6214 89.4245 52.3643 88.1375 52.9168C86.8506 53.4671 86.5393 55.6164 87.4418 57.7177C88.3443 59.819 90.1202 61.0761 91.4071 60.5236Z" fill="#FCBD7B" fill-opacity="0.5"/>
<path d="M87.2936 65.0286C88.0394 64.3135 87.6947 62.7459 86.5227 61.5264C85.3506 60.3069 83.7942 59.8983 83.0462 60.6133C82.2983 61.3283 82.6451 62.896 83.8171 64.1155C84.9892 65.335 86.5456 65.7436 87.2936 65.0286Z" fill="#FCBD7B" fill-opacity="0.5"/>
<path d="M101.007 94.3718C100.098 93.6318 99.7056 92.431 100.006 91.2991C100.224 90.4735 99.6262 89.5542 98.9785 89.1144C97.6644 88.22 95.1197 88.1137 94.6497 89.8919C94.3509 91.0239 93.417 91.8765 92.2617 92.0725C91.1064 92.2684 90.1725 93.121 89.8737 94.253C89.5353 95.5309 90.2832 96.4523 91.5451 96.7775C92.9324 97.1382 93.4735 96.5857 95.3433 97.0777C95.9011 97.2236 96.764 97.5613 97.2445 97.8803C98.6275 98.8017 101.137 99.6668 102.01 97.4425C102.438 96.3522 101.918 95.1098 101.009 94.3697L101.007 94.3718Z" fill="#FCBD7B" fill-opacity="0.5"/>
<path d="M104.784 82.5521C103.834 81.8016 102.066 82.4499 100.838 84.0009C99.6073 85.5519 99.3796 87.4176 100.33 88.166C101.279 88.9165 103.046 88.2682 104.277 86.7172C105.507 85.1662 105.735 83.3004 104.784 82.55V82.5521Z" fill="#FCBD7B" fill-opacity="0.5"/>
<path d="M104.183 90.1065C102.927 90.8612 102.284 92.0911 102.745 92.8583C103.207 93.6233 104.598 93.6338 105.854 92.8812C107.11 92.1266 107.753 90.8966 107.291 90.1295C106.83 89.3644 105.438 89.354 104.183 90.1065Z" fill="#FCBD7B" fill-opacity="0.5"/>
<path d="M95.0069 79.9815C93.8098 80.167 93.0869 81.9014 93.392 83.8568C93.697 85.8122 94.915 87.2444 96.1121 87.0589C97.3092 86.8733 98.0321 85.1389 97.7271 83.1835C97.422 81.2302 96.204 79.796 95.0069 79.9815Z" fill="#FCBD7B" fill-opacity="0.5"/>
<path d="M89.086 85.3434C88.3068 85.7832 88.2587 87.1716 88.9795 88.4453C89.7003 89.719 90.9162 90.3945 91.6955 89.9546C92.4747 89.5147 92.5228 88.1264 91.802 86.8526C91.0812 85.5789 89.8653 84.9035 89.086 85.3434Z" fill="#FCBD7B" fill-opacity="0.5"/>
<path d="M79.0014 114.324C78.8949 112.31 77.0459 109.663 74.8857 110.557C73.511 111.126 71.9274 110.84 70.8389 109.827C69.7504 108.814 68.1689 108.529 66.7921 109.098C65.2377 109.742 64.8805 111.203 65.5198 112.727C66.2238 114.403 67.1974 114.526 68.1376 116.788C68.4175 117.463 68.7413 118.591 68.7873 119.321C68.9189 121.424 69.9719 124.62 72.8968 123.788C74.3279 123.382 75.1865 121.899 75.2367 120.415C75.2868 118.931 76.2019 117.611 77.5766 117.042C78.5815 116.625 79.0516 115.314 78.9994 114.326L79.0014 114.324Z" fill="#FCBD7B" fill-opacity="0.5"/>
<path d="M85.6117 112.265C83.0942 112.217 81.0301 113.424 81.0008 114.958C80.9716 116.492 82.9876 117.776 85.5051 117.824C88.0226 117.872 90.0868 116.665 90.116 115.131C90.1453 113.597 88.1292 112.313 85.6117 112.265Z" fill="#FCBD7B" fill-opacity="0.5"/>
<path d="M82.0015 120.334C80.2717 119.648 78.5293 119.946 78.1093 121.001C77.6894 122.056 78.7507 123.467 80.4785 124.153C82.2084 124.839 83.9508 124.541 84.3707 123.486C84.7906 122.431 83.7293 121.02 82.0015 120.334Z" fill="#FCBD7B" fill-opacity="0.5"/>
<path d="M84.0448 108.5C85.7893 106.688 86.3032 104.358 85.1939 103.294C84.0845 102.231 81.7717 102.836 80.0272 104.647C78.2828 106.459 77.7688 108.789 78.8782 109.853C79.9876 110.916 82.3003 110.311 84.0448 108.5Z" fill="#FCBD7B" fill-opacity="0.5"/>
<path d="M72.5479 107.626C73.5925 108.075 75.0361 107.055 75.7694 105.348C76.5049 103.643 76.2521 101.896 75.2075 101.447C74.1628 100.999 72.7192 102.019 71.9838 103.726C71.2484 105.431 71.5012 107.178 72.5458 107.626H72.5479Z" fill="#FCBD7B" fill-opacity="0.5"/>
<path d="M55.3767 109.707C54.236 109.371 53.3961 108.402 53.2311 107.228C53.1099 106.369 52.1865 105.746 51.4114 105.589C49.8299 105.268 47.4106 106.167 47.6717 108.012C47.8388 109.185 47.3019 110.351 46.2991 110.987C45.2963 111.624 44.7593 112.788 44.9244 113.961C45.1124 115.287 46.1737 115.856 47.4816 115.667C48.9211 115.458 49.2094 114.733 51.1502 114.457C51.729 114.376 52.667 114.351 53.2415 114.462C54.8983 114.781 57.5829 114.606 57.5223 112.183C57.4931 110.997 56.5174 110.038 55.3767 109.704V109.707Z" fill="#FCBD7B" fill-opacity="0.5"/>
<path d="M52.3014 104.172C53.4839 104.501 54.8816 103.201 55.4206 101.27C55.9596 99.3378 55.4373 97.5054 54.2548 97.176C53.0723 96.8466 51.6746 98.1474 51.1356 100.078C50.5966 102.01 51.1189 103.843 52.3014 104.172Z" fill="#FCBD7B" fill-opacity="0.5"/>
<path d="M59.5802 103.276C58.8469 102.74 57.5412 103.276 56.6658 104.474C55.7883 105.671 55.6713 107.074 56.4046 107.61C57.1379 108.145 58.4437 107.61 59.3191 106.411C60.1965 105.214 60.3114 103.811 59.5802 103.276Z" fill="#FCBD7B" fill-opacity="0.5"/>
<path d="M44.1033 98.608C43.0587 99.2521 43.0649 101.158 44.12 102.863C45.175 104.57 46.8777 105.431 47.9223 104.789C48.9669 104.145 48.9607 102.242 47.9056 100.534C46.8506 98.8269 45.1479 97.9638 44.1033 98.608Z" fill="#FCBD7B" fill-opacity="0.5"/>
<path d="M41.7989 108.883C42.9731 109.79 44.377 109.944 44.9328 109.229C45.4885 108.512 44.9871 107.197 43.8109 106.288C42.6367 105.381 41.2328 105.227 40.677 105.942C40.1213 106.659 40.6227 107.974 41.7989 108.883Z" fill="#FCBD7B" fill-opacity="0.5"/>
<path d="M37.0272 83.7944C36.7953 82.2351 35.1595 80.3131 33.5445 81.1678C32.5166 81.7119 31.2631 81.6076 30.3417 80.8989C29.4183 80.1901 28.1669 80.0859 27.139 80.6299C25.9774 81.2449 25.8082 82.4102 26.4203 83.5485C27.093 84.8013 27.8598 84.8243 28.7602 86.5149C29.0297 87.0194 29.364 87.8741 29.4538 88.439C29.7129 90.0671 30.77 92.4749 32.9846 91.6119C34.0689 91.1887 34.6267 89.9733 34.5557 88.8143C34.4846 87.6552 35.0989 86.5608 36.1268 86.0167C36.8768 85.6185 37.1463 84.5637 37.0314 83.7986L37.0272 83.7944Z" fill="#FCBD7B" fill-opacity="0.5"/>
<path d="M38.6317 84.1383C38.7236 85.3349 40.3887 86.1833 42.3504 86.0353C44.3122 85.8852 45.829 84.7949 45.7371 83.5984C45.6451 82.4018 43.98 81.5533 42.0183 81.7013C40.0565 81.8514 38.5397 82.9417 38.6317 84.1383Z" fill="#FCBD7B" fill-opacity="0.5"/>
<path d="M41.8887 90.5276C42.1373 89.675 41.2076 88.6556 39.81 88.2512C38.4123 87.8447 37.0794 88.2074 36.8307 89.058C36.5821 89.9106 37.5118 90.93 38.9095 91.3344C40.3072 91.7409 41.6401 91.3782 41.8887 90.5276Z" fill="#FCBD7B" fill-opacity="0.5"/>
<path d="M36.6009 80.3235C37.5431 81.0698 39.2981 80.4256 40.5203 78.8871C41.7425 77.3487 41.9702 75.4975 41.0279 74.7512C40.0857 74.0049 38.3308 74.6491 37.1086 76.1875C35.8864 77.726 35.6587 79.5772 36.6009 80.3235Z" fill="#FCBD7B" fill-opacity="0.5"/>
<path d="M31.5096 79.0602C32.3557 79.3312 33.4024 78.4307 33.8474 77.0485C34.2924 75.6664 33.9665 74.326 33.1203 74.055C32.2742 73.784 31.2275 74.6845 30.7825 76.0667C30.3375 77.4488 30.6634 78.7892 31.5096 79.0602Z" fill="#FCBD7B" fill-opacity="0.5"/>
<path d="M8.63057 94.0573C9.0902 92.2291 8.16886 89.3543 5.98981 89.5607C4.60258 89.692 3.26757 89.002 2.57396 87.7971C1.88034 86.5922 0.545334 85.9022 -0.841901 86.0335C-2.40881 86.1815 -3.12958 87.3906 -2.97916 88.927C-2.81203 90.6197 -1.97634 90.9949 -1.75906 93.2755C-1.6943 93.9572 -1.71728 95.0537 -1.87815 95.7187C-2.33986 97.6366 -2.27928 100.782 0.564137 100.841C1.95764 100.87 3.13178 99.7817 3.58722 98.4684C4.04058 97.1551 5.22307 96.2274 6.61031 96.0961C7.62358 96.0002 8.40494 94.9558 8.63057 94.0594V94.0573Z" fill="#FCBD7B" fill-opacity="0.5"/>
<path d="M10.2414 95.1725C9.79224 96.5358 11.2421 98.2369 13.4776 98.9707C15.7151 99.7045 17.8921 99.1937 18.3413 97.8283C18.7905 96.4649 17.3405 94.7639 15.1051 94.0301C12.8696 93.2963 10.6906 93.807 10.2414 95.1725Z" fill="#FCBD7B" fill-opacity="0.5"/>
<path d="M9.6544 100.253C8.2985 99.1646 6.65847 98.952 5.99201 99.7796C5.32556 100.607 5.88546 102.16 7.24136 103.248C8.59726 104.337 10.2373 104.549 10.9037 103.722C11.5702 102.894 11.0103 101.341 9.6544 100.253Z" fill="#FCBD7B" fill-opacity="0.5"/>
<path d="M14.7457 90.2358C16.8036 89.0955 17.9067 87.1547 17.2089 85.8976C16.5111 84.6427 14.2756 84.5489 12.2177 85.6892C10.1599 86.8295 9.05677 88.7703 9.75456 90.0273C10.4524 91.2823 12.6878 91.3761 14.7457 90.2358Z" fill="#FCBD7B" fill-opacity="0.5"/>
<path d="M8.21698 85.1474C9.34306 83.8237 9.60004 82.1935 8.78942 81.5076C7.97881 80.8197 6.40773 81.3346 5.27955 82.6584C4.15347 83.9821 3.8965 85.6123 4.70711 86.3003C5.51772 86.9882 7.08881 86.4733 8.21698 85.1495V85.1474Z" fill="#FCBD7B" fill-opacity="0.5"/>
<path d="M23.4285 118.891C22.5239 118.942 21.6715 118.46 21.2516 117.657C20.9444 117.072 20.1234 116.859 19.5238 116.944C18.3058 117.117 16.7974 118.379 17.4575 119.638C17.8775 120.438 17.7897 121.412 17.2319 122.125C16.6741 122.838 16.5863 123.811 17.0063 124.612C17.4805 125.517 18.3893 125.654 19.2793 125.185C20.2592 124.668 20.2822 124.074 21.6046 123.382C21.9995 123.175 22.668 122.919 23.1089 122.852C24.3791 122.658 26.2657 121.85 25.6013 120.124C25.2775 119.279 24.331 118.839 23.4243 118.889L23.4285 118.891Z" fill="#FCBD7B" fill-opacity="0.5"/>
<path d="M17.9171 113.059C18.0237 114.585 18.8677 115.767 19.8037 115.702C20.7376 115.638 21.4082 114.347 21.3017 112.821C21.1951 111.295 20.3511 110.113 19.4151 110.178C18.4812 110.242 17.8106 111.533 17.9171 113.059Z" fill="#FCBD7B" fill-opacity="0.5"/>
<path d="M23.6311 117.124C24.2955 117.322 25.0957 116.602 25.4174 115.518C25.7412 114.434 25.4654 113.396 24.8011 113.2C24.1367 113.002 23.3365 113.721 23.0148 114.805C22.691 115.889 22.9667 116.928 23.6311 117.124Z" fill="#FCBD7B" fill-opacity="0.5"/>
<path d="M15.713 114.21C14.518 113.253 13.0743 113.067 12.4872 113.795C11.9002 114.524 12.3932 115.89 13.5883 116.847C14.7833 117.804 16.2269 117.989 16.814 117.262C17.4011 116.532 16.908 115.166 15.713 114.21Z" fill="#FCBD7B" fill-opacity="0.5"/>
<path d="M14.2464 119.385C13.1705 119.033 12.1217 119.279 11.9065 119.936C11.6913 120.592 12.3891 121.41 13.4651 121.762C14.541 122.114 15.5898 121.868 15.805 121.212C16.0202 120.555 15.3224 119.738 14.2464 119.385Z" fill="#FCBD7B" fill-opacity="0.5"/>
</g>
<defs>
<clipPath id="clip0_97_3542">
<rect width="200" height="139" fill="white" transform="translate(-3)"/>
</clipPath>
</defs>
</svg>
