<svg width="96" height="49" viewBox="0 0 96 49" fill="none" xmlns="http://www.w3.org/2000/svg">
<g clip-path="url(#clip0_97_3523)">
<path d="M34.4375 16.7982C34.2637 20.5022 34.8637 24.4276 33.9805 28.0447C33.6524 29.3821 32.0178 32.3907 32.0178 33.344V46.6626H46.542C42.6137 40.0342 34.1768 31.5215 40.3622 23.665C47.0467 15.172 59.7596 22.0724 57.4492 32.416C56.3556 37.3172 51.8133 42.4203 49.2309 46.6626H63.7551C63.7691 43.6568 63.7411 40.6454 63.7439 37.6396C63.7439 36.8573 64.0495 36.1536 64.0271 35.2395C63.957 32.0851 61.9634 29.7074 61.6298 26.8586C61.2765 23.822 61.8653 20.3283 61.5625 17.2384C61.3269 16.515 58.1557 16.8739 57.0762 16.6132C54.8023 16.0664 52.0797 13.3943 51.0619 11.3278C50.5487 10.2876 49.2029 6.46024 50.0272 5.62467C50.9749 4.66294 56.636 5.64711 58.3857 5.10876C60.4661 3.47408 61.4531 1.30386 64.229 0.459887C70.6724 -1.49724 76.2549 3.01424 75.8484 9.66229C75.624 13.3214 75.3016 13.6494 76.8045 17.3226C79.3925 23.6482 83.6768 26.2558 87.8266 31.0505C88.4743 31.7991 89.1445 33.2347 89.6996 33.7506C90.2155 34.2301 90.9081 32.7552 91.0483 32.3963C91.668 30.8149 91.6259 28.9475 90.967 27.3689C90.4371 26.0988 88.0678 24.6407 90.2352 23.7968C93.0867 24.8819 94.012 28.8858 93.541 31.6645C93.2382 33.445 90.981 35.775 90.9277 36.5826C90.8773 37.3032 91.3848 38.4275 91.4493 39.2659C91.6455 41.8483 90.7455 44.1082 89.0379 45.9953C88.7379 46.3261 88.208 46.2504 88.2248 46.6626H95.3523L95.9832 47.6524C96.0617 47.9328 95.4392 48.5468 95.3523 48.5468H0.412174C-0.137391 48.5468 -0.137391 46.6626 0.412174 46.6626H7.53969C5.78165 44.9017 4.32642 42.7063 4.34044 40.0986C4.34605 39.0163 5.04422 37.3789 4.85075 36.3134C4.73579 35.6769 3.29739 34.2189 2.91886 33.3917C1.40195 30.0831 2.23751 25.5772 5.52649 23.7912C7.62661 24.6632 5.64986 25.8464 5.06665 27.1054C3.99836 29.4158 3.93107 32.4132 6.18821 34.017C10.3296 27.1586 17.0113 23.9762 19.6497 15.8645C20.8751 12.0989 19.7535 10.2203 20.2498 6.77708C21.0517 1.22255 27.7362 -1.41592 32.5533 0.787943C34.6058 1.72725 35.8058 3.86102 37.5863 5.17044C39.0976 5.55458 44.711 4.74425 45.6279 5.46766C47.2345 6.73502 44.5147 11.9783 43.4521 13.299C42.6866 14.2495 39.7705 16.7926 38.6069 16.7926H34.4375V16.7982ZM43.853 7.37992H37.2639C35.7862 7.37992 34.087 4.39096 32.8085 3.49651C29.2026 0.975805 23.8752 2.25719 22.4733 6.5752C21.5704 9.34826 22.9527 16.9637 26.9034 13.9663C29.3765 12.0877 26.5501 7.20047 27.31 4.68817L27.9633 4.276C28.2521 4.21151 28.5886 4.35451 28.7849 4.55639C29.5587 5.3583 30.2934 11.297 30.0747 12.5615C29.4494 16.1617 24.851 18.1385 22.0723 15.4524C20.662 20.4545 17.5104 24.5258 14.0083 28.2381C12.9148 29.3962 11.4848 30.3186 10.366 31.5888C7.29295 35.0825 4.18342 41.638 9.07062 44.9999C9.65103 45.4008 12.497 46.6598 13.0606 46.6598H21.3994L21.8003 45.9925C20.233 43.3736 17.4094 45.3672 15.4747 43.9708C14.5186 42.0558 18.4805 42.4427 18.8338 40.0482C19.4198 36.0638 15.3738 37.5078 14.0027 36.8405C13.0578 36.3807 13.3017 35.1554 14.4653 34.8834C18.8759 33.8516 23.0957 38.3013 19.9245 42.2212C22.1172 43.1717 23.878 43.8531 23.6874 46.6598H26.3735C25.5407 44.7728 24.9043 43.1325 24.5706 41.066C24.2369 38.9995 23.679 33.6777 23.9734 31.7458C24.2509 29.9177 26.1071 30.4672 26.1071 30.9215V35.6292C26.5754 35.747 26.6455 35.4358 26.9147 35.2283C29.8503 32.9795 32.029 28.6699 32.3038 25.0137C32.4411 23.1855 31.914 16.4786 32.4243 15.4467C33.0524 14.1766 36.8096 14.8187 38.0602 14.6252C40.651 14.2242 43.6343 9.92866 43.8614 7.37711L43.853 7.37992ZM58.5118 7.37992C56.5996 7.69676 53.9274 7.14719 51.9227 7.37992C52.4806 9.88661 54.0256 12.3008 56.1397 13.7896C58.6324 15.5477 60.8194 13.8625 63.3514 15.186C64.2346 16.4141 63.5476 24.1921 63.7607 26.3455C64.114 29.9093 67.0217 33.6497 69.677 35.8984V31.1907C69.677 30.1981 71.4855 30.2598 71.7743 31.2439C72.0154 32.0655 71.8949 35.5059 71.8388 36.5826C71.6621 39.9444 71.0845 43.7157 69.4078 46.657L72.0715 46.6317C72.2089 44.0185 73.7146 43.1717 75.8568 42.2212C73.5688 39.1874 75.5343 35.2086 79.2243 34.8217C80.3682 34.7011 81.8739 34.6563 82.5469 35.7975C82.1179 38.021 79.5832 36.2433 77.9176 37.5471C75.5511 39.3977 77.9989 42.4315 80.3991 42.6586L80.3178 44.254C79.7234 45.126 73.7903 43.2727 74.2501 46.657H82.7235C84.5965 46.657 87.7902 44.6354 88.651 42.8997C92.0605 36.0218 83.5086 30.2485 79.7598 25.9446C77.1746 22.9752 74.895 19.3161 73.9781 15.4495C71.8892 16.7646 70.2742 17.3366 68.0815 15.8365C64.0411 13.0746 66.2422 8.4426 66.9572 4.57601C67.1338 4.32086 68.1264 4.33768 68.4208 4.41058C69.9714 4.7835 66.2702 12.1045 69.2732 14.1065C72.2594 16.1001 73.5688 11.7007 73.723 9.40714C74.1744 2.61609 66.6628 -0.0335997 61.9999 4.40778C60.9148 5.43962 60.2867 7.08551 58.5146 7.37992H58.5118ZM46.4747 22.2434C43.1156 22.7789 40.2416 26.7577 40.351 30.0999C40.4547 33.2459 43.6287 38.3013 45.4064 40.937C45.7765 41.4838 47.6495 44.3157 48.0168 44.2372C51.132 39.8183 56.9472 33.0216 55.0069 27.296C53.7648 23.6341 50.274 21.635 46.4719 22.2406L46.4747 22.2434ZM29.8672 35.632L26.6988 38.1079L26.6202 38.4472C26.5558 40.323 26.8502 42.2352 27.5848 43.968C27.9269 44.7728 28.9138 46.8617 29.8672 46.6626V35.632ZM66.1777 46.6626C66.9656 46.5364 67.8797 44.9382 68.1937 44.24C68.662 43.2026 69.4891 40.051 69.4302 38.9911C69.3573 37.7097 67.0301 36.5545 66.1777 35.632V46.6626Z" fill="#F25822"/>
<circle cx="47.9467" cy="29.4409" r="2.66371" stroke="#F25822" stroke-width="1.40195"/>
</g>
<defs>
<clipPath id="clip0_97_3523">
<rect width="96" height="48.544" fill="white"/>
</clipPath>
</defs>
</svg>
