<svg width="41" height="41" viewBox="0 0 41 41" fill="none" xmlns="http://www.w3.org/2000/svg">
<g clip-path="url(#clip0_21_1666)">
<path d="M16.4005 8.2002C7.35781 8.2002 0.000920657 14.8207 0.000920657 22.9599C0.000920657 25.351 0.622497 27.6371 1.85244 29.7559C2.4986 30.8678 2.65435 32.0863 2.28703 33.1818L0.0420014 39.9187C-0.0580178 40.2204 0.0239835 40.55 0.251889 40.7682C0.407644 40.919 0.612647 40.9994 0.820933 40.9994C0.916068 40.9994 1.01449 40.9814 1.10794 40.947L10.3458 37.4834C11.0805 37.2062 11.8218 37.139 12.4859 37.2865C13.7717 37.5736 15.0885 37.7195 16.4005 37.7195C25.4417 37.7195 32.8002 31.0973 32.8002 22.9598C32.8002 14.8208 25.4417 8.2002 16.4005 8.2002Z" fill="#F37C20"/>
<path d="M38.7119 24.982C38.3446 23.8866 38.5003 22.6697 39.1465 21.5562C40.3764 19.4374 40.9996 17.1512 40.9996 14.7602C40.9996 6.62105 33.6411 0.000488281 24.6 0.000488281C19.5686 0.000488281 14.8865 2.04227 11.7509 5.6042C11.5181 5.86823 11.4804 6.25197 11.6542 6.55699C11.8297 6.86041 12.1839 7.02273 12.525 6.95058C13.8239 6.69144 15.126 6.56027 16.4002 6.56027C26.3465 6.56027 34.4398 13.9155 34.4398 22.9599C34.4398 25.1312 33.974 27.2468 33.0573 29.2459C32.9605 29.4525 32.9556 29.6903 33.0441 29.9002C33.131 30.1101 33.3 30.2758 33.5132 30.3561L39.891 32.7472C39.9845 32.7816 40.0829 32.7996 40.1796 32.7996C40.3862 32.7996 40.5912 32.7193 40.747 32.5684C40.975 32.3502 41.057 32.0206 40.9569 31.7189L38.7119 24.982Z" fill="#F37C20"/>
</g>
<defs>
<clipPath id="clip0_21_1666">
<rect width="41" height="41" fill="white"/>
</clipPath>
</defs>
</svg>
