<svg width="40" height="42" viewBox="0 0 40 42" fill="none" xmlns="http://www.w3.org/2000/svg">
<path fill-rule="evenodd" clip-rule="evenodd" d="M9.9998 4.14209C15.5235 -1.38362 24.4816 -1.37892 30.0041 4.14554C35.2088 9.35214 35.5586 17.6848 30.8019 23.3061L21.3355 34.4935C21.0028 34.8866 20.514 35.1132 19.9992 35.1129C19.4843 35.1125 18.9957 34.8854 18.6636 34.492L9.19449 23.2738C4.45262 17.6561 4.80264 9.34115 9.9998 4.14209ZM13.0028 14.1129C13.0028 10.2469 16.1356 7.11291 20.0002 7.11291C23.8648 7.11291 26.9978 10.2469 26.9978 14.1129C26.9978 17.979 23.8648 21.1129 20.0002 21.1129C16.1356 21.1129 13.0028 17.979 13.0028 14.1129Z" fill="#F37C20"/>
<path d="M7.22766 30.5473C7.66792 29.687 7.32769 28.6325 6.46768 28.1922C5.60768 27.7517 4.5536 28.0921 4.11332 28.9524L1.33199 34.3872C-0.486109 37.9397 2.19161 41.9999 6.09332 41.9999H33.9067C37.8083 41.9999 40.486 37.9397 38.6679 34.3872L35.8867 28.9524C35.4464 28.0921 34.3923 27.7517 33.5324 28.1922C32.6723 28.6325 32.3321 29.687 32.7724 30.5473L35.5536 35.9821C36.1175 37.0838 35.331 38.4999 33.9067 38.4999H6.09332C4.66889 38.4999 3.88248 37.0838 4.44631 35.9821L7.22766 30.5473Z" fill="#F37C20"/>
</svg>
