<svg width="42" height="42" viewBox="0 0 42 42" fill="none" xmlns="http://www.w3.org/2000/svg">
<g clip-path="url(#clip0_21_1662)">
<path fill-rule="evenodd" clip-rule="evenodd" d="M10.9998 4.14209C16.5235 -1.38362 25.4816 -1.37892 31.0041 4.14554C36.2088 9.35214 36.5586 17.6848 31.8019 23.3061L22.3355 34.4935C22.0028 34.8866 21.514 35.1132 20.9992 35.1129C20.4843 35.1125 19.9957 34.8854 19.6636 34.492L10.1945 23.2738C5.45262 17.6561 5.80264 9.34115 10.9998 4.14209ZM14.0028 14.1129C14.0028 10.2469 17.1356 7.11291 21.0002 7.11291C24.8648 7.11291 27.9978 10.2469 27.9978 14.1129C27.9978 17.979 24.8648 21.1129 21.0002 21.1129C17.1356 21.1129 14.0028 17.979 14.0028 14.1129Z" fill="#F5AD78"/>
<path d="M8.22766 30.5473C8.66792 29.687 8.32769 28.6325 7.46768 28.1922C6.60768 27.7517 5.5536 28.0921 5.11332 28.9524L2.33199 34.3872C0.513891 37.9397 3.19161 41.9999 7.09332 41.9999H34.9067C38.8083 41.9999 41.486 37.9397 39.6679 34.3872L36.8867 28.9524C36.4464 28.0921 35.3923 27.7517 34.5324 28.1922C33.6723 28.6325 33.3321 29.687 33.7724 30.5473L36.5536 35.9821C37.1175 37.0838 36.331 38.4999 34.9067 38.4999H7.09332C5.66889 38.4999 4.88248 37.0838 5.44631 35.9821L8.22766 30.5473Z" fill="#F5AD78"/>
</g>
<defs>
<clipPath id="clip0_21_1662">
<rect width="42" height="42" fill="white"/>
</clipPath>
</defs>
</svg>
