<svg width="42" height="42" viewBox="0 0 42 42" fill="none" xmlns="http://www.w3.org/2000/svg">
<path d="M22.5187 32.1887C20.8268 30.281 20.7847 27.5456 22.4248 26.091C23.2335 25.3737 24.3549 25.0679 25.5075 25.2466C25.3576 22.6937 26.9208 20.4641 29.1315 20.1827C30.5515 20.0019 31.9143 20.6675 32.839 21.8312C33.7633 20.6674 35.1259 20.0018 36.5471 20.1827C37.7647 20.3376 38.7856 21.0842 39.4327 22.1496C41.1099 20.1347 42 17.4638 42 14.6344C42 7.90446 36.5443 2.44873 29.8143 2.44873C26.3463 2.44873 23.2191 3.89995 21 6.22529C18.7809 3.89995 15.6537 2.44873 12.1857 2.44873C5.45573 2.44873 0 7.90446 0 14.6344C0 17.6712 1.02498 20.5256 2.94845 22.5823C6.64707 26.537 21 39.5428 21 39.5428C21 39.5428 22.4882 38.1943 24.6295 36.2338C24.6761 35.3746 24.9222 34.5515 25.3371 33.8228C24.3173 33.6313 23.3075 33.078 22.5187 32.1887Z" fill="#F5AD78"/>
<path d="M30.0715 27.5863C31.033 27.4639 31.7007 26.2243 31.5295 24.8794C31.3583 23.5346 30.4017 22.5017 29.4399 22.6241C28.4784 22.7465 27.8108 23.9862 27.9818 25.3309C28.1531 26.6758 29.1103 27.7085 30.0715 27.5863Z" fill="#F5AD78"/>
<path d="M26.6237 28.5453C26.2146 28.0839 25.6768 27.7688 25.1482 27.6807C24.8935 27.6383 24.4129 27.6145 24.055 27.932C23.4407 28.4769 23.5791 29.6785 24.357 30.5557C25.1353 31.4331 26.3118 31.7139 26.9259 31.169C27.5403 30.6242 27.402 29.4227 26.6237 28.5453Z" fill="#F5AD78"/>
<path d="M35.602 27.5862C36.5635 27.7085 37.5204 26.6758 37.6916 25.3309C37.7895 24.5622 37.6008 23.6103 37.0532 23.0347C36.37 22.3167 35.3601 22.6231 34.7921 23.3168C34.4303 23.7586 34.2157 24.3157 34.144 24.8793C33.9727 26.2242 34.6405 27.4638 35.602 27.5862Z" fill="#F5AD78"/>
<path d="M40.814 27.6538C40.2334 27.6538 39.555 27.9723 39.0465 28.5457C38.2685 29.423 38.1301 30.6245 38.7445 31.1693C39.1023 31.4868 39.5829 31.463 39.8377 31.4206C40.3662 31.3326 40.904 31.0174 41.3132 30.5561C42.0913 29.6788 42.2297 28.4772 41.6154 27.9324C41.4025 27.7435 41.122 27.6538 40.814 27.6538Z" fill="#F5AD78"/>
<path d="M38.5941 36.5334C38.5941 35.522 38.0917 34.5833 37.2502 34.0223L36.0384 33.2145L36.0199 32.5791C35.9692 30.8468 34.571 29.4897 32.8366 29.4897C31.1022 29.4897 29.704 30.8467 29.6534 32.5791L29.6349 33.2145L28.423 34.0224C27.5815 34.5834 27.0791 35.5221 27.0791 36.5334C27.0791 38.1975 28.4329 39.5514 30.097 39.5514H35.5761C37.2402 39.5513 38.5941 38.1974 38.5941 36.5334Z" fill="#F5AD78"/>
</svg>
