<svg width="41" height="41" viewBox="0 0 41 41" fill="none" xmlns="http://www.w3.org/2000/svg">
<g clip-path="url(#clip0_251_224)">
<path d="M16.4005 8.2002C7.35781 8.2002 0.000920657 14.8207 0.000920657 22.9599C0.000920657 25.351 0.622497 27.6371 1.85244 29.7559C2.4986 30.8678 2.65435 32.0863 2.28703 33.1818L0.0420014 39.9187C-0.0580178 40.2204 0.0239835 40.55 0.251889 40.7682C0.407644 40.919 0.612647 40.9994 0.820933 40.9994C0.916068 40.9994 1.01449 40.9814 1.10794 40.947L10.3458 37.4834C11.0805 37.2062 11.8218 37.139 12.4859 37.2865C13.7717 37.5736 15.0885 37.7195 16.4005 37.7195C25.4417 37.7195 32.8002 31.0973 32.8002 22.9598C32.8002 14.8208 25.4417 8.2002 16.4005 8.2002Z" fill="#F5AD78"/>
<path d="M38.7124 24.982C38.3451 23.8866 38.5008 22.6697 39.147 21.5562C40.3769 19.4374 41.0001 17.1512 41.0001 14.7602C41.0001 6.62105 33.6416 0.000488281 24.6005 0.000488281C19.5691 0.000488281 14.887 2.04227 11.7514 5.6042C11.5186 5.86822 11.4808 6.25196 11.6547 6.55699C11.8302 6.86041 12.1844 7.02273 12.5255 6.95058C13.8244 6.69144 15.1265 6.56027 16.4007 6.56027C26.347 6.56027 34.4402 13.9155 34.4402 22.9599C34.4402 25.1312 33.9745 27.2468 33.0578 29.2459C32.961 29.4525 32.9561 29.6903 33.0446 29.9002C33.1315 30.1101 33.3005 30.2758 33.5136 30.3561L39.8915 32.7472C39.9849 32.7816 40.0834 32.7996 40.1801 32.7996C40.3867 32.7996 40.5917 32.7193 40.7475 32.5684C40.9755 32.3502 41.0575 32.0206 40.9574 31.7189L38.7124 24.982Z" fill="#F5AD78"/>
</g>
<defs>
<clipPath id="clip0_251_224">
<rect width="41" height="41" fill="white"/>
</clipPath>
</defs>
</svg>
