<svg width="42" height="38" viewBox="0 0 42 38" fill="none" xmlns="http://www.w3.org/2000/svg">
<path d="M22.5187 30.1887C20.8268 28.281 20.7847 25.5456 22.4248 24.091C23.2335 23.3737 24.3549 23.0679 25.5075 23.2466C25.3576 20.6937 26.9208 18.4641 29.1315 18.1827C30.5515 18.0019 31.9143 18.6675 32.839 19.8312C33.7633 18.6674 35.1259 18.0018 36.5471 18.1827C37.7647 18.3376 38.7856 19.0842 39.4327 20.1496C41.1099 18.1347 42 15.4638 42 12.6344C42 5.90446 36.5443 0.44873 29.8143 0.44873C26.3463 0.44873 23.2191 1.89995 21 4.22529C18.7809 1.89995 15.6537 0.44873 12.1857 0.44873C5.45573 0.44873 0 5.90446 0 12.6344C0 15.6712 1.02498 18.5256 2.94845 20.5823C6.64707 24.537 21 37.5428 21 37.5428C21 37.5428 22.4882 36.1943 24.6295 34.2338C24.6761 33.3746 24.9222 32.5515 25.3371 31.8228C24.3173 31.6313 23.3075 31.078 22.5187 30.1887Z" fill="#F37C20"/>
<path d="M30.0715 25.5863C31.033 25.4639 31.7007 24.2243 31.5295 22.8794C31.3583 21.5346 30.4017 20.5017 29.4399 20.6241C28.4784 20.7465 27.8108 21.9862 27.9818 23.3309C28.1531 24.6758 29.1103 25.7085 30.0715 25.5863Z" fill="#F37C20"/>
<path d="M26.6242 26.5453C26.215 26.0839 25.6772 25.7688 25.1487 25.6807C24.894 25.6383 24.4134 25.6145 24.0555 25.932C23.4412 26.4769 23.5795 27.6785 24.3575 28.5557C25.1358 29.4331 26.3123 29.7139 26.9264 29.169C27.5408 28.6242 27.4024 27.4227 26.6242 26.5453Z" fill="#F37C20"/>
<path d="M35.6025 25.5862C36.564 25.7085 37.5209 24.6758 37.6921 23.3309C37.79 22.5622 37.6013 21.6103 37.0537 21.0347C36.3705 20.3167 35.3606 20.6231 34.7926 21.3168C34.4308 21.7586 34.2162 22.3157 34.1445 22.8793C33.9732 24.2242 34.641 25.4638 35.6025 25.5862Z" fill="#F37C20"/>
<path d="M40.8145 25.6538C40.2339 25.6538 39.5555 25.9723 39.047 26.5457C38.269 27.423 38.1306 28.6245 38.7449 29.1693C39.1028 29.4868 39.5834 29.463 39.8382 29.4206C40.3667 29.3326 40.9045 29.0174 41.3137 28.5561C42.0918 27.6788 42.2302 26.4772 41.6159 25.9324C41.403 25.7435 41.1225 25.6538 40.8145 25.6538Z" fill="#F37C20"/>
<path d="M38.5941 34.5334C38.5941 33.522 38.0917 32.5833 37.2502 32.0223L36.0384 31.2145L36.0199 30.5791C35.9692 28.8468 34.571 27.4897 32.8366 27.4897C31.1022 27.4897 29.704 28.8467 29.6534 30.5791L29.6349 31.2145L28.423 32.0224C27.5815 32.5834 27.0791 33.5221 27.0791 34.5334C27.0791 36.1975 28.4329 37.5514 30.097 37.5514H35.5761C37.2402 37.5513 38.5941 36.1974 38.5941 34.5334Z" fill="#F37C20"/>
</svg>
