<svg width="42" height="42" viewBox="0 0 42 42" fill="none" xmlns="http://www.w3.org/2000/svg">
<g clip-path="url(#clip0_21_1646)">
<path d="M34.5409 20.4927C33.5199 17.4826 33.5081 14.9633 33.5081 14.8575C33.5081 11.8116 32.6672 8.92844 31.0086 6.28831C30.5015 5.48109 29.9906 4.82046 29.5611 4.3189L28.6075 3.33612L27.0984 2.91093C23.1086 1.78689 18.8909 1.78681 14.9011 2.91093L13.3937 3.33563L12.3913 4.37436C11.9717 4.86886 11.4796 5.51021 10.9909 6.28831C9.33236 8.92844 8.49133 11.8116 8.49133 14.8575C8.49133 14.9633 8.4796 17.4826 7.4586 20.4927C6.88977 22.1695 6.11741 23.6695 5.16211 24.9708C5.69411 26.0278 6.36597 26.9323 6.92734 27.5926C7.07795 27.3652 7.24014 27.1442 7.41438 26.9313C10.3935 23.2904 15.1335 21.3037 20.5669 19.2616L20.9998 19.0989L21.4327 19.2616C26.8661 21.3037 31.6061 23.2904 34.5851 26.9313C34.7588 27.1436 34.9205 27.3638 35.0707 27.5906C35.6333 26.9283 36.3068 26.0229 36.8373 24.9707C35.8821 23.6695 35.1097 22.1695 34.5409 20.4927ZM14.7731 17.9547H12.0057V15.4937H14.7731V17.9547ZM29.9938 17.9547H27.2264V15.4937H29.9938V17.9547Z" fill="#F5AD78"/>
<path d="M24.0232 39.2477C23.3318 38.8412 22.6892 38.3277 22.121 37.7094L20.9996 36.4893L19.8783 37.7094C19.3098 38.3279 18.6664 38.8405 17.9746 39.247C19.8784 40.1595 22.1193 40.1597 24.0232 39.2477Z" fill="#F5AD78"/>
<path d="M33.9075 33.0163C34.1601 31.401 33.7129 29.7511 32.6806 28.4896C30.3677 25.6628 26.9103 23.9674 21 21.7285C15.0897 23.9675 11.6323 25.6628 9.3193 28.4896C8.28714 29.7511 7.83997 31.401 8.09247 33.0163C8.34678 34.6427 9.28485 36.0888 10.6662 36.9837C13.0402 38.5219 16.1526 38.1266 18.0666 36.0439L19.1208 34.8968L18.2997 34.3494C16.6207 33.2301 15.6184 31.3571 15.6184 29.3392V28.76L16.0648 28.3908C18.9244 26.0266 23.0755 26.0266 25.9351 28.3908L26.3815 28.76V29.3392C26.3815 31.3571 25.3791 33.2301 23.7 34.3495L22.879 34.8968L23.9333 36.0439C25.8474 38.1265 28.9597 38.5217 31.3336 36.9837C32.7152 36.0888 33.6533 34.6427 33.9075 33.0163Z" fill="#F5AD78"/>
<path d="M23.8728 29.925C22.1299 28.7958 19.8708 28.7958 18.1279 29.925C18.2877 30.8881 18.8374 31.7501 19.6653 32.302L21.0004 33.1921L22.3354 32.302C23.1634 31.7501 23.7131 30.8881 23.8728 29.925Z" fill="#F5AD78"/>
<path d="M41.1898 25.9212C41.1587 23.3124 41.2261 18.901 41.8682 15.0582C42.2491 12.7784 41.8002 10.4406 40.6041 8.47543C39.4066 6.50791 37.539 5.04752 35.3453 4.36343C34.3676 4.05851 33.3196 3.83078 32.21 3.68164C33.902 5.9408 35.9697 9.74714 35.9697 14.8576C35.9698 14.8779 35.9884 17.136 36.8963 19.7731C37.8091 22.4243 39.2491 24.4841 41.1898 25.9212Z" fill="#F5AD78"/>
<path d="M5.10395 19.7732C6.01183 17.1361 6.03046 14.8779 6.03054 14.8555C6.03054 9.74632 8.09815 5.94064 9.7902 3.68164C8.68076 3.83086 7.6326 4.05859 6.65499 4.36343C4.46137 5.04752 2.59377 6.50783 1.39622 8.47543C0.20015 10.4406 -0.248745 12.7784 0.132143 15.0582C0.774231 18.901 0.841581 23.3124 0.810572 25.9212C2.75127 24.4841 4.19123 22.4243 5.10395 19.7732Z" fill="#F5AD78"/>
</g>
<defs>
<clipPath id="clip0_21_1646">
<rect width="42" height="42" fill="white"/>
</clipPath>
</defs>
</svg>
