<svg width="176" height="176" viewBox="0 0 176 176" fill="none" xmlns="http://www.w3.org/2000/svg">
<path d="M18.3331 135.667V128.334H157.666V135.667H18.3331ZM22.2565 91.8649L16.6685 88.6235L23.7451 76.2082H9.5918V69.7256H23.7451L16.6685 57.6842L22.2565 54.4355L29.3331 66.4842L36.4171 54.4355L41.9978 57.6842L34.9211 69.7256H49.0745V76.2082H34.9211L41.9978 88.6235L36.4098 91.8649L29.3331 79.4569L22.2565 91.8649ZM80.9231 91.8649L75.3351 88.6235L82.4191 76.2082H68.2585V69.7256H82.4118L75.3351 57.6842L80.9231 54.4355L87.9998 66.4842L95.0838 54.4355L100.664 57.6842L93.5878 69.7256H107.741V76.2082H93.5878L100.664 88.6235L95.0765 91.8649L87.9998 79.4569L80.9231 91.8649ZM139.59 91.8649L134.002 88.6235L141.086 76.2082H126.925V69.7256H141.078L134.002 57.6842L139.59 54.4355L146.666 66.4842L153.75 54.4355L159.331 57.6842L152.254 69.7256H166.408V76.2082H152.254L159.331 88.6235L153.743 91.8649L146.666 79.4569L139.59 91.8649Z" fill="#F25822"/>
</svg>
