<svg width="292" height="79" viewBox="0 0 292 79" fill="none" xmlns="http://www.w3.org/2000/svg">
<g clip-path="url(#clip0_1567_273)" filter="url(#filter0_dddd_1567_273)">
<path d="M142.512 55.2448V55.2478C140.536 59.7211 135.474 62.7057 133.009 59.8697C131.092 57.6639 130.214 51.6923 130.214 51.6923C130.214 51.6923 130.369 55.5614 129.413 58.5508C128.988 59.886 127.964 62.0828 127.254 62.8495C128.021 64.5061 128.569 66.1076 128.899 67.6538C133.336 71.6287 130.376 80.7414 130.376 80.7414H82.2068C80.7281 72.6238 84.1801 68.316 85.4945 67.156C86.6692 66.1211 88.1208 66.144 88.417 66.1597C88.4518 66.1627 88.4716 66.1646 88.4716 66.1646C88.4716 66.1646 88.6071 63.7165 89.2001 60.5857C89.2247 60.4582 89.2487 60.3295 89.2745 60.1996C87.496 56.4543 88.4392 50.1401 88.4698 49.9329L88.4668 49.942C88.3769 50.2284 86.8706 54.84 83.0289 56.9788C78.425 59.5374 73.9854 47.9416 76.6142 44.2978C80.3948 39.0609 86.1583 34.2517 91.7407 26.9043C97.8538 18.8598 101.127 21.3037 102.35 22.9513C102.739 23.4769 102.922 23.9203 102.922 23.9203C113.114 21.1043 121.808 26.5588 121.808 26.5588C121.808 26.5588 124.623 20.6089 130.214 28.8903C132.358 32.0682 134.897 35.2769 137.19 38.5117C139.747 42.1204 141.996 45.7641 143.037 49.4327C143.601 51.4228 143.303 53.454 142.512 55.2442V55.2448Z" fill="#FFCF89"/>
<path d="M130.213 51.6923C130.213 51.6923 130.411 55.4134 129.455 58.4023C129.455 58.4023 113.385 52.4149 114.392 40.5919C115.269 30.3065 126.534 31.3155 126.534 31.3155L126.617 31.4665C130.09 38.0453 130.213 51.6929 130.213 51.6929L130.213 51.6923Z" fill="#AF531F"/>
<path d="M124.557 28.8323C124.557 28.8323 127.486 27.1116 130.595 38.5117C133.704 49.9118 132.632 58.8964 136.892 60.7427C135.765 61.1137 133.795 61.1034 133.009 59.8697C132.222 58.6366 131.463 57.1062 131.156 55.7771C130.849 54.4479 130.247 52.9266 130.153 51.2053C130.058 49.484 129.8 43.6465 129.077 39.8215C128.354 35.9965 127.395 31.4193 124.557 28.8323Z" fill="#FFA259"/>
<path d="M114.275 49.1542C113.27 46.9888 108.871 46.8003 108.871 46.8003C108.871 46.8003 104.491 46.352 103.189 48.35C102.219 49.8375 104.97 52.23 104.97 52.23C104.97 52.23 104.838 50.8356 105.729 50.6694C106.621 50.5033 107.307 52.053 106.985 52.8378C106.812 53.4021 107.242 53.7217 108.334 54.3204C109.5 53.8854 109.971 53.6311 109.88 53.0475C109.673 52.2246 110.572 50.7897 111.431 51.0827C112.29 51.3757 111.96 52.7369 111.96 52.7369C111.96 52.7369 115.023 50.7661 114.275 49.1542Z" fill="#432233"/>
<path d="M102.444 41.5703C102.554 40.0291 101.66 38.7083 100.447 38.6203C99.2345 38.5322 98.162 39.7103 98.0518 41.2516C97.9416 42.7928 98.8355 44.1136 100.048 44.2016C101.261 44.2897 102.334 43.1116 102.444 41.5703Z" fill="#000208"/>
<path d="M101.688 40.6419C101.654 41.121 101.321 41.4872 100.944 41.46C100.566 41.4328 100.289 41.022 100.323 40.5429C100.357 40.0638 100.691 39.6976 101.068 39.7248C101.445 39.752 101.723 40.1628 101.688 40.6419Z" fill="white"/>
<path d="M120.373 42.8704C120.483 41.3291 119.589 40.0083 118.376 39.9203C117.163 39.8323 116.091 41.0103 115.981 42.5516C115.87 44.0929 116.764 45.4136 117.977 45.5017C119.19 45.5897 120.263 44.4116 120.373 42.8704Z" fill="#000208"/>
<path d="M119.616 41.9415C119.582 42.4206 119.248 42.7867 118.871 42.7595C118.494 42.7324 118.216 42.3215 118.25 41.8424C118.285 41.3633 118.618 40.9972 118.995 41.0244C119.372 41.0516 119.65 41.4624 119.616 41.9415Z" fill="white"/>
<path d="M118.545 54.3984C117.554 54.3223 116.98 57.1861 113.013 57.4332C111.249 57.5431 110.064 57.2489 109.312 56.9166C108.931 56.748 108.646 56.4055 108.574 55.991C108.574 55.9892 108.574 55.9868 108.573 55.985C108.466 55.3077 108.432 54.6141 108.595 53.9441C108.674 53.5707 108.102 53.5314 108.129 53.9103C108.18 54.5936 108.081 55.2817 107.86 55.93C107.722 56.3318 107.398 56.6369 106.992 56.7499C106.201 56.9698 104.989 57.0894 103.26 56.7263C99.369 55.9101 99.2083 52.9925 98.2165 52.9255C96.01 52.775 95.2514 57.7365 99.5741 62.3378C102.73 65.6964 107.496 66.042 107.496 66.042C107.496 66.042 112.263 66.3876 115.863 63.5184C120.795 59.5876 120.749 54.5682 118.544 54.399L118.545 54.3984Z" fill="#432233"/>
<path d="M114.126 66.039C113.768 67.4261 112.968 68.5807 111.705 69.1619C109.78 70.0452 107.273 69.7232 107.273 69.7232C107.273 69.7232 104.752 69.6404 102.96 68.4569C100.402 66.7676 100.361 62.742 102.159 59.8257C102.784 58.8125 103.601 58.3769 104.399 58.2421C105.658 58.0307 106.873 58.5611 107.226 58.7345C107.29 58.7666 107.348 58.8113 107.398 58.8681C107.506 58.9925 107.562 59.1623 107.551 59.3357C107.456 61.0141 107.456 62.7009 107.548 64.3811C107.551 64.4669 107.67 64.476 107.685 64.392C107.991 62.7438 108.207 61.0745 108.326 59.3991C108.338 59.2245 108.415 59.0662 108.538 58.9605C108.595 58.9128 108.657 58.8777 108.725 58.856C109.331 58.6687 112.338 57.9026 113.599 60.7495C114.359 62.4635 114.548 64.4119 114.125 66.0402L114.126 66.039Z" fill="#F7737C"/>
<path d="M102.35 22.9513C102.35 22.9513 99.1316 22.9682 96.0664 26.6887C94.6603 28.3937 93.2896 30.8756 92.272 34.4904C92.2672 34.5103 92.2612 34.5321 92.2552 34.5514L92.2522 34.5574C92.1155 34.8825 91.9812 35.2105 91.8535 35.5416C91.8457 35.5597 91.8397 35.5767 91.8337 35.5954C91.3588 36.8188 90.9469 38.0743 90.5889 39.3068C90.5859 39.3159 90.5829 39.3249 90.5799 39.3358C90.5025 39.601 90.4276 39.8663 90.3544 40.1297C90.3394 40.1877 90.3239 40.2475 90.3071 40.3073C89.0701 44.8851 88.579 48.9584 88.489 49.7771V49.785C88.477 49.8786 88.4722 49.9275 88.4722 49.9275L88.4674 49.9414C88.4674 49.9414 88.4656 49.9463 88.4656 49.9493C88.3955 50.1656 87.7995 51.9654 86.4677 53.8142C86.4659 53.816 86.4647 53.819 86.4617 53.822C85.7434 54.8183 84.811 55.8273 83.6333 56.6109C83.4385 56.7396 83.2376 56.8622 83.0295 56.9788C81.7895 57.667 80.5615 57.3298 79.4816 56.3976C76.5465 53.8679 74.6936 46.9605 76.6154 44.2973C80.396 39.0603 86.1595 34.2511 91.742 26.9038C97.8539 18.8599 101.127 21.3037 102.35 22.9513Z" fill="#AF531F"/>
<g style="mix-blend-mode:multiply">
<path d="M96.0657 26.6895C94.6596 28.3944 93.2889 30.8764 92.2713 34.4911C92.125 34.8439 91.9853 35.195 91.8528 35.543C91.845 35.5611 91.839 35.578 91.833 35.5967C91.3353 36.909 90.9306 38.1862 90.5882 39.3082C90.5852 39.3172 90.5822 39.3263 90.5792 39.3372C90.5048 39.5843 90.4287 39.8507 90.3537 40.131C90.3388 40.189 90.3232 40.2489 90.3064 40.3087C89.5089 43.3591 88.739 47.9937 88.4883 49.7784V49.7863C88.4793 49.8443 88.4715 49.8981 88.4655 49.9506C88.4428 50.1083 88.4278 50.237 88.417 50.3307C87.83 51.8272 87.162 52.9322 86.4682 53.8155C86.4664 53.8173 86.4652 53.8203 86.4622 53.8234C85.5724 54.9532 84.6382 55.7211 83.7765 56.4896C83.7292 56.5325 83.6806 56.5723 83.6332 56.6122C82.1348 57.8369 80.5038 57.5275 79.3472 56.353C79.3915 56.3712 79.4353 56.3869 79.4809 56.3989C81.6173 57.0104 85.6491 51.7003 87.0654 43.2105C88.5111 34.5413 92.1454 28.8766 95.4901 27C95.6909 26.8882 95.8828 26.7837 96.0651 26.6901L96.0657 26.6895Z" fill="#B3A259"/>
</g>
<path d="M97.7836 67.2329C97.2512 67.3966 93.4868 68.0068 88.685 66.4094C88.5891 66.3284 88.5009 66.2451 88.417 66.1593C88.4518 66.1623 88.4716 66.1641 88.4716 66.1641C88.4716 66.1641 88.6071 63.716 89.2001 60.5852H89.5119C89.5119 60.5852 90.644 62.6823 92.3937 63.9855C94.1415 65.2887 95.9782 66.5133 97.3657 66.993C97.3657 66.993 97.5282 67.0649 97.7824 67.2323L97.7836 67.2329Z" fill="#FFA259"/>
<path d="M118.908 67.7881L118.195 68.0763C118.195 68.0763 118.818 68.1856 120.12 68.2128C121.422 68.24 126.821 68.1427 128.69 67.7748L128.878 67.393C128.878 67.393 128.105 63.9776 127.251 62.9668C126.492 63.5408 125.651 64.4561 124.269 65.2892C122.886 66.1224 120.395 67.4449 118.909 67.7881H118.908Z" fill="#FFA259"/>
<path d="M99.8026 25.8309C98.4942 26.3196 97.0503 27.235 95.9062 28.5104C94.3436 30.1567 93.1738 32.3263 92.2714 34.4904C93.2895 30.8757 94.6602 28.3938 96.0657 26.6888C98.9475 25.2049 99.8026 25.8303 99.8026 25.8303V25.8309Z" fill="#FFA259"/>
<path d="M101.492 22.0264C101.492 22.0264 99.4309 20.3873 96.2859 23.3381C93.1403 26.2889 90.2933 30.7815 86.7681 34.4911C83.243 38.2007 79.2453 41.1672 76.9602 44.4653C77.7115 42.8184 81.1281 38.9112 81.1281 38.9112C81.1281 38.9112 86.7172 32.8725 88.1665 31.2884C89.6157 29.7042 92.7068 25.469 93.7639 24.4582C94.8216 23.4474 98.2106 19.759 101.492 22.0264Z" fill="#E2A97E"/>
<path d="M142.513 55.2448C142.513 55.2448 139.937 49.9281 137.19 46.7562C132.725 41.5972 137.19 38.5117 137.19 38.5117C139.747 42.1204 141.996 45.7642 143.036 49.4333C143.601 51.4222 143.304 53.4535 142.513 55.2448Z" fill="#AF531F"/>
<path d="M143.591 51.043C143.546 50.3766 143.423 49.6951 143.21 49.0667C143.024 48.4982 142.797 47.749 142.549 47.2035C141.324 44.1651 139.522 41.378 137.662 38.7161C135.415 35.5212 132.995 32.4726 130.78 29.2644C129.663 27.6477 128.49 25.9681 126.798 24.9084C125.168 23.8613 123.39 24.0776 122.168 25.5989C122.001 25.8043 121.853 26.0134 121.719 26.2448C116.602 23.3278 110.454 22.1352 104.662 23.262C104.143 23.3828 103.565 23.4759 103.07 23.6946C102.129 21.7087 100.204 20.5184 98.0265 21.1867C94.7993 22.2264 92.6191 25.2938 90.596 27.8313C89.7703 28.8639 88.9237 29.8789 88.053 30.8733C84.4907 35.0336 80.4541 38.7674 77.0554 43.083C76.9001 43.2842 76.6117 43.6878 76.454 43.8896C75.8874 44.5934 75.6128 45.5142 75.5198 46.3697C75.2092 49.573 76.4702 53.488 78.5413 55.938C80.0146 57.6133 81.8002 58.3184 83.7346 56.907C85.5874 55.6812 86.9533 53.8572 87.9253 51.8828C87.9751 51.7795 88.023 51.6755 88.071 51.5716C87.83 54.4674 87.9193 57.6357 89.0388 60.2264C88.6736 62.1126 88.4032 64.0121 88.2617 65.9291C87.9451 65.9267 87.6447 65.9581 87.3293 66.0222C86.3747 66.2016 85.5047 66.7297 84.8643 67.4619C83.7178 68.7162 82.9065 70.2562 82.3824 71.8699C81.435 74.7397 81.471 77.8361 81.9819 80.7845L82.0137 80.973H82.2062H130.377H130.545L130.594 80.8147C131.773 76.7196 132.504 70.7546 129.106 67.5405C128.928 66.7236 128.777 65.9007 128.489 65.1069C128.272 64.4737 127.811 63.5348 127.519 62.8883C128.128 62.1525 128.609 61.3187 128.988 60.4433C129.83 58.4259 130.244 56.2703 130.386 54.094C130.734 55.7344 131.24 57.3408 131.987 58.8398C133.603 62.1694 136.813 61.6848 139.361 59.7279C141.968 57.6888 143.778 54.4227 143.59 51.0442L143.591 51.043ZM103.12 23.8033C103.121 23.8063 103.121 23.8076 103.12 23.8033V23.8033ZM141.544 56.4672C140.232 58.5021 138.14 60.4813 135.645 60.6837C134.212 60.7641 133.266 59.9744 132.611 58.7727C132.038 57.7209 131.654 56.5826 131.326 55.4286C130.984 54.1919 130.697 52.9298 130.441 51.6713C130.46 49.6673 130.357 47.6741 130.198 45.6785C129.762 40.882 128.803 33.6682 125.773 29.8722C125.451 29.4801 125.088 29.1194 124.68 28.8185C124.642 28.7908 124.588 28.7962 124.556 28.8324C124.522 28.8711 124.527 28.9309 124.566 28.9648C128.9 32.8254 129.667 45.9214 129.985 51.6949C129.985 51.6979 129.986 51.7009 129.986 51.7039H129.985C130.015 52.6658 129.974 53.6482 129.887 54.6154C129.599 57.4653 128.957 60.4626 127.082 62.6998C127.082 62.6998 127.08 62.7016 127.08 62.7023C126.005 63.8985 124.67 64.8597 123.306 65.7032C122.442 66.2167 121.526 66.7013 120.604 67.1024C120.067 67.3453 119.455 67.5797 118.908 67.7894C118.867 67.8033 118.845 67.848 118.86 67.8891C118.874 67.9295 118.918 67.9507 118.958 67.9362C119.343 67.799 119.731 67.6697 120.115 67.5253C120.854 67.239 121.661 66.8994 122.368 66.5418C124.109 65.6681 125.785 64.6211 127.183 63.2454C127.477 63.8792 127.856 64.7009 128.06 65.2633C128.344 66.0482 128.494 66.8849 128.673 67.7036L128.689 67.7755L128.745 67.8274C129.569 68.5766 130.169 69.5457 130.531 70.6024C131.576 73.7513 131.084 77.3673 130.204 80.512C129.863 80.512 82.7842 80.512 82.3998 80.512C82.1738 79.1248 82.0467 77.7219 82.0886 76.3209C82.1726 73.4172 83.0138 70.4616 84.8433 68.1833C84.9602 68.0467 85.0705 67.9024 85.197 67.7755L85.3811 67.5797L85.5748 67.3967C86.3399 66.6862 87.4192 66.3388 88.4494 66.3931L88.685 66.41C88.748 65.3407 88.8637 64.2646 89.0076 63.2013C89.1149 62.4104 89.2421 61.6226 89.3866 60.8384C89.7685 61.4407 90.2086 61.9893 90.6871 62.5198C92.0555 64.0272 93.7134 65.2603 95.5123 66.1926C96.0867 66.4989 96.7505 66.7864 97.3441 67.0402C97.3735 67.0541 97.3921 67.007 97.3651 66.9949C96.573 66.6209 95.7377 66.2119 94.9972 65.7388C93.4868 64.8096 92.0962 63.6442 90.9534 62.2836C90.3963 61.6214 89.8615 60.8716 89.4807 60.1019C88.4398 57.7481 88.3558 55.0794 88.4596 52.5365C88.5033 51.6773 88.5759 50.811 88.697 49.9663H88.6958C88.6964 49.9621 88.6976 49.9579 88.6982 49.9536C89.6432 43.1132 91.7731 32.5209 96.9298 27.7371C97.7674 26.9728 98.7424 26.3541 99.8199 25.9874C99.8595 25.9735 99.8829 25.9312 99.8715 25.8895C99.8601 25.8466 99.8157 25.8213 99.7731 25.8327C98.6495 26.1427 97.6187 26.7487 96.7241 27.496C91.3137 32.1524 88.9992 42.9531 88.2473 49.8781C87.9325 50.7856 87.4864 51.6773 87.0001 52.5111C86.0845 54.0372 84.887 55.4262 83.3976 56.3832L82.9887 56.6334C80.884 57.948 78.9089 55.6365 77.9735 53.9019C76.6393 51.5438 75.235 46.6796 77.0536 44.3367C77.7336 43.4153 78.4675 42.5097 79.2087 41.6378C83.1218 37.135 87.4642 32.9952 91.1183 28.2512C93.2001 25.5089 97.8718 19.1603 101.607 22.4893C102.052 22.9025 102.42 23.4118 102.687 23.961L102.699 23.987C102.697 23.9809 102.703 24.0015 102.732 24.0462C102.756 24.0806 102.789 24.1096 102.82 24.129C103.443 24.0383 104.126 23.8686 104.752 23.7568C109.723 22.8663 114.908 23.6789 119.525 25.6829C120.342 26.0357 121.146 26.429 121.901 26.881C122.428 25.7385 123.513 24.6594 124.845 24.735C127.476 24.941 129.521 28.3721 130.915 30.3616C134.432 35.401 138.498 40.1244 141.259 45.6447C141.379 45.916 141.753 46.7074 141.861 46.963C142.031 47.3944 142.225 47.8813 142.385 48.3115L142.679 49.2286C143.498 51.658 142.883 54.346 141.542 56.4678L141.544 56.4672Z" fill="#141D22"/>
<path d="M97.3729 81.7772C96.6744 82.6369 94.126 82.8949 93.551 81.8189C92.6456 82.481 90.0534 83.3087 88.4722 81.7361C87.5896 82.3415 84.8619 83.0024 83.9229 80.7428H83.7724L81.6804 80.741H80.8085C80.8085 80.741 80.5621 74.6117 84.7552 71.4646C88.9471 68.3175 94.6507 69.5191 97.2494 74.3634C98.8942 77.4277 98.1093 80.8697 97.3729 81.7772Z" fill="#FFCF89"/>
<path d="M83.7813 80.3833C83.8239 80.4842 83.8131 80.6117 83.7723 80.7422L81.6803 80.7404C81.5418 79.2409 81.784 77.371 82.5503 76.0955C83.4084 74.6667 84.3971 74.3145 84.3971 74.3145L84.5171 74.6196C84.5171 74.6196 84.3132 74.9059 83.6482 76.8332C83.1673 78.4506 83.4899 79.6982 83.7807 80.384L83.7813 80.3833Z" fill="#FFA259"/>
<path d="M97.4545 74.2521C96.1689 71.856 94.1008 70.2338 91.6298 69.684C89.1965 69.1421 86.7057 69.7082 84.6161 71.2766C80.3744 74.4612 80.5668 80.4956 80.577 80.7506L80.586 80.9754H83.8473C84.1256 81.5433 84.5255 81.9632 85.0442 82.2326C86.1865 82.8253 87.6513 82.49 88.4446 82.029C89.1432 82.6507 89.9988 82.8797 90.8329 82.8797C91.8654 82.8797 92.865 82.5293 93.4904 82.1402C93.7734 82.4731 94.2537 82.6852 94.8725 82.745C95.7773 82.8326 97.0251 82.5752 97.5534 81.9245C98.3977 80.8847 99.1076 77.3328 97.4545 74.2515V74.2521ZM97.193 81.6285C96.8315 82.0737 95.8109 82.3662 94.9169 82.2792C94.5937 82.2477 94.0312 82.1378 93.7866 81.7578C93.9473 80.3132 94.0684 78.8076 93.6133 77.4071C93.5839 77.3268 93.4634 77.3709 93.4886 77.45C93.828 78.8318 93.6019 80.2969 93.3447 81.6768C92.3961 82.3227 90.1175 82.9437 88.7072 81.6351C88.7972 80.2262 88.9081 78.7852 88.5525 77.4053C88.5208 77.3032 88.3667 77.3485 88.3918 77.4506C88.6455 78.8106 88.4398 80.2298 88.2611 81.5928C87.5997 82.0012 86.2578 82.336 85.257 81.8164C84.3504 81.3457 83.8725 80.286 83.8365 78.6656C83.7802 76.107 84.7702 74.5971 84.7827 74.5784C84.8547 74.4715 84.8271 74.3259 84.7216 74.2534C84.6155 74.1803 84.4709 74.208 84.3984 74.315C84.354 74.3808 83.3113 75.9547 83.3718 78.6765C83.3874 79.3797 83.4822 79.9912 83.6561 80.5077H81.0405C81.0501 79.3858 81.2984 74.353 84.8943 71.653C86.8742 70.1667 89.2307 69.6302 91.5296 70.142C93.8663 70.6622 95.8253 72.201 97.0455 74.4757C98.6867 77.5346 97.8052 80.8751 97.1936 81.6291L97.193 81.6285Z" fill="#141D22"/>
<path d="M133.237 80.7413C133.237 80.7413 133.483 74.612 129.291 71.4648C125.099 68.3171 119.395 69.5194 116.796 74.3637C115.152 77.428 115.937 80.87 116.673 81.7768C117.371 82.6372 119.92 82.8952 120.495 81.8185C121.4 82.4813 123.993 83.3096 125.573 81.7357C126.457 82.3411 129.184 83.0027 130.123 80.7419H133.237L133.237 80.7413Z" fill="#FFCF89"/>
<path d="M130.239 80.3831C130.196 80.484 130.207 80.6115 130.248 80.742L132.34 80.7402C132.478 79.2406 132.236 77.3707 131.47 76.0953C130.611 74.6664 129.623 74.3142 129.623 74.3142L129.503 74.6193C129.503 74.6193 129.707 74.9057 130.372 76.833C130.853 78.4504 130.53 79.698 130.239 80.3837L130.239 80.3831Z" fill="#FFA259"/>
<path d="M129.43 71.2764C127.34 69.7074 124.849 69.1419 122.416 69.6839C119.945 70.2336 117.877 71.8564 116.591 74.252C114.938 77.3333 115.648 80.8852 116.492 81.925C117.021 82.575 118.267 82.8336 119.173 82.7454C119.793 82.6856 120.273 82.4735 120.555 82.1406C121.181 82.5291 122.18 82.8801 123.213 82.8801C124.047 82.8801 124.903 82.6512 125.601 82.0295C126.394 82.4899 127.859 82.8252 129.001 82.2331C129.52 81.9636 129.92 81.5437 130.198 80.9764H133.46L133.469 80.7511C133.479 80.4955 133.671 74.4616 129.43 71.277V71.2764ZM130.39 80.507C130.563 79.9904 130.659 79.379 130.674 78.6757C130.734 75.9539 129.692 74.3801 129.648 74.3142C129.575 74.2073 129.431 74.1795 129.325 74.2526C129.219 74.3257 129.191 74.4713 129.264 74.5782C129.274 74.5933 130.267 76.0923 130.21 78.6655C130.174 80.2858 129.696 81.3456 128.789 81.8162C127.788 82.3358 126.444 82.0005 125.783 81.5915C125.635 80.5722 125.526 79.5343 125.542 78.5041C125.551 78.1489 125.571 77.79 125.654 77.4505C125.679 77.3459 125.525 77.3055 125.493 77.4052C125.138 78.7851 125.249 80.226 125.338 81.635C123.928 82.9442 121.648 82.3225 120.7 81.676C120.495 80.6435 120.357 79.5765 120.399 78.5223C120.418 78.1592 120.458 77.7961 120.558 77.4481C120.568 77.4148 120.55 77.3798 120.518 77.3677C120.484 77.355 120.446 77.3725 120.434 77.407C119.978 78.8068 120.1 80.313 120.26 81.7576C120.016 82.1376 119.453 82.2482 119.129 82.279C118.236 82.366 117.215 82.0736 116.853 81.6283C116.242 80.8749 115.36 77.5338 117.001 74.4749C118.222 72.2008 120.181 70.6614 122.517 70.1412C124.817 69.6295 127.173 70.166 129.153 71.6522C132.748 74.3517 132.997 79.385 133.006 80.507H130.391H130.39Z" fill="#141D22"/>
<path d="M114.126 66.039C113.768 67.4262 112.968 68.5808 111.705 69.162C109.78 70.0453 107.273 69.7232 107.273 69.7232C107.273 69.7232 104.752 69.6405 102.96 68.4569C100.402 66.7676 100.361 62.7421 102.159 59.8257C102.784 58.8125 103.601 58.3769 104.399 58.2422C103.614 59.2004 102.258 61.3126 102.612 64.1921C103.262 69.484 109.66 69.2925 112.012 68.0539C112.994 67.5374 113.666 66.8045 114.125 66.0396L114.126 66.039Z" fill="#FF8E9A"/>
<path d="M113.288 49.0333C113.205 49.3958 112.688 49.5861 112.134 49.4575C111.579 49.3288 111.196 48.9306 111.279 48.5681C111.362 48.2056 111.879 48.0153 112.433 48.144C112.988 48.2727 113.371 48.6708 113.288 49.0333Z" fill="#613B52"/>
<path d="M100.27 27.2844C100.27 27.2844 94.8534 28.3206 91.9446 39.743C89.0359 51.1655 89.3165 54.5156 89.9797 56.455C89.9923 51.6917 91.2143 45.7177 93.5678 38.8688C95.9213 32.0205 97.4599 28.6686 100.27 27.2844H100.27Z" fill="#FFF7DA"/>
<path d="M201.338 69.8333C201.338 69.8333 202.262 70.5305 203.337 70.8405C200.955 72.3116 200.648 73.0094 199.495 74.3259C198.515 75.4436 198.173 78.444 196.82 80.6504H149.519C149.041 79.9284 148.403 78.9098 147.806 77.7854C146.655 75.6164 143.58 75.6164 143.58 75.6164C143.58 75.6164 144.809 74.5325 145.655 74.2232C143.887 72.5968 141.82 72.4028 141.82 72.4028C141.82 72.4028 144.665 67.7948 146.432 66.711C145.338 66.6814 144.18 66.7677 143.579 66.8264C145.116 64.8139 147.344 62.2963 147.344 62.2963C147.344 62.2963 146.057 61.4831 144.424 60.9031C145.625 59.044 148.651 56.4884 148.651 56.4884C148.651 56.4884 146.101 54.5816 144.731 50.6793C143.047 45.8804 142.256 38.8116 140.856 36.4094C140.804 36.3181 140.751 36.2348 140.696 36.1586C138.039 32.4092 142.761 31.6419 147.551 32.6387H147.553C147.956 32.7221 148.36 32.8182 148.761 32.9269C153.911 34.3202 158.759 37.1525 162.026 40.4048L162.028 40.4029C162.121 40.351 165.133 38.6738 168.151 38.1802C169.338 37.9863 170.524 37.973 171.537 38.3137C172.27 38.0527 173.056 37.9017 173.863 37.8394C176.295 37.6503 178.913 38.2793 180.817 39.223C180.817 39.223 183.431 34.2857 186.812 31.1114C187.359 30.5979 188.112 30.0668 188.988 29.5635C188.99 29.5617 188.992 29.5605 188.992 29.5605C193.535 26.9487 201.356 25.0794 200.647 30.3381C200.119 34.2652 200.101 38.6484 199.993 42.0801V42.0868C199.927 44.1337 199.83 45.8411 199.57 46.9099C198.88 49.7748 198.341 51.6339 196.881 53.1818C199.725 55.1961 200.693 56.2793 200.693 56.2793C200.693 56.2793 198.802 56.1247 197.649 56.9004C200.033 58.7583 201.416 58.9909 201.416 58.9909L199.187 60.5387C199.187 60.5387 202.645 64.3341 204.412 67.0438C203.183 67.4317 201.338 69.8321 201.338 69.8321V69.8333Z" fill="#3E3E3E"/>
<path d="M199.993 42.0874C199.927 44.1343 199.83 45.8417 199.571 46.9105C198.88 49.7755 198.341 51.6345 196.881 53.1824C196.881 53.1824 194.187 51.5221 192.43 50.0848C192.43 50.0848 193.956 50.6805 195.425 50.7718C196.573 50.843 197.646 50.1833 198.145 49.1399C198.898 47.5666 199.597 45.0098 199.993 42.0874Z" fill="#282828"/>
<path d="M148.762 32.9275C153.911 34.3207 158.76 37.153 162.027 40.4053C162.027 40.4053 160.287 41.3097 159.658 41.8505C159.658 41.8505 157.405 36.7857 147.554 32.6387C147.957 32.722 148.361 32.8181 148.763 32.9269L148.762 32.9275Z" fill="#282828"/>
<path d="M188.989 29.564C188.853 29.7011 184.49 34.1412 183.509 40.8058C182.826 40.4052 180.818 39.2234 180.818 39.2234C180.818 39.2234 183.431 34.2862 186.812 31.1119C187.359 30.5983 188.113 30.0672 188.989 29.564Z" fill="#282828"/>
<path d="M154.128 52.3075C151.824 54.6311 148.652 56.4889 148.652 56.4889C148.652 56.4889 146.101 54.5822 144.731 50.6798C143.048 45.8809 142.257 38.8121 140.857 36.4099C142.802 37.6466 144.271 43.8261 144.875 47.427C145.48 51.0284 147.037 53.5835 148.821 55.1132C149.961 54.6667 154.001 52.3787 154.127 52.3075H154.128Z" fill="#282828"/>
<path d="M187.299 73.8154C187.281 74.7362 186.956 77.8779 186.383 80.6498H162.954L162.755 79.9C159.449 70.5306 162.524 67.7423 165.907 64.4617C169.289 61.1798 174.053 56.2033 170.287 48.9242C167.581 43.6921 167.809 39.8997 168.151 38.1808C169.338 37.9869 170.524 37.9736 171.537 38.3144C172.27 38.0534 173.056 37.9023 173.862 37.8401C174.512 39.5559 175.313 43.1622 173.712 48.5883C171.391 56.457 177.009 60.43 180.949 63.0014C184.332 65.2096 187.423 67.1031 187.299 73.8148V73.8154Z" fill="#FAFAFA"/>
<path d="M171.243 77.9913C171.243 77.9913 172.699 80.0309 175.726 79.3337C178.752 78.6365 178.857 76.7008 178.857 76.7008L176.494 75.1323H174.32L171.242 77.9913H171.243Z" fill="#D3D9FA"/>
<path d="M173.458 64.5587C169.69 64.8191 167.635 67.2787 167.97 68.5263C168.304 69.7739 169.217 70.7219 170.089 70.3068C170.962 69.8917 171.291 70.5642 172.148 71.6638C173.004 72.7634 174.561 72.2486 174.561 72.2486C174.561 72.2486 176.199 72.2981 176.712 70.9992C177.225 69.7002 177.352 68.9613 178.305 69.1111C179.258 69.2604 179.868 68.0913 179.838 66.7996C179.808 65.5073 177.146 63.734 173.46 64.5587H173.458Z" fill="#141D22"/>
<path d="M197.881 38.3669C197.496 43.7881 198.342 48.9375 195.499 50.0848C194.816 50.0848 194.271 49.3514 193.659 48.3919C192.825 47.0851 191.868 45.3596 190.271 44.5101C192.424 42.8837 194.113 43.0384 194.113 43.0384C194.113 43.0384 191.807 40.7147 188.964 41.1026C192.96 36.9979 194.42 36.61 194.42 36.61C194.42 36.61 191.783 36.4209 189.604 37.2293C188.999 37.454 188.432 37.7555 187.964 38.1597C189.271 36.1454 190.577 35.1388 190.577 35.1388C190.577 35.1388 189.039 35.1388 186.735 36.8432C186.735 36.8432 191.039 27.8598 198.341 29.9502C198.974 30.8154 198.263 32.9451 197.88 38.3669H197.881Z" fill="#979797"/>
<path d="M156.031 42.9362C155.755 42.7797 155.476 42.6378 155.2 42.5109C151.637 40.8633 148.228 41.4584 148.228 41.4584C148.228 41.4584 152.188 43.0915 153.725 46.1105C151.092 45.4326 148.959 46.4199 148.959 46.4199C148.959 46.4199 151.572 47.505 153.186 49.0534C152.108 50.0606 151.577 51.0853 151.156 51.9347C150.68 52.8911 150.346 53.6216 149.519 53.8445C147.192 52.867 146.273 49.6486 145.194 43.3229C143.964 36.1218 141.285 35.3478 142.888 34.8053C149.519 32.5584 157.484 39.9595 157.484 39.9595C154.82 38.913 153.101 39.2768 153.101 39.2768C153.101 39.2768 154.955 40.3032 156.032 42.9368L156.031 42.9362Z" fill="#979797"/>
<path d="M166.487 79.1737C166.487 79.1737 168.386 81.3113 172.555 78.6753C175.361 77.8621 178.166 77.7267 178.166 77.7267C178.166 77.7267 181.939 79.416 184.069 76.7226C182.009 77.4367 180.732 77.3672 179.622 77.0537C178.512 76.7395 177.031 75.8804 177.031 75.8804L172.786 76.6241C172.786 76.6241 170.717 80.4866 166.486 79.1749L166.487 79.1737Z" fill="#D3D9FA"/>
<path d="M185.025 73.0499C184.789 76.5191 182.884 77.6531 179.685 76.5076C179.196 76.3269 178.713 76.0967 178.305 75.8134C177.827 75.4775 177.315 75.1585 176.77 74.9386C176.29 74.7428 175.78 74.5833 175.257 74.544C175.076 73.7556 174.723 72.2252 174.723 72.2252C174.679 72.0295 174.385 72.0736 174.398 72.2723L174.535 74.6467C173.489 75.0509 172.64 75.8508 171.944 76.7148C170.85 77.963 169.012 79.2112 167.29 78.8608C165.964 78.5334 165.236 77.2054 164.748 76.0013C164.838 76.5553 164.987 77.1075 165.225 77.6344C166.436 80.3344 169.289 80.0088 171.377 78.563C171.973 78.1672 172.527 77.6507 172.996 77.0767C173.02 77.0507 173.047 77.0248 173.07 76.9988C173.409 77.1927 173.774 77.3033 174.151 77.3752C175.273 77.5758 176.583 77.2694 177.304 76.3372C177.464 76.4315 177.638 76.5378 177.773 76.6242C178.296 76.9553 178.838 77.18 179.397 77.3637C182.865 78.4246 185.466 76.919 185.025 73.0505V73.0499ZM173.237 76.8254C173.756 76.3022 174.357 75.8231 175.045 75.5886C175.076 75.5886 175.108 75.5886 175.14 75.5917C175.804 75.6376 176.437 75.8847 177.031 76.188C175.831 76.742 174.555 76.8967 173.237 76.8254H173.237Z" fill="#141D22"/>
<path d="M177.031 76.188C175.831 76.742 174.555 76.8967 173.237 76.8254C173.756 76.3021 174.356 75.823 175.044 75.5886C175.075 75.5886 175.107 75.5886 175.14 75.5916C175.803 75.6376 176.437 75.8847 177.03 76.188H177.031Z" fill="#141D22"/>
<path d="M162.585 63.4335C164.197 63.4261 165.497 62.1037 165.49 60.4797C165.483 58.8557 164.17 57.5452 162.559 57.5526C160.947 57.5599 159.646 58.8824 159.654 60.5064C159.661 62.1304 160.973 63.4409 162.585 63.4335Z" fill="black"/>
<path d="M164.212 58.9551C164.302 58.5573 164.055 58.161 163.66 58.07C163.266 57.9789 162.872 58.2276 162.782 58.6254C162.692 59.0232 162.938 59.4195 163.333 59.5105C163.728 59.6016 164.121 59.3529 164.212 58.9551Z" fill="#FAFAFA"/>
<path d="M184.575 60.1327C185.714 58.9844 185.714 57.1226 184.575 55.9742C183.435 54.8259 181.587 54.8259 180.448 55.9742C179.308 57.1226 179.308 58.9844 180.448 60.1327C181.587 61.281 183.435 61.281 184.575 60.1327Z" fill="black"/>
<path d="M183.951 56.804C184.068 56.4134 183.849 56.0009 183.461 55.8825C183.074 55.7642 182.664 55.9848 182.547 56.3754C182.429 56.7659 182.648 57.1785 183.036 57.2968C183.424 57.4152 183.833 57.1945 183.951 56.804Z" fill="#FAFAFA"/>
<path d="M148.959 46.4197C148.959 46.4197 151.572 47.5048 153.187 49.0533C152.108 50.0605 151.577 51.0851 151.156 51.9346C149.933 51.1625 147.699 49.3711 147.293 46.4203C146.73 42.3174 144.732 38.7534 146.423 38.7534C147.901 38.7534 152.191 39.2488 155.2 42.5114C151.637 40.8638 148.228 41.4589 148.228 41.4589C148.228 41.4589 152.188 43.092 153.725 46.111C151.092 45.4331 148.959 46.4203 148.959 46.4203V46.4197Z" fill="#666666"/>
<path d="M195.536 39.8596C195.68 44.145 196.027 46.9121 193.659 48.3917C192.825 47.0849 191.868 45.3594 190.271 44.5099C192.424 42.8835 194.113 43.0381 194.113 43.0381C194.113 43.0381 191.807 40.7145 188.964 41.1024C192.96 36.9976 194.42 36.6098 194.42 36.6098C194.42 36.6098 191.783 36.4207 189.604 37.229C190.301 36.3784 191.283 35.5325 192.664 34.8806C197.584 32.557 195.381 35.2896 195.534 39.859L195.536 39.8596Z" fill="#666666"/>
<path d="M204.51 67.3561L204.918 67.2268L204.683 66.8655C203.198 64.5884 200.504 61.5247 199.675 60.5967L202.247 58.8089L201.471 58.67C201.458 58.6676 200.274 58.4422 198.247 56.9463C199.287 56.5004 200.65 56.6031 200.667 56.6043L201.477 56.6696L200.933 56.0618C200.894 56.0183 199.976 55.0045 197.365 53.1285C198.706 51.5619 199.241 49.6539 199.885 46.9871C200.23 45.557 200.294 43.0461 200.369 40.1388C200.447 37.0648 200.536 33.58 200.968 30.3815C201.231 28.4318 200.352 27.5352 199.567 27.1262C196.491 25.5209 189.303 28.3261 186.591 30.8733C183.665 33.6192 181.286 37.7101 180.68 38.797C178.581 37.8206 176.047 37.3433 173.837 37.5149C173.01 37.5784 172.235 37.7318 171.532 37.9705C170.589 37.6781 169.434 37.6406 168.098 37.8587C165.441 38.2937 162.836 39.6023 162.081 40.0041C158.644 36.6504 153.835 33.9624 148.845 32.6121C145.285 31.6478 141.075 31.5518 139.917 33.2332C139.364 34.0367 139.537 35.0844 140.432 36.3477C141.23 37.472 141.851 40.3292 142.51 43.3542C143.067 45.9129 143.644 48.5586 144.425 50.7874C145.543 53.9725 147.409 55.8449 148.147 56.4931C147.347 57.1916 145.156 59.1714 144.152 60.7248L143.927 61.0722L144.315 61.2099C145.414 61.6002 146.363 62.1041 146.841 62.3766C146.205 63.1052 144.539 65.0331 143.322 66.6275L142.868 67.2232L143.61 67.1507C143.946 67.1181 144.675 67.0553 145.498 67.0359C143.758 68.6617 141.647 72.065 141.545 72.23L141.27 72.6759L141.789 72.726C141.807 72.7278 143.492 72.9048 145.06 74.1422C144.261 74.5838 143.409 75.3318 143.366 75.3699L142.718 75.9408H143.579C143.608 75.9408 146.473 75.9637 147.52 77.9376C148.014 78.8674 148.595 79.8401 149.249 80.8291L149.345 80.9741H196.999L197.094 80.8195C197.797 79.6734 198.231 78.3321 198.613 77.1491C198.979 76.0193 199.295 75.0436 199.736 74.5397C199.956 74.2878 200.143 74.0624 200.324 73.8449C201.075 72.9381 201.618 72.2825 203.505 71.1165L204.132 70.7292L203.425 70.5256C202.76 70.3341 202.148 69.9794 201.808 69.7607C202.434 68.9952 203.69 67.6129 204.508 67.3549L204.51 67.3561ZM201.083 69.6333L200.881 69.8949L201.144 70.0936C201.176 70.1178 201.787 70.5752 202.603 70.9219C201.065 71.9345 200.511 72.6034 199.828 73.4287C199.65 73.6431 199.466 73.8649 199.252 74.1096C198.722 74.7143 198.387 75.7499 197.999 76.9485C197.646 78.0427 197.246 79.2758 196.637 80.3234H149.693C149.089 79.4021 148.551 78.497 148.092 77.6307C147.238 76.0242 145.46 75.5197 144.407 75.3614C144.815 75.0502 145.348 74.6811 145.766 74.5282L146.268 74.3446L145.874 73.9815C144.563 72.7749 143.107 72.3242 142.357 72.1623C143.094 71.0186 145.222 67.8346 146.601 66.9888L147.539 66.4142L146.442 66.3846C145.664 66.3641 144.877 66.3997 144.291 66.4402C145.755 64.5848 147.567 62.5355 147.587 62.5125L147.842 62.2243L147.517 62.0195C147.468 61.9881 146.382 61.3072 144.929 60.7423C146.155 59.0603 148.605 56.9547 148.84 56.7541C149.342 56.4641 149.816 56.1536 150.283 55.8237C151.23 55.1519 152.136 54.4178 152.968 53.6046C153.384 53.1986 153.771 52.7618 154.131 52.3056C152.385 53.6717 150.553 54.9187 148.677 56.089C148.098 55.5929 146.155 53.755 145.037 50.5705C144.269 48.3803 143.697 45.754 143.144 43.2147C142.441 39.9884 141.835 37.2014 140.96 35.9689C140.241 34.9539 140.069 34.1582 140.45 33.6047C141.294 32.3795 144.908 32.22 148.679 33.2416C153.425 34.5255 158.18 37.1633 161.491 40.3352C161.011 40.6186 160.556 40.9388 160.131 41.3037C159.955 41.4638 159.783 41.6378 159.658 41.8511C160.05 41.7073 160.559 41.471 160.937 41.2952C161.234 41.1563 161.638 40.9684 161.966 40.8028L161.973 40.8095L162.185 40.6898C162.215 40.6729 165.228 38.9897 168.203 38.5028C169.486 38.2931 170.574 38.3342 171.436 38.6236L171.541 38.6592L171.646 38.6218C172.323 38.3813 173.077 38.2279 173.889 38.165C176.083 37.9946 178.616 38.4979 180.665 39.5111C181.538 40.0875 182.519 40.4754 183.509 40.8052C182.814 40.1678 182.076 39.5619 181.258 39.0942C181.863 38.011 184.188 34.021 187.034 31.3494C189.556 28.981 196.554 26.2864 199.272 27.7044C200.155 28.1654 200.501 29.0124 200.328 30.2933C199.892 33.5274 199.803 37.0304 199.723 40.1213C199.65 42.9911 199.587 45.4694 199.257 46.8325C198.61 49.5186 198.11 51.2936 196.824 52.7606C196.52 52.5697 196.213 52.3806 195.906 52.1933C194.748 51.4846 193.602 50.7867 192.432 50.0841C193.686 51.4072 195.166 52.482 196.7 53.4505C198.321 54.5997 199.329 55.4455 199.888 55.9506C199.195 55.9868 198.208 56.1337 197.471 56.6291L197.097 56.8804L197.453 57.1577C198.925 58.305 200.031 58.85 200.685 59.1032L198.699 60.4831L198.95 60.7592C198.983 60.7954 202.143 64.2724 203.929 66.9012C202.67 67.5803 201.154 69.5408 201.083 69.632L201.083 69.6333Z" fill="#141D22"/>
<path d="M161.88 81.8272C161.137 82.7413 158.428 83.015 157.817 81.8713C156.855 82.5752 154.099 83.4555 152.419 81.7831C151.481 82.4266 148.581 83.1292 147.584 80.727H147.424L145.2 80.7252H144.273C144.273 80.7252 144.011 74.2104 148.468 70.8652C152.924 67.5199 158.987 68.7971 161.749 73.9464C163.497 77.2041 162.663 80.8624 161.88 81.8266V81.8272Z" fill="white"/>
<path d="M147.433 80.3459C147.478 80.4534 147.467 80.5887 147.423 80.7271L145.199 80.7253C145.052 79.1315 145.309 77.1438 146.124 75.788C147.036 74.2691 148.087 73.8945 148.087 73.8945L148.215 74.219C148.215 74.219 147.999 74.5235 147.292 76.5722C146.781 78.2911 147.124 79.6178 147.433 80.3465V80.3459Z" fill="#D3D9FA"/>
<path d="M161.966 73.8286C160.6 71.2821 158.401 69.5572 155.775 68.9729C153.189 68.3971 150.541 68.9983 148.319 70.6658C143.81 74.051 144.015 80.4648 144.026 80.7361L144.036 80.9754H147.502C147.798 81.5789 148.223 82.0254 148.775 82.3118C149.988 82.9419 151.546 82.5849 152.389 82.0955C153.131 82.7565 154.041 82.9993 154.927 82.9993C156.025 82.9993 157.087 82.6266 157.752 82.2133C158.053 82.5674 158.563 82.7927 159.222 82.8562C160.183 82.9492 161.51 82.6755 162.071 81.9843C162.968 80.8787 163.723 77.1038 161.966 73.8286ZM161.688 81.6696C161.304 82.1432 160.219 82.4532 159.269 82.3613C158.925 82.3281 158.328 82.2109 158.067 81.8067C158.238 80.2709 158.367 78.6705 157.883 77.1824C157.852 77.0972 157.724 77.1437 157.751 77.2283C158.112 78.697 157.871 80.254 157.598 81.7215C156.589 82.4079 154.167 83.0682 152.668 81.6768C152.764 80.1791 152.882 78.6475 152.504 77.1806C152.47 77.0718 152.307 77.1208 152.333 77.2289C152.602 78.6747 152.384 80.1833 152.194 81.6315C151.491 82.0659 150.065 82.4212 149.001 81.8695C148.037 81.3693 147.529 80.2425 147.491 78.5206C147.431 75.8013 148.483 74.196 148.497 74.176C148.574 74.0625 148.544 73.9078 148.432 73.8304C148.319 73.7531 148.165 73.7821 148.088 73.8963C148.041 73.9658 146.932 75.6387 146.997 78.5321C147.013 79.2801 147.114 79.9295 147.298 80.4787H144.518C144.529 79.2867 144.792 73.9362 148.615 71.067C150.72 69.4871 153.224 68.9167 155.668 69.4611C158.152 70.0139 160.234 71.65 161.531 74.0673C163.276 77.3183 162.339 80.8696 161.688 81.6708V81.6696Z" fill="#141D22"/>
<path d="M191.638 81.8272C192.381 82.7413 195.09 83.015 195.701 81.8713C196.663 82.5752 199.419 83.4555 201.099 81.7831C202.037 82.4266 204.937 83.1292 205.934 80.727H206.094L208.318 80.7252H209.245C209.245 80.7252 209.507 74.2104 205.05 70.8652C200.594 67.5199 194.531 68.7971 191.769 73.9464C190.02 77.2041 190.855 80.8624 191.638 81.8266V81.8272Z" fill="white"/>
<path d="M206.085 80.3459C206.04 80.4534 206.051 80.5887 206.095 80.7271L208.319 80.7253C208.466 79.1315 208.209 77.1438 207.394 75.788C206.482 74.2691 205.431 73.8945 205.431 73.8945L205.303 74.219C205.303 74.219 205.519 74.5235 206.226 76.5722C206.737 78.2911 206.394 79.6178 206.085 80.3465V80.3459Z" fill="#D3D9FA"/>
<path d="M191.447 81.985C192.008 82.6761 193.335 82.9498 194.296 82.8568C194.955 82.7933 195.465 82.568 195.766 82.2139C196.431 82.6272 197.493 83 198.591 83C199.477 83 200.387 82.7571 201.129 82.0961C201.972 82.5855 203.529 82.9426 204.743 82.3124C205.295 82.026 205.72 81.5796 206.016 80.9766H209.482L209.492 80.7374C209.503 80.4661 209.707 74.0522 205.199 70.667C202.978 68.9995 200.33 68.3978 197.743 68.9741C195.117 69.559 192.918 71.2833 191.552 73.8299C189.795 77.1051 190.55 80.8805 191.447 81.9856V81.985ZM191.987 74.0661C193.284 71.6488 195.365 70.0127 197.85 69.4599C200.294 68.9155 202.798 69.4865 204.903 71.0658C208.725 73.9356 208.989 79.2855 209 80.4776H206.22C206.404 79.9284 206.505 79.2789 206.521 78.5309C206.585 75.6375 205.477 73.9646 205.43 73.8951C205.353 73.7809 205.199 73.7519 205.086 73.8293C204.974 73.9066 204.944 74.0613 205.021 74.1748C205.034 74.1948 206.087 75.7995 206.027 78.5194C205.989 80.2419 205.481 81.3681 204.517 81.8684C203.454 82.4206 202.027 82.0647 201.324 81.6303C201.133 80.1815 200.915 78.6735 201.185 77.2277C201.212 77.1196 201.048 77.0706 201.014 77.1794C200.636 78.6463 200.754 80.1779 200.85 81.6756C199.35 83.067 196.929 82.4067 195.92 81.7203C195.647 80.2534 195.406 78.6959 195.767 77.2271C195.794 77.1431 195.666 77.096 195.635 77.1812C195.151 78.6693 195.28 80.2703 195.451 81.8055C195.19 82.2097 194.593 82.3269 194.249 82.3602C193.299 82.4526 192.214 82.142 191.829 81.6684C191.179 80.8672 190.242 77.3159 191.987 74.0649V74.0661Z" fill="#141D22"/>
</g>
<g clip-path="url(#clip1_1567_273)">
<path d="M19.5323 41.0093C20.6618 43.4389 20.0575 46.1281 18.187 47.0004C16.3093 47.8728 13.8704 46.6111 12.7409 44.1815C11.6114 41.7519 12.2158 39.0627 14.0863 38.1904C15.964 37.318 18.4028 38.5797 19.5323 41.0093Z" fill="#E3B49B"/>
<path d="M13.3022 44.023C13.2734 43.2084 13.4389 42.4514 13.813 41.7448C14.0504 41.0095 14.4605 40.375 15.036 39.8415C15.6475 39.2287 16.4317 38.7601 17.2662 38.4573C16.2374 37.8661 15.0864 37.7219 14.0864 38.1833C12.2087 39.0557 11.6043 41.7448 12.741 44.1744C12.9497 44.6286 13.2087 45.0468 13.5036 45.4145C13.3957 44.9531 13.331 44.4844 13.3094 44.0158L13.3022 44.023Z" fill="#F5D0BD"/>
<path d="M51.5899 41.0098C50.4604 43.4394 51.0648 46.1286 52.9353 47.0009C54.813 47.8733 57.2518 46.6116 58.3813 44.182C59.5108 41.7524 58.9065 39.0632 57.036 38.1909C55.1583 37.3185 52.7194 38.5802 51.5899 41.0098Z" fill="#E3B49B"/>
<path d="M57.8129 44.023C57.8417 43.2084 57.6762 42.4514 57.3021 41.7448C57.0647 41.0095 56.6546 40.375 56.0791 39.8415C55.4676 39.2287 54.6834 38.7601 53.8489 38.4573C54.8777 37.8661 56.0287 37.7219 57.0287 38.1833C58.9064 39.0557 59.5107 41.7448 58.3741 44.1744C58.1654 44.6286 57.9064 45.0468 57.6115 45.4145C57.7194 44.9531 57.7841 44.4844 57.8057 44.0158L57.8129 44.023Z" fill="#F5D0BD"/>
<path d="M64.1942 84.3098C60.2086 74.9086 42.3309 68.6003 42.3309 68.6003L35.2374 68.074H35.0432L27.9856 68.968C27.9856 68.968 10.7914 74.8653 6.01439 83.8196C0.00719309 95.0736 -0.6259 114.871 5.25899 135H65.0216C70.8993 114.871 69.1727 96.0541 64.1942 84.3098Z" fill="#F5C2A7"/>
<path d="M61.2302 83.6032C61.5468 82.6011 61.9065 81.6278 62.3022 80.6762C55.1007 73.7262 48.3885 69.2995 42.6115 68.0595C39.0719 67.2953 31.6403 67.5909 28.1511 68.5425C21.9281 70.244 13.259 74.6202 6.55396 82.3127C7.02878 83.4662 7.52518 84.6919 7.82014 85.8742C9.43165 92.3412 9.56115 99.0677 10.5396 105.664C11.9784 115.354 12.6978 124.69 12.3669 135H56.9065C56.8417 125.671 56.7698 117.142 57.6978 107.993C58.5252 99.803 58.7482 91.4688 61.223 83.596L61.2302 83.6032Z" fill="#9C3D3D"/>
<path d="M27.1439 71.8519C27.1439 71.8519 24.6618 70.3595 27.7122 70.2153C27.7122 70.2153 27.5467 71.203 27.1439 71.8519Z" fill="#692929"/>
<path d="M43.6115 71.2966C43.6115 71.2966 46.1655 69.6745 43.1223 69.5303C43.1223 69.5303 43.3094 70.6694 43.6115 71.2966Z" fill="#692929"/>
<path d="M29.4173 60.0355C29.3166 59.9923 28.1295 70.3812 27.1439 71.8519C27.1439 71.8519 36.6331 75.1683 43.6187 71.2968C43.6187 71.2968 40.4461 60.3816 41.6259 60.0355C41.6259 60.0355 33.3022 61.8019 29.4173 60.0355Z" fill="#F5C2A7"/>
<path d="M37.1583 63.2869C38.6547 63.186 40.1008 62.8687 41.5036 62.4145C41.3094 61.0952 41.2878 60.1363 41.626 60.0354C41.626 60.0354 33.3022 61.8017 29.4173 60.0354C29.3885 60.021 29.295 60.677 29.1583 61.6792C31.5108 62.9913 34.6763 63.4527 37.1655 63.2869H37.1583Z" fill="#D9AC94"/>
<path d="M55.8633 37.0299C53.3669 50.2161 49.741 61.3332 35.5324 61.3332C21.3237 61.3332 17.4029 50.2666 15.2014 37.0299C12.7554 22.3008 24.3022 12.7266 35.5324 12.7266C46.7626 12.7266 58.5611 22.7911 55.8633 37.0299Z" fill="#F5C2A7"/>
<path d="M45.2734 33.6053C45.2734 33.6053 44.9065 33.6486 44.3957 33.8793C43.8849 34.1028 43.2662 34.557 42.6763 35.1626C42.0863 35.7682 41.5684 36.381 41.1583 36.7919C40.7482 37.2101 40.4604 37.4336 40.4604 37.4336C40.4604 37.4336 40.6619 37.1019 40.9425 36.6261C41.2446 36.1358 41.6475 35.4365 42.2878 34.7804C42.9281 34.1244 43.7122 33.7279 44.3094 33.6269C44.6043 33.5693 44.8489 33.562 45.0144 33.5765C45.1799 33.5909 45.2662 33.6053 45.2662 33.6053H45.2734Z" fill="#E1AC8F"/>
<path d="M36.4172 46.3157C36.4172 46.3157 36.223 46.2725 35.8705 46.1499C35.5251 46.0202 35.0287 45.8039 34.4676 45.429C34.187 45.2343 33.8992 45.0108 33.5971 44.7224C33.5179 44.6359 33.4172 44.535 33.3381 44.3692C33.2518 44.2034 33.2014 43.9654 33.2302 43.7492C33.2949 43.3022 33.5179 43.057 33.6546 42.8624C33.8057 42.6677 33.8849 42.5668 33.9856 42.401C34.0791 42.2496 34.1582 42.0838 34.2374 41.9179C34.3813 41.5719 34.4964 41.1826 34.5827 40.7644C34.7554 39.9209 34.8129 39.0413 34.8705 38.2195C34.928 37.4048 34.964 36.6622 34.9784 36.0278C35.0072 34.7589 35.0215 33.9514 35.0215 33.9514C35.0215 33.9514 35.41 34.6652 35.7841 35.9268C35.9712 36.5541 36.1367 37.3183 36.2374 38.1834C36.3309 39.0413 36.3884 40.0218 36.1726 41.0888C36.0647 41.6151 35.8849 42.1414 35.6259 42.6101C35.4892 42.848 35.3453 43.0715 35.1726 43.2733C35.0143 43.468 34.7913 43.6771 34.6618 43.7924L34.5108 43.9294C34.482 43.9654 34.4892 43.9582 34.3669 43.9294C34.3165 43.9294 34.3597 43.9294 34.3237 43.9294C34.3381 43.9294 34.3525 43.9294 34.3813 43.915L34.4244 43.9006C34.4172 43.915 34.4316 43.9654 34.4676 44.0231C34.6402 44.3115 34.8417 44.5855 35.0215 44.8306C35.3956 45.3136 35.7482 45.6813 36.0072 45.9336C36.2733 46.1788 36.4172 46.3157 36.4172 46.3157Z" fill="#E1AC8F"/>
<path d="M36.8561 55.7313C36.8561 55.7313 36.4029 55.8466 35.6403 55.8971C34.8849 55.9476 33.8129 55.9043 32.6834 55.5799C32.1151 55.4285 31.5683 55.1473 31.1798 54.8229C30.777 54.5057 30.4604 54.2101 30.1654 53.9938C29.8705 53.7775 29.6043 53.655 29.4101 53.5901C29.2158 53.5252 29.0935 53.5252 29.0935 53.518C29.0935 53.518 29.2086 53.4891 29.4244 53.5035C29.6403 53.518 29.9568 53.5829 30.3021 53.7559C30.6547 53.9217 31.0288 54.1812 31.4388 54.4408C31.8489 54.7075 32.2949 54.9022 32.8345 55.0536C33.9065 55.3636 34.9137 55.5366 35.6475 55.6159C36.3885 55.7025 36.8561 55.7169 36.8561 55.7169V55.7313Z" fill="#E1AC8F"/>
<path d="M40.4533 54.3181C40.4533 54.3181 40.2015 54.6281 39.6619 55.003C39.1295 55.3779 38.295 55.7672 37.3094 55.9258C36.3238 56.0772 35.4245 55.9835 34.7986 55.8682C34.1655 55.7528 33.7914 55.623 33.7914 55.623C33.7914 55.623 34.2086 55.6158 34.8202 55.6014C35.4461 55.5798 36.3094 55.5365 37.2302 55.3923C38.1511 55.2481 38.964 55.0102 39.5396 54.7651C40.1151 54.5272 40.4533 54.3181 40.4533 54.3181Z" fill="#E1AC8F"/>
<path d="M51.1654 36.5612C51.1654 36.5612 50.5683 36.453 49.7194 36.1935C48.8776 35.9195 47.705 35.4942 46.6978 35.5663C45.6115 35.6167 44.5395 36.0421 43.741 36.4098C42.928 36.7847 42.3956 37.0298 42.3956 37.0298C42.3956 37.0298 42.4604 36.9 42.5971 36.6765C42.7338 36.453 42.9424 36.1358 43.2446 35.7681C43.5539 35.4077 43.9568 34.9895 44.5179 34.6362C45.0719 34.283 45.7913 33.9874 46.6187 33.9441C47.4604 33.8937 48.2302 34.1748 48.7841 34.4848C49.3597 34.7876 49.7625 35.1698 50.1151 35.487C50.8057 36.1214 51.1726 36.5684 51.1726 36.5684L51.1654 36.5612Z" fill="#E1AC8F"/>
<path d="M44.3812 35.804C43.0574 36.4312 42.0071 37.628 41.5682 39.0338C42.2661 38.695 43.0431 39.2141 43.7697 39.4592C44.1797 39.5962 44.6186 39.6466 45.0503 39.6683C47.1222 39.7692 49.2157 39.2501 50.9999 38.1831C51.1078 38.1182 51.2157 38.0533 51.2805 37.9452C51.3524 37.8226 51.3596 37.6712 51.338 37.527C51.2229 36.8421 50.5179 36.4312 49.8632 36.1861C48.3884 35.6309 46.7769 35.4147 45.2085 35.5661C44.4891 35.6381 43.7265 35.8112 43.2445 36.3447" fill="#F1F2E9"/>
<path d="M48.1222 37.0297C48.1222 37.9525 47.374 38.6951 46.4603 38.6951C45.5467 38.6951 44.7985 37.9453 44.7985 37.0297C44.7985 36.114 45.5467 35.3643 46.4603 35.3643C47.374 35.3643 48.1222 36.114 48.1222 37.0297Z" fill="#905858"/>
<path d="M47.1654 37.0297C47.1654 37.419 46.8489 37.7434 46.4532 37.7434C46.0575 37.7434 45.741 37.4262 45.741 37.0297C45.741 36.6331 46.0575 36.3159 46.4532 36.3159C46.8489 36.3159 47.1654 36.6331 47.1654 37.0297Z" fill="black"/>
<path d="M51.9784 37.0657C51.9784 37.0657 51.8057 37.0657 51.4891 37.0225C51.1726 36.9792 50.7194 36.8783 50.1798 36.698C49.6402 36.525 49.0287 36.2799 48.3668 36.1285C47.705 35.9627 47.0215 35.9771 46.2302 36.1141C44.6618 36.3736 43.3021 36.9648 42.3812 37.5271C41.9208 37.8083 41.5539 38.0679 41.3165 38.2625C41.0791 38.4572 40.9424 38.5725 40.9424 38.5725C40.9424 38.5725 41.0215 38.4139 41.1942 38.1472C41.3668 37.8804 41.6474 37.5055 42.0503 37.1018C42.8561 36.2871 44.2661 35.3499 46.0575 35.0543C46.9352 34.8885 47.8992 34.9605 48.6402 35.2633C49.3812 35.5517 49.9424 35.9266 50.41 36.215C51.3309 36.8134 51.9784 37.0657 51.9784 37.0657Z" fill="#422F2F"/>
<path d="M29.4172 49.4734C29.4172 49.4734 34.0647 50.2088 41.3525 49.4734C41.3525 49.4734 41.482 54.2461 35.5251 54.311C35.5251 54.311 29.2158 54.7075 29.41 49.4734H29.4172Z" fill="#905858"/>
<path d="M41.1439 50.7783C41.3669 50.0357 41.3525 49.4734 41.3525 49.4734C34.1295 50.0285 29.4172 49.4734 29.4172 49.4734C29.4029 49.9492 29.4532 50.3674 29.5324 50.7567C33.4244 51.4055 37.2877 51.3479 41.1439 50.7783Z" fill="white"/>
<path d="M32.2877 53.8136C32.2877 53.8136 32.7266 52.9773 35.1223 52.9773C35.1223 52.9773 36.6978 52.8403 38.2446 53.8136C38.2446 53.8136 37.5899 54.275 35.2446 54.3183C35.2446 54.3183 33.4964 54.2678 32.2949 53.8136H32.2877Z" fill="#C96D6D"/>
<path d="M40.0863 30.0797C40.0863 30.0797 40.4316 29.986 41.0791 29.8707C41.7338 29.7625 42.6978 29.6544 43.928 29.6904C45.1511 29.7265 46.6475 29.8923 48.2805 30.3753C49.9136 30.8439 51.6906 31.6226 53.3957 32.8121C53.3957 32.8121 52.5108 32.7761 51.259 32.7689C50 32.7545 48.3741 32.8049 46.8057 32.841C45.2374 32.8698 43.7194 32.877 42.518 32.5454C41.3237 32.2138 40.3957 31.5288 40.0863 30.0797Z" fill="#422F2F"/>
<path d="M26.6331 33.6053C26.6331 33.6053 27 33.6486 27.5108 33.8793C28.0215 34.1028 28.6403 34.557 29.2302 35.1626C29.8201 35.7682 30.3381 36.381 30.7482 36.7919C31.1582 37.2101 31.446 37.4336 31.446 37.4336C31.446 37.4336 31.2446 37.1019 30.964 36.6261C30.6618 36.1358 30.259 35.4365 29.6187 34.7804C28.9784 34.1244 28.1942 33.7279 27.5971 33.6269C27.3021 33.5693 27.0575 33.562 26.892 33.5765C26.7266 33.5909 26.6402 33.6053 26.6402 33.6053H26.6331Z" fill="#E1AC8F"/>
<path d="M24.2374 40.8579C24.2374 40.8579 25.8705 40.9156 27.8058 40.5551C28.2878 40.4758 28.7482 40.3389 29.1583 40.2163C29.5755 40.0865 29.8705 39.8991 30.1511 39.8126C30.4245 39.7188 30.6835 39.7044 30.8489 39.7333C31.0216 39.7549 31.1079 39.8054 31.1079 39.8054C31.1079 39.8054 31.0504 39.7405 30.8777 39.6756C30.705 39.6107 30.4173 39.5674 30.0719 39.6251C29.7266 39.6684 29.3741 39.827 28.9856 39.8991C28.5827 39.9712 28.1583 40.0793 27.6763 40.1586C25.7842 40.5119 24.2302 40.8579 24.2302 40.8579H24.2374Z" fill="#E1AC8F"/>
<path d="M48.3884 40.8579C48.3884 40.8579 46.7554 40.9156 44.8201 40.5551C44.3381 40.4758 43.8777 40.3389 43.4676 40.2163C43.0503 40.0865 42.7554 39.8991 42.4748 39.8126C42.2014 39.7188 41.9424 39.7044 41.7769 39.7333C41.6043 39.7549 41.5179 39.8054 41.5179 39.8054C41.5179 39.8054 41.5755 39.7405 41.7482 39.6756C41.9208 39.6107 42.2086 39.5674 42.5539 39.6251C42.8992 39.6684 43.2518 39.827 43.6402 39.8991C44.0431 39.9712 44.4676 40.0793 44.9496 40.1586C46.8417 40.5119 48.3956 40.8579 48.3956 40.8579H48.3884Z" fill="#E1AC8F"/>
<path d="M20.741 36.5612C20.741 36.5612 21.3381 36.453 22.187 36.1935C23.0287 35.9195 24.2014 35.4942 25.2158 35.5663C26.3021 35.6167 27.3741 36.0421 28.1726 36.4098C28.9856 36.7847 29.5179 37.0298 29.5179 37.0298C29.5179 37.0298 29.4532 36.9 29.3165 36.6765C29.1798 36.453 28.9712 36.1358 28.669 35.7681C28.3597 35.4077 27.9568 34.9895 27.3956 34.6362C26.8417 34.283 26.1223 33.9874 25.2949 33.9441C24.4532 33.8937 23.6834 34.1748 23.1295 34.4848C22.5539 34.7876 22.151 35.1698 21.7985 35.487C21.1079 36.1214 20.741 36.5684 20.741 36.5684V36.5612Z" fill="#E1AC8F"/>
<path d="M27.5324 35.804C28.8561 36.4312 29.9065 37.628 30.3453 39.0338C29.6475 38.695 28.8705 39.2141 28.1439 39.4592C27.7338 39.5962 27.2949 39.6466 26.8633 39.6683C24.7914 39.7692 22.6978 39.2501 20.9137 38.1831C20.8057 38.1182 20.6978 38.0533 20.6331 37.9452C20.5611 37.8226 20.5539 37.6712 20.5755 37.527C20.6906 36.8421 21.3957 36.4312 22.0503 36.1861C23.5252 35.6309 25.1367 35.4147 26.705 35.5661C27.4244 35.6381 28.187 35.8112 28.669 36.3447" fill="#F1F2E9"/>
<path d="M23.7842 37.0297C23.7842 37.9525 24.5324 38.6951 25.446 38.6951C26.3597 38.6951 27.1079 37.9453 27.1079 37.0297C27.1079 36.114 26.3597 35.3643 25.446 35.3643C24.5324 35.3643 23.7842 36.114 23.7842 37.0297Z" fill="#905858"/>
<path d="M24.741 37.0297C24.741 37.419 25.0575 37.7434 25.4532 37.7434C25.8489 37.7434 26.1654 37.4262 26.1654 37.0297C26.1654 36.6331 25.8489 36.3159 25.4532 36.3159C25.0575 36.3159 24.741 36.6331 24.741 37.0297Z" fill="black"/>
<path d="M19.9281 37.0657C19.9281 37.0657 20.1008 37.0657 20.4173 37.0225C20.7339 36.9792 21.1871 36.8783 21.7267 36.698C22.2662 36.525 22.8777 36.2799 23.5396 36.1285C24.2015 35.9627 24.8849 35.9771 25.6763 36.1141C27.2446 36.3736 28.6044 36.9648 29.5252 37.5271C29.9857 37.8083 30.3526 38.0679 30.59 38.2625C30.8274 38.4572 30.9641 38.5725 30.9641 38.5725C30.9641 38.5725 30.8849 38.4139 30.7123 38.1472C30.5396 37.8804 30.259 37.5055 29.8562 37.1018C29.0504 36.2871 27.6403 35.3499 25.849 35.0543C24.9785 34.8885 24.0072 34.9605 23.2662 35.2633C22.5252 35.5517 21.9641 35.9266 21.4964 36.215C20.5756 36.8134 19.9281 37.0657 19.9281 37.0657Z" fill="#422F2F"/>
<path d="M31.8129 30.0438C31.8129 30.0438 31.4676 29.9501 30.8201 29.842C30.1654 29.741 29.2014 29.6401 27.9712 29.6762C26.7482 29.7194 25.2518 29.8924 23.6187 30.3827C21.9856 30.8585 20.2086 31.6516 18.5179 32.8484C18.5179 32.8484 19.4028 32.8123 20.6546 32.7907C21.9136 32.769 23.5395 32.8123 25.1079 32.8411C26.6762 32.8628 28.1942 32.8628 29.3956 32.5239C30.5899 32.1851 31.5108 31.5002 31.8129 30.0438Z" fill="#422F2F"/>
<path d="M21.5611 21.8034C21.41 21.6592 20.5539 24.954 17.7625 28.0108C17.7625 28.0108 15.0143 30.7648 15.4388 33.937C15.4388 33.937 15.6474 39.2793 17.2661 41.1537H15.9712L14.3813 34.4273C14.3813 34.4273 10.928 17.8526 17.2661 14.7525C17.2661 14.7525 18.0143 14.6804 18.5179 13.6927C18.5179 13.6927 20.7769 9.88604 29.5107 8.97044C29.5107 8.97044 34.151 8.82624 37.9568 7.34829C37.9568 7.34829 42.5251 5.24311 47.669 6.2957C47.669 6.2957 56.2518 7.98273 53.8561 15.7402C53.8561 15.7402 53.8201 17.5714 54.4964 20.0443C54.4964 20.0443 59.7625 27.1456 55.0143 41.161H54.3525C54.3525 41.161 55.5467 37.5346 55.5467 35.5231C55.5467 35.5231 56.2518 29.2869 54.633 27.5205C54.633 27.5205 50.2661 23.6418 48.5827 20.1885C48.5827 20.1885 47.7338 18.5447 45.741 18.314C45.5899 18.2996 45.4316 18.2851 45.2733 18.2851C42.9496 18.2851 23.741 23.9302 21.5539 21.8106L21.5611 21.8034Z" fill="#7A5656"/>
</g>
<g clip-path="url(#clip2_1567_273)">
<path d="M287.499 85.4308C283.546 76.0547 265.819 69.7632 265.819 69.7632L258.785 69.2383H258.593L251.594 70.1299C251.594 70.1299 234.545 76.0115 229.808 84.9418C223.859 96.173 223.231 115.91 229.059 135.986H288.319C294.147 115.91 292.435 97.1437 287.499 85.4308Z" fill="#93AB93"/>
<path d="M269.771 72.8192C269.286 71.906 266.525 71.3164 266.525 71.3164H251.338C251.338 71.3164 248.577 71.906 248.092 72.8192C248.092 72.8192 246.972 73.948 248.648 75.6306L258.757 85.6322V85.9702L258.928 85.7976L259.099 85.9702V85.6322L269.208 75.6306C270.884 73.9409 269.764 72.8192 269.764 72.8192H269.771Z" fill="#F5D7C9"/>
<path d="M240.502 16.0017C237.227 18.6118 235.158 22.5089 234.031 26.5642C232.904 30.6195 232.64 34.8618 232.412 39.0681C232.141 44.1444 231.927 49.2279 232.169 54.3042C232.305 57.0869 232.576 59.8623 232.854 62.6306C233.247 66.5924 233.639 70.5542 234.024 74.5161C234.038 74.6814 234.06 74.854 234.145 74.9906C234.409 75.4005 235.03 75.2423 235.465 75.0266C239.21 73.1571 242.421 70.2738 246.273 68.6344C250.56 66.8081 255.34 66.6499 259.991 66.6859C268.523 66.765 277.426 67.5559 284.795 71.8197C285.209 72.057 285.701 71.7047 285.637 71.2301C284.881 65.6217 287.456 59.9198 287.641 54.1748C287.805 49.192 286.257 42.8861 285.615 37.4646C285.316 34.9337 284.01 31.8922 283.19 29.4762C282.605 27.765 281.014 28.6997 280.037 27.3767C278.696 25.5575 277.355 23.7312 275.749 22.135C273.559 19.9491 271.305 17.7633 268.644 16.1886C266.262 14.7793 263.608 13.8877 260.918 13.2334C257.273 12.349 253.485 11.8817 249.761 12.3562C246.037 12.8308 242.378 14.2976 239.638 16.8933" fill="#2E1D1D"/>
<path d="M243.041 42.2459C244.161 44.669 243.562 47.351 241.707 48.221C239.845 49.0911 237.427 47.8328 236.307 45.4096C235.187 42.9865 235.786 40.3046 237.641 39.4345C239.503 38.5645 241.921 39.8228 243.041 42.2459Z" fill="#D9B6A7"/>
<path d="M236.863 45.2516C236.835 44.4391 236.999 43.6841 237.37 42.9795C237.605 42.246 238.012 41.6133 238.583 41.0812C239.189 40.47 239.967 40.0027 240.794 39.7007C239.774 39.1111 238.633 38.9673 237.641 39.4275C235.779 40.2975 235.18 42.9795 236.307 45.4026C236.514 45.8556 236.771 46.2726 237.063 46.6393C236.956 46.1791 236.892 45.7118 236.871 45.2444L236.863 45.2516Z" fill="#FFE0D1"/>
<path d="M274.829 42.2459C273.709 44.669 274.308 47.351 276.163 48.221C278.025 49.0911 280.443 47.8328 281.563 45.4096C282.683 42.9865 282.084 40.3046 280.229 39.4345C278.375 38.5645 275.949 39.8228 274.829 42.2459Z" fill="#D9B6A7"/>
<path d="M281 45.2516C281.028 44.4391 280.864 43.6841 280.493 42.9795C280.258 42.246 279.851 41.6133 279.281 41.0812C278.674 40.47 277.897 40.0027 277.069 39.7007C278.089 39.1111 279.231 38.9673 280.222 39.4275C282.084 40.2975 282.683 42.9795 281.556 45.4026C281.349 45.8556 281.093 46.2726 280.8 46.6393C280.907 46.1791 280.971 45.7118 280.993 45.2444L281 45.2516Z" fill="#FFE0D1"/>
<path d="M253.014 61.2213C252.914 61.1782 251.737 71.5394 250.76 73.0062C250.76 73.0062 260.169 76.3137 267.096 72.4525C267.096 72.4525 263.95 61.5665 265.12 61.2213C265.12 61.2213 256.866 62.9829 253.014 61.2213Z" fill="#F5D7C9"/>
<path d="M260.69 64.4642C262.174 64.3636 263.608 64.0472 264.999 63.5942C264.806 62.2784 264.785 61.3221 265.12 61.2214C265.12 61.2214 256.866 62.983 253.014 61.2214C252.986 61.207 252.893 61.8614 252.757 62.8608C255.09 64.1694 258.229 64.6296 260.697 64.4642H260.69Z" fill="#D9B6A7"/>
<path d="M279.238 38.2772C276.762 51.4282 273.167 62.5156 259.078 62.5156C244.989 62.5156 241.101 51.4785 238.918 38.2772C236.492 23.5875 247.942 14.0388 259.078 14.0388C270.214 14.0388 281.913 24.0764 279.238 38.2772Z" fill="#FFE0D1"/>
<path d="M259.099 47.948C259.099 47.948 258.479 47.6676 257.501 47.1355C257.373 47.0636 257.237 46.9701 257.102 46.8335C256.966 46.6969 256.838 46.4956 256.774 46.2511C256.645 45.7622 256.759 45.2517 256.973 44.8274C257.194 44.396 257.487 44.0868 257.708 43.7777C257.929 43.4829 258.079 43.1521 258.193 42.7566C258.414 41.9657 258.436 41.0813 258.486 40.2616C258.536 39.4419 258.593 38.7013 258.657 38.0758C258.778 36.8319 258.892 36.0625 258.892 36.0625C258.892 36.0625 258.992 36.8319 259.085 38.0758C259.135 38.7013 259.178 39.4419 259.213 40.2616C259.235 41.0741 259.292 42.0376 259.014 43.0658C258.878 43.5691 258.621 44.0653 258.314 44.4176C258.022 44.7627 257.744 45.0216 257.58 45.2804C257.409 45.5393 257.316 45.8413 257.344 46.0713C257.359 46.3014 257.523 46.51 257.73 46.6897C258.578 47.4303 259.099 47.9264 259.099 47.9264V47.948Z" fill="#D9B6A7"/>
<path d="M241.336 38.0903C241.336 38.0903 241.536 38.1981 241.907 38.2772C242.278 38.3635 242.806 38.4066 243.455 38.3131C244.097 38.2341 244.853 38.0255 245.681 37.7451C246.102 37.6013 246.515 37.4503 246.986 37.2706C247.45 37.098 248.02 36.9182 248.62 36.8535C249.811 36.7241 250.938 36.9614 251.858 37.3712C252.779 37.7883 253.485 38.3707 253.97 38.9243C254.462 39.478 254.748 40.0029 254.905 40.3768C255.061 40.7506 255.104 40.9664 255.104 40.9664C255.104 40.9664 254.969 40.7866 254.698 40.5206C254.427 40.2473 254.006 39.8878 253.449 39.5427C252.351 38.838 250.631 38.2556 248.798 38.4641C248.349 38.5145 247.928 38.6223 247.45 38.7518C246.972 38.8812 246.472 39.0034 246.009 39.0753C245.067 39.2263 244.175 39.2479 243.448 39.1256C242.713 39.0178 242.149 38.7446 241.821 38.5073C241.486 38.2772 241.365 38.0759 241.358 38.0903H241.336Z" fill="#EBC5B5"/>
<path d="M277.205 37.8602C277.205 37.8602 277.083 38.0543 276.748 38.2988C276.42 38.5433 275.849 38.8309 275.1 38.9459C274.351 39.0753 273.452 39.0394 272.496 38.8596C272.026 38.7733 271.512 38.6439 271.041 38.5001C270.563 38.3563 270.142 38.2485 269.693 38.1981C267.852 37.9896 266.14 38.6799 265.063 39.4492C264.514 39.8303 264.107 40.2186 263.843 40.499C263.579 40.7866 263.451 40.9664 263.451 40.9664C263.451 40.9664 263.486 40.7435 263.629 40.3624C263.772 39.9813 264.043 39.442 264.514 38.8524C264.977 38.27 265.662 37.6445 266.583 37.1843C267.503 36.7241 268.651 36.4509 269.864 36.5875C270.478 36.6522 271.062 36.8392 271.533 37.0261C272.004 37.2131 272.418 37.3856 272.846 37.5366C273.673 37.8314 274.43 38.0543 275.086 38.1334C275.735 38.2269 276.277 38.1694 276.641 38.0687C277.012 37.9752 277.205 37.8458 277.212 37.8602H277.205Z" fill="#EBC5B5"/>
<path d="M255.461 33.4595C255.461 33.4595 255.104 33.4164 254.455 33.3373C253.806 33.2582 252.857 33.1503 251.652 33.0569C249.248 32.8843 245.831 32.8124 241.7 33.4883C241.7 33.4883 242.413 33.0281 243.598 32.4888C244.775 31.9496 246.451 31.3672 248.227 31.1083C249.997 30.8279 251.859 30.8854 253.235 31.3096C254.619 31.7267 255.497 32.4816 255.454 33.4667L255.461 33.4595Z" fill="#2E1D1D"/>
<path d="M263.115 33.4595C263.115 33.4595 263.472 33.4164 264.121 33.3373C264.771 33.2582 265.719 33.1503 266.925 33.0569C269.329 32.8843 272.746 32.8124 276.876 33.4883C276.876 33.4883 276.163 33.0281 274.979 32.4888C273.802 31.9496 272.125 31.3672 270.349 31.1083C268.58 30.8279 266.718 30.8854 265.341 31.3096C263.957 31.7267 263.08 32.4816 263.123 33.4667L263.115 33.4595Z" fill="#2E1D1D"/>
<path d="M241.336 38.7445C241.336 38.7445 241.536 38.8524 241.907 38.9315C242.278 39.0178 242.806 39.0609 243.455 38.9674C244.097 38.8884 244.853 38.6798 245.681 38.3994C246.102 38.2556 246.515 38.1046 246.986 37.9249C247.45 37.7523 248.02 37.5725 248.62 37.5078C249.811 37.3784 250.938 37.6157 251.858 38.0255C252.779 38.4426 253.485 39.025 253.97 39.5786C254.462 40.1323 254.748 40.6572 254.905 41.0311C255.061 41.4049 255.104 41.6207 255.104 41.6207C255.104 41.6207 254.969 41.4409 254.698 41.1677C254.427 40.8944 254.006 40.5349 253.449 40.1898C252.351 39.4851 250.631 38.9027 248.798 39.1112C248.349 39.1616 247.928 39.2694 247.45 39.3989C246.972 39.5283 246.472 39.6505 246.009 39.7224C245.067 39.8734 244.175 39.895 243.448 39.7728C242.713 39.6649 242.149 39.3917 241.821 39.1544C241.486 38.9243 241.365 38.723 241.358 38.7374L241.336 38.7445Z" fill="#211515"/>
<path d="M277.205 38.5216C277.205 38.5216 277.083 38.7157 276.748 38.9602C276.42 39.2046 275.849 39.4923 275.1 39.6073C274.351 39.7367 273.452 39.7008 272.496 39.521C272.026 39.4347 271.512 39.3053 271.041 39.1615C270.563 39.0177 270.142 38.9098 269.693 38.8595C267.852 38.651 266.14 39.3413 265.063 40.1106C264.514 40.4917 264.107 40.88 263.843 41.1604C263.579 41.448 263.451 41.6278 263.451 41.6278C263.451 41.6278 263.486 41.4049 263.629 41.0238C263.772 40.6427 264.043 40.1034 264.514 39.5138C264.977 38.9314 265.662 38.3059 266.583 37.8457C267.503 37.3855 268.651 37.1123 269.864 37.2489C270.478 37.3136 271.062 37.5005 271.533 37.6875C272.004 37.8744 272.418 38.047 272.846 38.198C273.673 38.4928 274.43 38.7157 275.086 38.7948C275.735 38.8883 276.277 38.8307 276.641 38.7301C277.012 38.6366 277.205 38.5072 277.212 38.5216H277.205Z" fill="#211515"/>
<path d="M253.578 53.3334C253.585 53.0314 253.785 52.7654 254.034 52.6C254.284 52.4346 254.576 52.3555 254.862 52.2764C255.818 52.0176 256.774 51.7587 257.73 51.4999C257.986 51.428 258.25 51.3633 258.507 51.4136C258.828 51.4783 259.106 51.73 259.434 51.7444C259.684 51.7516 259.912 51.6221 260.155 51.5502C260.747 51.3705 261.382 51.5574 261.974 51.7444C262.83 52.0176 263.693 52.2908 264.471 52.751C264.571 52.8085 264.678 52.902 264.642 53.0099C264.614 53.0889 264.528 53.1177 264.442 53.1393C262.381 53.6714 260.262 54.0884 258.136 54.0021C256.595 53.9374 255.083 53.6066 253.571 53.2759" fill="#EBB39B"/>
<path d="M264.999 53.0027C264.999 53.0027 264.442 53.3694 263.486 53.8224C263.001 54.0453 262.438 54.2898 261.76 54.5199C261.082 54.7428 260.241 54.9657 259.213 54.9944C258.7 55.0088 258.172 54.9585 257.73 54.8794C257.287 54.7931 256.895 54.6852 256.552 54.5702C255.868 54.3329 255.347 54.0956 254.883 53.9087C254.434 53.7217 254.041 53.5851 253.742 53.5132C253.592 53.4701 253.471 53.4485 253.392 53.4269C253.307 53.4054 253.264 53.3982 253.264 53.3982C253.264 53.3982 253.299 53.3766 253.378 53.3407C253.449 53.3047 253.563 53.2472 253.72 53.1969C254.027 53.0818 254.526 52.9668 255.14 52.9164C255.753 52.8661 256.474 52.8877 257.173 52.9308C257.501 52.9452 257.837 52.9668 258.193 52.9811C258.521 52.9883 258.8 52.9955 259.121 52.9811C259.755 52.9668 260.455 52.9093 261.168 52.8733C261.881 52.8302 262.559 52.8302 263.13 52.8445C264.271 52.8805 265.013 52.9955 265.013 52.9955L264.999 53.0027Z" fill="#D98764"/>
<path d="M240.125 47.936L239.78 56.8379L240.136 56.8519L240.481 47.95L240.125 47.936Z" fill="#C5CC98"/>
<path d="M241.336 56.7848C241.336 57.777 240.787 58.5751 240.109 58.5751C239.432 58.5751 238.882 57.7698 238.882 56.7848C238.882 55.7997 239.432 54.9944 240.109 54.9944C240.787 54.9944 241.336 55.7997 241.336 56.7848Z" fill="#C5CC98"/>
<path d="M278.605 47.9471L278.248 47.9612L278.594 56.8631L278.95 56.8491L278.605 47.9471Z" fill="#C5CC98"/>
<path d="M277.404 56.7848C277.404 57.777 277.954 58.5751 278.631 58.5751C279.309 58.5751 279.858 57.7698 279.858 56.7848C279.858 55.7997 279.309 54.9944 278.631 54.9944C277.954 54.9944 277.404 55.7997 277.404 56.7848Z" fill="#C5CC98"/>
<path d="M238.996 32.647C239.346 28.9297 239.774 28.1387 242.67 25.9745C244.418 24.673 244.925 24.1697 246.801 23.084C248.677 21.9983 251.181 19.9562 251.966 17.8639C253.264 25.881 263.108 27.4772 273.352 30.0801C274.829 30.454 276.677 31.2162 277.098 32.6974C279.01 39.4203 278.51 39.2621 277.747 44.8202C277.597 45.9347 275.742 49.2062 275.05 50.0691C273.966 51.4208 272.254 54.5845 270.77 55.4114C274.116 55.3108 281.442 49.954 282.912 46.7975C284.388 43.641 284.645 40.0099 284.61 36.4938C284.56 31.5685 283.982 26.6072 282.377 21.9767C280.764 17.3533 278.075 13.0679 274.323 10.1271C269.222 6.14372 262.252 4.92857 256.196 6.97779C255.062 7.35888 253.927 7.85501 252.736 7.81187C252.015 7.7831 251.309 7.56021 250.589 7.47392C249.055 7.29417 247.514 7.74715 246.094 8.3799C241.486 10.4219 237.691 14.4125 235.736 19.2516C233.782 24.0906 233.689 29.735 235.487 34.6459C237.177 39.2549 237.62 45.1797 239.367 49.7671C240.166 46.8622 241.272 43.4324 240.202 39.2549C239.453 36.3285 238.64 35.6526 238.989 32.647" fill="#2E1D1D"/>
</g>
<defs>
<filter id="filter0_dddd_1567_273" x="69" y="0" width="153" height="84" filterUnits="userSpaceOnUse" color-interpolation-filters="sRGB">
<feFlood flood-opacity="0" result="BackgroundImageFix"/>
<feColorMatrix in="SourceAlpha" type="matrix" values="0 0 0 0 0 0 0 0 0 0 0 0 0 0 0 0 0 0 127 0" result="hardAlpha"/>
<feOffset dy="-1"/>
<feGaussianBlur stdDeviation="1"/>
<feColorMatrix type="matrix" values="0 0 0 0 0 0 0 0 0 0 0 0 0 0 0 0 0 0 0.1 0"/>
<feBlend mode="normal" in2="BackgroundImageFix" result="effect1_dropShadow_1567_273"/>
<feColorMatrix in="SourceAlpha" type="matrix" values="0 0 0 0 0 0 0 0 0 0 0 0 0 0 0 0 0 0 127 0" result="hardAlpha"/>
<feOffset dy="-4"/>
<feGaussianBlur stdDeviation="2"/>
<feColorMatrix type="matrix" values="0 0 0 0 0 0 0 0 0 0 0 0 0 0 0 0 0 0 0.09 0"/>
<feBlend mode="normal" in2="effect1_dropShadow_1567_273" result="effect2_dropShadow_1567_273"/>
<feColorMatrix in="SourceAlpha" type="matrix" values="0 0 0 0 0 0 0 0 0 0 0 0 0 0 0 0 0 0 127 0" result="hardAlpha"/>
<feOffset dy="-9"/>
<feGaussianBlur stdDeviation="2.5"/>
<feColorMatrix type="matrix" values="0 0 0 0 0 0 0 0 0 0 0 0 0 0 0 0 0 0 0.05 0"/>
<feBlend mode="normal" in2="effect2_dropShadow_1567_273" result="effect3_dropShadow_1567_273"/>
<feColorMatrix in="SourceAlpha" type="matrix" values="0 0 0 0 0 0 0 0 0 0 0 0 0 0 0 0 0 0 127 0" result="hardAlpha"/>
<feOffset dy="-15"/>
<feGaussianBlur stdDeviation="3"/>
<feColorMatrix type="matrix" values="0 0 0 0 0 0 0 0 0 0 0 0 0 0 0 0 0 0 0.01 0"/>
<feBlend mode="normal" in2="effect3_dropShadow_1567_273" result="effect4_dropShadow_1567_273"/>
<feBlend mode="normal" in="SourceGraphic" in2="effect4_dropShadow_1567_273" result="shape"/>
</filter>
<clipPath id="clip0_1567_273">
<rect width="141" height="62" fill="white" transform="translate(75 21)"/>
</clipPath>
<clipPath id="clip1_1567_273">
<rect width="70" height="129" fill="white" transform="translate(0 6)"/>
</clipPath>
<clipPath id="clip2_1567_273">
<rect width="67" height="130" fill="white" transform="translate(225 6)"/>
</clipPath>
</defs>
</svg>
