<svg width="26" height="26" viewBox="0 0 26 26" fill="none" xmlns="http://www.w3.org/2000/svg">
<path d="M22.75 4.75312C22.75 4.8425 22.7338 4.93594 22.7013 5.02125C22.5469 5.41937 21.97 6.5 20.3125 6.5C20.3125 6.5 19.0938 6.5 19.0938 7.3125C19.0938 8.125 20.7188 10.5625 20.7188 13.4062C20.7188 13.4062 20.7188 15.8438 19.0938 17.0625C17.4688 18.2812 18.2812 23.9688 18.2812 23.9688C18.2812 23.9688 19.9062 23.9688 19.9062 24.7812V25.1875H17.0625C17.0625 25.1875 15.8438 23.9688 15.8438 21.5312C15.8438 19.9428 16.0184 19.045 16.1363 18.6103C16.185 18.4762 16.2175 18.3787 16.2337 18.3259C16.2094 18.3747 16.1769 18.4641 16.1363 18.6103C15.8234 19.4756 14.8322 21.8075 13.1706 22.2666C13.3006 21.8278 13.4062 21.2997 13.4062 20.7188C13.4062 18.2812 11.375 17.875 11.375 17.875C11.375 17.875 13 18.6875 13 20.3125C13 21.125 12.7969 21.8359 12.5938 22.3438C12.3906 22.8516 12.1875 23.1562 12.1875 23.1562C12.1875 23.1562 12.5938 23.9688 13.8125 23.9688C15.0312 23.9688 15.0312 24.7812 15.0312 24.7812V25.1875H8.53125C6.90625 25.1875 5.28125 24.7812 5.28125 22.3438C5.28125 19.9062 5.28125 18.6875 6.5 17.0625C7.71875 15.4375 9.34375 15.8438 11.7812 12.5938C13.3616 10.4894 14.0887 8.38094 14.4056 7.15813C14.5356 7.27594 14.7144 7.3125 15.0312 7.3125C15.8438 7.3125 18.2812 7.3125 17.0625 4.0625C17.4688 6.5 16.25 6.90625 15.4375 6.90625C14.9541 6.90625 14.7591 6.61781 14.5925 6.30094C14.4828 6.08156 14.3813 5.85 14.2188 5.6875C13.8125 5.28125 13.4062 5.6875 13.4062 4.46875C13.4062 3.25 15.0312 1.21875 17.4688 1.21875C19.9062 1.21875 20.3125 3.25 20.3125 3.25C20.7959 3.73344 21.5678 3.92844 22.1122 4.00969C22.4778 4.0625 22.75 4.37937 22.75 4.75312Z" fill="white"/>
<path d="M16.2344 18.3259V18.3219C16.2425 18.3097 16.2466 18.3016 16.2466 18.2934C16.2466 18.2853 16.2506 18.2812 16.2506 18.2812" fill="white"/>
<path d="M4.46938 17.0625C3.90875 18.7484 4.51 19.6543 4.93657 20.0565C4.87563 20.7228 4.87563 21.4622 4.87563 22.3437C4.87563 22.5265 4.88375 22.7012 4.90407 22.8637C2.40563 20.8284 2.08875 17.7815 3.25063 15.8437C4.46938 13.8125 7.31313 13.4062 7.71938 13.8125C7.71938 13.8125 5.28188 14.625 4.46938 17.0625Z" fill="white"/>
<path d="M3.64062 7.27965H10.9206M7.28063 10.9196V3.63965" stroke="white" stroke-width="1.36842" stroke-miterlimit="10" stroke-linecap="round" stroke-linejoin="round"/>
</svg>
