<svg width="27" height="39" viewBox="0 0 27 39" fill="none" xmlns="http://www.w3.org/2000/svg">
<path d="M25.5063 4.03018C25.3755 3.32036 24.096 1.47109 23.5543 1.03212C23.0032 0.593154 21.8545 0.415699 21.3875 0.312962C20.7897 0.182206 19.7904 0.817308 19.5942 0.72391C19.3981 0.639853 18.6136 0.72391 18.6136 0.72391H18.5669H18.5762C18.5762 0.72391 17.7917 0.639853 17.5955 0.72391C17.3994 0.807968 16.4 0.182206 15.8023 0.312962C15.3353 0.415699 13.4954 0.593154 12.9443 1.03212C12.3933 1.47109 11.6648 3.68461 11.534 4.39443C11.4313 4.93613 10.4413 6.84144 10.8522 7.01889C11.0204 7.09361 12.0851 7.12163 12.5147 7.03757C12.5054 7.06559 12.496 7.09361 12.496 7.12163L12.4867 7.08427C12.4867 7.08427 11.8236 8.53193 11.8516 9.09231C11.8703 9.35383 12.0104 9.93289 12.2719 10.5773L11.45 12.9403C11.45 12.9403 11.3753 13.1271 11.2539 13.426C10.9083 14.2478 10.516 15.0884 10.1051 15.6768C8.97496 17.3019 5.59397 19.749 4.33311 24.3908C4.33311 24.3908 0.858727 27.7718 0.410419 30.8165C-0.0378881 33.8613 1.13892 38.0081 1.68062 38.1482C2.22233 38.279 11.2072 38.1482 11.2072 38.1482C11.2072 38.1482 11.2258 37.8494 11.1231 37.4851H15.3914C15.3914 37.6812 15.382 37.8494 15.3447 37.9988H16.4094H19.7157H22.172H22.7137C22.611 36.9154 22.0319 36.4297 21.649 36.2336C21.2941 34.9821 20.8738 33.413 20.7991 32.6845C20.7991 32.6285 20.7897 32.5724 20.7897 32.5164C20.7897 32.5164 20.7897 32.5164 20.7897 32.507C20.7897 32.3016 20.8271 31.928 20.8925 31.461C20.9111 29.9106 21.2194 28.108 21.8731 25.9879C22.1253 25.633 22.3868 25.2594 22.6483 24.8578C25.9172 19.8517 24.5256 12.0997 24.4322 11.586C24.4416 11.5673 24.4416 11.5393 24.4509 11.5206C24.9833 10.5587 25.2821 9.48458 25.3008 9.10165C25.3008 9.10165 25.2074 7.55126 25.3008 7.16833C25.8612 7.35512 26.1974 6.84144 26.1881 6.66398C26.1694 6.20634 25.5997 4.57188 25.5063 4.03018ZM18.6042 36.5605L18.0252 36.3924C18.0252 36.3924 17.0632 32.5164 16.839 31.517C16.6055 30.527 18.8751 29.3969 18.8751 29.3969C18.3147 31.1341 18.6042 36.5605 18.6042 36.5605Z" fill="#E08C5C"/>
<path d="M24.8897 10.5398C24.8897 10.5398 21.406 12.9495 21.8449 8.42904C22.0878 5.93533 20.9857 6.70119 19.5941 5.29089C18.1931 3.88059 19.5847 0.733098 19.5847 0.733098C19.5847 0.733098 17.7168 1.05065 17.063 0.705078C17.063 0.705078 18.8842 4.80522 16.8202 5.72986C14.7467 6.65449 14.6814 7.47639 14.7094 8.36366C14.7467 9.30698 15.1016 12.6319 12.4398 11.0068C12.4398 11.0068 13.7007 12.5759 13.8034 13.4165C13.9062 14.257 12.5426 16.8908 14.0649 18.4786C15.5873 20.0664 16.7454 21.5887 16.7174 22.8403C16.6894 24.0918 16.7174 31.1246 16.7174 31.1246C16.7174 31.1246 17.4553 30.6763 18.3892 29.8731C18.0997 32.7497 18.6134 36.5697 18.6134 36.5697L19.1924 37.0086C19.1924 37.0086 19.5847 36.4296 19.6034 34.7764C19.6127 33.665 19.7995 30.3774 19.9116 28.3414C20.3412 27.837 20.7428 27.2673 21.0791 26.6509C22.6015 23.8863 23.3019 25.4741 24.3386 20.6454C25.3754 15.8261 24.1332 12.0248 24.1332 12.0248L24.8897 10.5398Z" fill="white"/>
<path d="M13.5046 30.8257C13.5046 30.8257 12.608 32.6002 10.9269 33.0672C10.9269 33.0672 9.46987 35.673 7.25635 36.1493C7.25635 36.1493 10.4319 36.168 10.7681 36.8311C11.1043 37.4943 11.1043 37.4943 11.1043 37.4943H15.3726C15.3726 37.4849 14.5227 32.1986 13.5046 30.8257Z" fill="#D1C5C1"/>
<path d="M18.1558 8.82156C18.1558 8.82156 16.7829 9.5594 16.3719 9.48468C15.961 9.40062 15.0083 8.63477 15.0083 8.63477C15.0083 8.63477 15.7742 10.7736 16.7081 11.1658C16.7081 11.1658 16.6988 14.1639 18.4173 13.9678C20.1358 13.7623 19.865 11.1939 19.865 11.1939C19.865 11.1939 21.3967 10.5121 21.35 8.74684C21.35 8.74684 20.7336 9.6061 20.0051 9.50336C19.2766 9.40062 18.1558 8.82156 18.1558 8.82156Z" fill="#B73558"/>
<path d="M18.2959 7.99014C18.3893 8.0275 20.0891 7.23362 19.5941 6.81334C19.1084 6.39305 16.9696 6.43041 17.063 6.94409C17.1564 7.45778 18.2959 7.99014 18.2959 7.99014Z" fill="#5B4D60"/>
<path d="M11.8142 21.1873C11.8142 21.1873 11.3752 26.6884 9.73145 27.2114C9.73145 27.2114 13.7195 29.0793 10.9269 33.0674C10.9269 33.0674 13.1124 33.1608 13.5047 30.8259C13.5047 30.8259 12.1037 28.7618 12.44 26.6417C12.7669 24.5215 11.8142 21.1873 11.8142 21.1873Z" fill="#BF6749"/>
<path d="M21.6769 26.2493L18.38 29.8731C18.38 29.8731 18.4267 36.439 18.8096 36.7192C19.1832 37.0087 19.7156 38.2229 19.7156 38.2229L22.7136 38.008C22.7136 38.008 22.2747 36.4296 21.4154 36.1588C20.1265 35.7385 21.266 26.1092 21.6769 26.2493Z" fill="#BF6749"/>
<path d="M0.690487 29.649C0.783884 29.3874 3.68854 26.1372 6.26631 26.7256C8.84408 27.314 11.0296 30.2 9.96485 32.7311C8.90012 35.2621 6.09819 36.1401 6.09819 36.1401L8.49851 36.1961C8.49851 36.1961 9.6473 36.8592 9.73135 38.2976H1.87663C1.87663 38.3069 -0.738493 33.8145 0.690487 29.649Z" fill="#BF6749"/>
<path d="M15.4567 2.33032C15.4567 2.33032 14.6908 5.30036 13.9343 6.8134C13.1778 8.32643 12.001 8.15832 12.001 8.15832L12.4306 6.52386C12.4306 6.52386 13.3085 6.07556 13.7288 5.45913C14.1491 4.84271 14.8496 3.11486 14.8496 3.11486L15.4567 2.33032Z" fill="#BF6749"/>
<path d="M21.35 2.33032C21.35 2.33032 22.1158 5.30036 22.8724 6.8134C23.6289 8.32643 24.8057 8.15832 24.8057 8.15832L24.376 6.52386C24.376 6.52386 23.4981 6.07556 23.0778 5.45913C22.6575 4.84271 21.9571 3.11486 21.9571 3.11486L21.35 2.33032Z" fill="#BF6749"/>
<path d="M16.7642 24.0825C16.7642 24.0825 19.0057 22.9991 19.7062 21.5327C19.7062 21.5327 19.8276 22.887 19.3326 24.2506C19.3326 24.2506 22.5361 19.478 21.2099 15.4619C21.2099 15.4619 22.7603 16.6761 22.4521 21.6915C22.4521 21.6915 24.5815 19.8236 24.7123 17.8529C24.7123 17.8529 24.4788 23.0645 21.8637 25.9878C21.8637 25.9878 18.4733 31.2648 16.7081 30.5923L16.7642 24.0825Z" fill="#D1C5C1"/>
<path d="M15.9984 13.9675C15.9984 13.9675 17.1379 15.0228 18.4267 14.8921C19.7156 14.7613 21.1633 13.6499 21.1633 13.6499C21.1633 13.6499 19.5288 15.7513 18.6696 15.9848C17.8103 16.209 15.9984 13.9675 15.9984 13.9675Z" fill="#D1C5C1"/>
<path d="M15.2886 8.82129L16.6335 9.60583L16.7176 11.0535C16.7176 11.0535 15.6155 10.1756 15.466 9.93272C15.3166 9.69922 15.2886 8.82129 15.2886 8.82129Z" fill="#7F2D54"/>
<path d="M19.8651 9.56861L21.4155 9.09229C21.4155 9.09229 20.743 11.1003 20.248 11.063C19.753 11.0256 19.809 10.0449 19.8651 9.56861Z" fill="#7F2D54"/>
<path d="M17.9222 6.5238C17.9222 6.5238 18.9776 6.89739 19.0057 7.09352C19.0337 7.28966 18.4639 7.99948 18.4639 7.99948C18.4639 7.99948 19.5007 7.28032 19.454 7.14956C19.3979 7.01881 18.7908 6.31833 17.9222 6.5238Z" fill="white"/>
<path d="M11.151 7.38303C10.8801 7.38303 10.656 7.34567 10.5252 7.29897C10.4131 7.25227 10.3197 7.16822 10.273 7.0468C10.1236 6.68255 10.3664 6.08481 10.7774 5.14149C10.9175 4.8146 11.0669 4.48771 11.0949 4.33828C11.235 3.65647 12.0476 1.32154 12.7667 0.798515C13.3458 0.378227 14.4105 0.182092 15.0456 0.0700154C15.1297 0.051336 15.2044 0.0419965 15.2698 0.0326567C15.7461 -0.0607407 16.3252 0.144734 16.8015 0.312849C16.9509 0.368887 17.1564 0.434265 17.2405 0.452945C17.5113 0.368887 18.0904 0.415586 18.4266 0.443605C18.5854 0.462284 18.7068 0.602381 18.6881 0.761156C18.6694 0.919932 18.5294 1.04135 18.3706 1.02267C17.9596 0.98531 17.5207 0.97597 17.4179 1.00399C17.2311 1.07871 16.9976 0.994649 16.6147 0.863893C16.2318 0.733137 15.7088 0.546342 15.3912 0.602381C15.3258 0.61172 15.2511 0.6304 15.1577 0.649079C14.6067 0.751816 13.5886 0.938611 13.1216 1.27484C12.636 1.62975 11.8328 3.67515 11.674 4.45969C11.6273 4.66517 11.4965 4.98272 11.3191 5.38433C11.151 5.75792 10.8241 6.50509 10.8147 6.77595C11.2817 6.87868 12.7761 6.77595 13.3551 5.5898C13.4672 5.36565 13.5793 5.13215 13.6914 4.89866C14.4666 3.28289 14.9803 2.29287 15.5967 2.14344C15.7555 2.10608 15.9142 2.19948 15.9516 2.35825C15.9889 2.51703 15.8955 2.6758 15.7368 2.71316C15.3445 2.80656 14.7001 4.16082 14.2237 5.15083C14.1117 5.38433 13.9996 5.61782 13.8875 5.85131C13.2804 7.05614 11.9822 7.38303 11.151 7.38303Z" fill="#3F0F33"/>
<path d="M25.6462 7.38309C24.8149 7.38309 23.5167 7.0562 22.919 5.84204C22.8069 5.61788 22.6948 5.37505 22.5828 5.14156C22.1064 4.15154 21.462 2.79728 21.0697 2.69455C20.9109 2.65719 20.8175 2.49841 20.8549 2.33963C20.8923 2.18086 21.051 2.08746 21.2098 2.12482C21.8262 2.27426 22.3399 3.26427 23.1151 4.88938C23.2272 5.12288 23.3393 5.35637 23.4513 5.58052C24.0304 6.76667 25.5248 6.86941 25.9918 6.76667C25.9824 6.49582 25.6555 5.74864 25.4874 5.37505C25.31 4.97344 25.1792 4.66523 25.1325 4.45042C24.9737 3.66588 24.1705 1.62047 23.6848 1.26556C23.2085 0.919994 22.1905 0.7332 21.6488 0.639802C21.5647 0.621123 21.4807 0.611783 21.4153 0.593104C21.0977 0.527725 20.5747 0.71452 20.1918 0.854616C19.8088 0.994712 19.5754 1.06943 19.3792 0.994712C19.2858 0.966693 18.8375 0.976033 18.4359 1.01339C18.2771 1.03207 18.1277 0.910654 18.1184 0.751879C18.0997 0.593103 18.2211 0.443668 18.3799 0.434328C18.7161 0.396969 19.2952 0.35961 19.566 0.443668C19.6501 0.434328 19.8462 0.35961 20.005 0.303572C20.472 0.135456 21.0604 -0.070018 21.5367 0.0233794C21.6021 0.0327191 21.6768 0.0513987 21.7609 0.0607385C22.396 0.172815 23.4607 0.36895 24.0397 0.789238C24.7589 1.31226 25.5715 3.6472 25.7116 4.329C25.7396 4.47844 25.889 4.80533 26.0291 5.13222C26.4401 6.07553 26.6829 6.67327 26.5335 7.03752C26.4868 7.15894 26.3934 7.243 26.2813 7.2897C26.1412 7.34573 25.917 7.38309 25.6462 7.38309Z" fill="#3F0F33"/>
<path d="M13.5887 13.0056C13.514 13.0056 13.4486 12.9776 13.3926 12.9215C12.2625 11.8661 11.5993 9.7647 11.5526 9.10158C11.5153 8.50383 12.0943 6.87872 12.1597 6.70127C12.2158 6.55183 12.3839 6.46777 12.5333 6.52381C12.6827 6.57985 12.7668 6.74796 12.7108 6.8974C12.4773 7.54184 12.113 8.69997 12.141 9.06422C12.1691 9.57791 12.7855 11.5393 13.7942 12.4919C13.9156 12.604 13.9156 12.7908 13.8035 12.9029C13.7381 12.9776 13.6634 13.0056 13.5887 13.0056Z" fill="#3F0F33"/>
<path d="M23.5448 13.0055C23.4701 13.0055 23.3861 12.9775 23.33 12.9121C23.2179 12.7907 23.2273 12.6133 23.3394 12.5012C24.3387 11.5579 24.9551 9.61521 24.9925 9.09219C24.9925 8.99879 24.9645 8.38237 24.8524 7.83132C24.8057 7.59783 24.7403 7.41104 24.6749 7.27094C24.6002 7.12151 24.6656 6.95339 24.8057 6.87867C24.9551 6.80395 25.1233 6.86933 25.198 7.00943C25.282 7.18688 25.3567 7.42038 25.4221 7.70057C25.5622 8.34501 25.5809 9.04549 25.5809 9.07351V9.10153C25.5435 9.76465 24.8711 11.8568 23.741 12.9215C23.6943 12.9869 23.6196 13.0055 23.5448 13.0055Z" fill="#3F0F33"/>
<path d="M4.51046 38.5125C3.00677 38.5125 1.7926 38.4938 1.58713 38.4471C0.718531 38.2323 -0.31818 33.6185 0.0927685 30.7885C0.522397 27.8652 3.56715 24.727 4.04348 24.2507C5.00547 20.8044 7.07889 18.5908 8.59193 16.9657C9.10562 16.4147 9.55392 15.929 9.84346 15.5274C10.9269 13.9583 11.9636 10.54 11.9729 10.512C12.0196 10.3532 12.1784 10.2691 12.3372 10.3158C12.4959 10.3625 12.58 10.5213 12.5333 10.6801C12.4866 10.8202 11.4592 14.2198 10.3198 15.8636C10.0116 16.3119 9.55392 16.7976 9.02156 17.3673C7.53654 18.9551 5.50048 21.1312 4.59452 24.4842C4.58518 24.5309 4.55716 24.5776 4.5198 24.615C4.48245 24.6523 1.1108 27.9679 0.681172 30.8726C0.260883 33.7212 1.31627 37.4851 1.75524 37.8774C2.31563 37.9614 7.49918 37.9148 10.8895 37.8681C10.8521 37.5318 10.7027 36.9621 10.105 36.6539C9.56326 36.3737 8.46117 36.4391 7.4805 36.4951C6.15426 36.5698 5.00547 36.6352 4.67858 35.9814C4.60386 35.8413 4.66924 35.6639 4.80934 35.5892C4.95877 35.5144 5.12689 35.5798 5.20161 35.7199C5.35104 36.0281 6.56521 35.9534 7.44314 35.9067C8.54523 35.8413 9.69402 35.7759 10.3758 36.1309C11.5806 36.7566 11.4872 38.1202 11.4779 38.1763C11.4686 38.3257 11.3378 38.4471 11.1884 38.4471C10.2544 38.4658 6.98549 38.5125 4.51046 38.5125Z" fill="#3F0F33"/>
<path d="M7.64855 36.4392C7.55516 36.4392 7.45242 36.3925 7.39638 36.2991C7.31232 36.159 7.34968 35.9816 7.48978 35.8975C7.52714 35.8695 11.5806 33.3104 11.5245 30.4898C11.4965 29.1636 10.5439 27.9494 8.6946 26.894C8.55451 26.8099 8.50781 26.6325 8.58253 26.4924C8.66659 26.3523 8.84404 26.3056 8.98414 26.3803C11.0295 27.5478 12.0756 28.9207 12.1036 30.4711C12.169 33.6186 7.97544 36.2711 7.79799 36.3832C7.75129 36.4205 7.70459 36.4392 7.64855 36.4392Z" fill="#3F0F33"/>
<path d="M19.7155 38.2882H15.3258C15.2324 38.2882 15.1484 38.2509 15.0923 38.1761C15.0363 38.1014 15.0176 38.0174 15.0363 37.924C15.2698 36.9526 14.4666 34.2628 13.626 32.0679C12.9068 30.172 12.0943 27.3514 12.1877 25.6329C12.2717 24.0638 10.9361 20.5707 10.9268 20.5334C10.8708 20.3839 10.9455 20.2158 11.0949 20.1504C11.2444 20.0944 11.4125 20.1691 11.4779 20.3186C11.5339 20.468 12.8695 23.9704 12.7761 25.6609C12.6827 27.2953 13.4766 30.0225 14.177 31.8531C14.672 33.1607 15.7461 36.1774 15.6621 37.6998H19.2952C19.1178 37.3262 18.7348 36.7658 17.9783 36.6724C17.8569 36.6538 17.7635 36.5697 17.7355 36.4576C17.7261 36.4389 17.1751 34.3562 16.54 31.5729C16.2131 30.1533 16.3065 28.1639 16.3999 26.2493C16.4933 24.372 16.5774 22.5975 16.2318 21.7756C16.1664 21.6261 16.2411 21.458 16.3906 21.3926C16.54 21.3273 16.7081 21.402 16.7735 21.5514C17.1658 22.4947 17.0817 24.3346 16.9883 26.2773C16.8949 28.1546 16.8015 30.0973 17.1097 31.4422C17.6327 33.7398 18.0997 35.561 18.2492 36.1214C19.6408 36.4203 19.977 37.8586 19.9957 37.924C20.0144 38.008 19.9957 38.1014 19.9397 38.1668C19.8836 38.2509 19.7996 38.2882 19.7155 38.2882Z" fill="#3F0F33"/>
<path d="M16.7175 31.1153C16.5961 31.1153 16.4746 31.0312 16.4373 30.9098C16.3906 30.751 16.4746 30.5923 16.6334 30.5456C16.6614 30.5362 19.1365 29.6956 22.4054 24.6895C25.6836 19.6648 24.1612 11.6793 24.1426 11.6046C24.1146 11.4458 24.2173 11.287 24.3761 11.259C24.5348 11.231 24.6843 11.3337 24.7216 11.4925C24.787 11.8287 26.3094 19.7862 22.9004 25.0164C19.5007 30.228 16.923 31.0779 16.8109 31.1059C16.7735 31.1153 16.7455 31.1153 16.7175 31.1153Z" fill="#3F0F33"/>
<path d="M22.7136 38.2882H19.7156C19.5568 38.2882 19.426 38.1575 19.426 37.9987C19.426 37.8399 19.5568 37.7092 19.7156 37.7092H22.368C22.1252 36.5977 21.2846 36.3923 21.2473 36.3829C21.1352 36.3549 21.0511 36.2709 21.0231 36.1588C21.0044 36.056 20.4534 33.6184 20.4627 31.7037C20.4721 29.7797 21.5368 26.0625 21.5835 25.9131C21.6302 25.7543 21.789 25.6703 21.9478 25.7169C22.1065 25.7636 22.1906 25.9224 22.1439 26.0812C22.1345 26.1186 21.0511 29.8731 21.0511 31.7131C21.0511 33.2915 21.4434 35.2995 21.5648 35.8786C21.9664 36.028 22.8631 36.5324 23.0031 37.98C23.0125 38.0641 22.9845 38.1481 22.9284 38.2042C22.8724 38.2509 22.7977 38.2882 22.7136 38.2882Z" fill="#3F0F33"/>
<path d="M18.8656 37.009C18.7442 37.009 18.6414 36.9342 18.5947 36.8222C17.5487 34.1136 18.2492 29.7893 18.2772 29.6119C18.3052 29.4531 18.4546 29.341 18.6134 29.369C18.7722 29.3971 18.8843 29.5465 18.8563 29.7053C18.8469 29.752 18.1558 34.0483 19.1458 36.6073C19.2018 36.7568 19.1271 36.9249 18.9777 36.9903C18.9403 36.9996 18.903 37.009 18.8656 37.009Z" fill="#3F0F33"/>
<path d="M15.3258 37.8401H11.1883C11.0296 37.8401 10.8988 37.7093 10.8988 37.5505C10.8988 37.3917 11.0296 37.261 11.1883 37.261H15.3258C15.4846 37.261 15.6154 37.3917 15.6154 37.5505C15.6154 37.7093 15.494 37.8401 15.3258 37.8401Z" fill="#3F0F33"/>
<path d="M15.2045 36.4391C15.1484 36.4391 15.0924 36.4205 15.0364 36.3924C15.0177 36.3831 13.8689 35.6453 11.4873 36.0188C11.3285 36.0375 11.179 35.9348 11.151 35.776C11.123 35.6172 11.2351 35.4678 11.3939 35.4398C14.0463 35.0288 15.3166 35.8694 15.3633 35.9068C15.494 36.0002 15.5314 36.1776 15.438 36.3177C15.3913 36.3924 15.2979 36.4391 15.2045 36.4391Z" fill="#3F0F33"/>
<path d="M20.248 28.3136C20.1919 28.3136 20.1359 28.2949 20.0798 28.2576C19.9491 28.1642 19.9117 27.9867 20.0051 27.8466C20.0331 27.8093 22.5829 24.0734 22.0879 21.7478C22.0505 21.589 22.1533 21.4302 22.312 21.4022C22.4708 21.3649 22.6296 21.4676 22.6576 21.6264C23.2087 24.2041 20.5935 28.0147 20.4815 28.1829C20.4348 28.2669 20.3414 28.3136 20.248 28.3136Z" fill="#3F0F33"/>
<path d="M18.3145 8.28914C18.0717 8.28914 17.8288 8.21443 17.6327 8.05565L16.8108 7.40187C16.7454 7.34583 16.6987 7.26177 16.6987 7.16838C16.6987 6.52393 17.3899 6.04761 18.3145 6.04761C19.1924 6.04761 19.8836 6.56129 19.8836 7.21507C19.8836 7.30847 19.8462 7.39253 19.7715 7.44857L18.9963 8.05565C18.8002 8.20509 18.5573 8.28914 18.3145 8.28914ZM17.3152 7.04696L17.997 7.58866C18.1837 7.7381 18.4453 7.7381 18.6414 7.58866L19.2765 7.08432C19.1831 6.85082 18.8095 6.62667 18.3145 6.62667C17.8475 6.62667 17.4272 6.81347 17.3152 7.04696Z" fill="#3F0F33"/>
<path d="M16.4933 9.78338C16.3346 9.78338 16.1851 9.75536 16.0637 9.68999C15.4006 9.35375 14.3265 8.41978 14.2798 8.38242C14.1584 8.27968 14.1397 8.09289 14.2518 7.97147C14.3545 7.85006 14.5413 7.83138 14.6627 7.94345C14.6721 7.95279 15.7368 8.86809 16.3346 9.1763C16.6334 9.33508 17.4833 8.93347 18.0344 8.56922V7.99949C18.0344 7.84072 18.1651 7.70996 18.3239 7.70996C18.4827 7.70996 18.6134 7.84072 18.6134 7.99949V8.72799C18.6134 8.82139 18.5667 8.91479 18.492 8.97083C18.2585 9.12026 17.2592 9.78338 16.4933 9.78338Z" fill="#3F0F33"/>
<path d="M18.3146 12.0156C18.1558 12.0156 18.025 11.8849 18.025 11.7261V8.71869C18.025 8.60662 18.0811 8.51322 18.1838 8.45718C18.2772 8.41048 18.3986 8.41048 18.4827 8.47586C19.0244 8.84945 19.9864 9.33512 20.3133 9.167C20.911 8.85879 21.9664 7.9435 21.9851 7.93416C22.1065 7.83142 22.2933 7.84076 22.396 7.96218C22.4988 8.08359 22.4894 8.27039 22.368 8.37312C22.3213 8.41048 21.2472 9.34446 20.5841 9.68069C20.0424 9.96088 19.1645 9.55927 18.6134 9.24172V11.7168C18.6134 11.8849 18.4827 12.0156 18.3146 12.0156Z" fill="#3F0F33"/>
<path d="M18.3146 14.2573C18.3052 14.2573 18.3052 14.2573 18.2959 14.2573C17.6888 14.2199 17.2218 14.0051 16.9043 13.6128C16.3159 12.8843 16.3906 11.7449 16.5027 10.9417C16.6241 10.0918 16.3719 9.63411 16.3719 9.62477C16.2972 9.48467 16.3439 9.30722 16.484 9.22316C16.6241 9.14844 16.8015 9.19514 16.8762 9.3259C16.8949 9.35391 17.2218 9.94232 17.0724 11.007C16.979 11.6982 16.9043 12.6789 17.3432 13.2206C17.558 13.4821 17.8756 13.6222 18.3146 13.6502C18.4733 13.6595 18.5948 13.7996 18.5854 13.9584C18.6041 14.1359 18.4733 14.2573 18.3146 14.2573Z" fill="#3F0F33"/>
<path d="M18.3146 14.2572C18.1651 14.2572 18.0344 14.1358 18.025 13.9863C18.0157 13.8276 18.1371 13.6875 18.2959 13.6781C18.7349 13.6501 19.0524 13.51 19.2766 13.2485C19.7249 12.6975 19.6502 11.7261 19.5474 11.035C19.398 9.97025 19.7342 9.37251 19.7436 9.35383C19.8276 9.21373 20.0051 9.16703 20.1452 9.25109C20.2853 9.33515 20.332 9.5126 20.2572 9.6527C20.2479 9.66204 20.0144 10.1197 20.1265 10.9696C20.2386 11.7635 20.3133 12.9123 19.7249 13.6408C19.4073 14.033 18.9403 14.2479 18.3333 14.2852C18.3333 14.2572 18.3239 14.2572 18.3146 14.2572Z" fill="#3F0F33"/>
<path d="M16.7642 11.4832C16.7269 11.4832 16.6988 11.4739 16.6615 11.4645C15.1391 10.8948 14.8683 9.47518 14.9336 8.80272C14.9523 8.64394 15.0924 8.52253 15.2512 8.54121C15.41 8.55989 15.5314 8.69998 15.5127 8.85876C15.5034 8.92413 15.3913 10.3625 16.867 10.9135C17.0164 10.9695 17.0911 11.1377 17.0351 11.2871C16.9977 11.4085 16.8856 11.4832 16.7642 11.4832Z" fill="#3F0F33"/>
<path d="M19.8649 11.4832C19.7435 11.4832 19.6314 11.4084 19.594 11.2964C19.538 11.1469 19.6127 10.9788 19.7622 10.9228C21.2472 10.3624 21.1164 8.87737 21.1164 8.86803C21.0977 8.70926 21.2192 8.55982 21.3779 8.55048C21.546 8.5318 21.6861 8.65322 21.6955 8.812C21.7609 9.48446 21.49 10.9041 19.9676 11.4738C19.9396 11.4738 19.9023 11.4832 19.8649 11.4832Z" fill="#3F0F33"/>
<path d="M16.4186 5.32843C16.7745 5.32843 17.0631 5.03991 17.0631 4.68399C17.0631 4.32808 16.7745 4.03955 16.4186 4.03955C16.0627 4.03955 15.7742 4.32808 15.7742 4.68399C15.7742 5.03991 16.0627 5.32843 16.4186 5.32843Z" fill="#3F0F33"/>
<path d="M20.5094 5.32843C20.8653 5.32843 21.1539 5.03991 21.1539 4.68399C21.1539 4.32808 20.8653 4.03955 20.5094 4.03955C20.1535 4.03955 19.865 4.32808 19.865 4.68399C19.865 5.03991 20.1535 5.32843 20.5094 5.32843Z" fill="#3F0F33"/>
</svg>
