<svg width="31" height="31" viewBox="0 0 31 31" fill="none" xmlns="http://www.w3.org/2000/svg">
<g clip-path="url(#clip0_1161_481)">
<path d="M23.1349 3.97178C17.8431 -1.32002 9.26357 -1.32002 3.97178 3.97178C-1.32002 9.26357 -1.32002 17.8431 3.97178 23.1349C8.57939 27.7425 15.6755 28.3358 20.931 24.9271L26.4589 30.455C27.1915 31.1876 28.3722 31.1876 29.1048 30.455L30.461 29.0987C31.1937 28.3661 31.1937 27.1855 30.461 26.4528L24.9331 20.9249C28.3358 15.6755 27.7425 8.57334 23.1349 3.97178ZM19.6655 19.6655C16.2931 23.038 10.8136 23.038 7.44111 19.6655C4.06865 16.2931 4.06865 10.8136 7.44111 7.44111C10.8136 4.06865 16.2931 4.06865 19.6655 7.44111C23.038 10.8136 23.0319 16.2931 19.6655 19.6655Z" fill="#F5AD78"/>
</g>
<defs>
<clipPath id="clip0_1161_481">
<rect width="31" height="31" fill="white"/>
</clipPath>
</defs>
</svg>
