<svg width="393" height="507" viewBox="0 0 393 507" fill="none" xmlns="http://www.w3.org/2000/svg">
<path opacity="0.3" d="M317.041 634.757L273.576 591.291L306.879 557.93L306.936 557.987L311.167 553.742L311.11 553.685L335.222 529.515L351.945 546.195L360.407 537.719L343.684 521.039L358.82 505.874L373.985 490.737L390.665 507.46L399.141 498.998L382.461 482.275L406.631 458.162L406.688 458.219L410.933 453.988L410.876 453.931L444.25 420.627L487.716 464.094L496.206 455.632L452.74 412.166L514.787 350.247L531.467 366.97L539.957 358.494L523.277 341.771L540 325.09L531.538 316.6L514.815 333.28L453.026 271.361L444.565 262.885L382.775 200.966L399.498 184.285L391.037 175.809L374.314 192.49L364.223 182.384L361.636 179.797L357.619 175.766L347.514 165.69L364.194 148.966L355.718 140.505L339.038 157.228L206.741 25.1851L223.421 8.46176L214.945 2.84172e-05L198.265 16.7234L181.542 0.042878L173.081 8.51889L189.804 25.1994L165.677 49.3696L165.62 49.3124L161.389 53.5575L161.446 53.6147L127.7 87.4187L77.5453 37.263L69.0837 45.7391L119.238 95.8948L78.0741 137.146L78.017 137.088L73.7861 141.319L73.8433 141.376L57.7636 157.499L41.0406 140.819L32.5791 149.295L49.302 165.99L34.1656 181.155L19.0006 196.292L2.32045 179.569L-6.15538 188.03L10.5247 204.754L-5.59794 220.834L-5.65513 220.777L-9.90019 225.007L-9.843 225.065L-51.093 266.23L-101.248 216.074L-109.723 224.536L-59.5688 274.691L-93.3721 308.438L-93.4293 308.381L-97.6743 312.612L-97.6172 312.669L-121.787 336.796L-138.481 320.073L-146.957 328.535L-130.277 345.258L-147 361.939L-138.538 370.415L-121.815 353.734L10.2246 486.034L-6.49837 502.715L1.96312 511.205L18.6861 494.51L28.7771 504.616L32.8078 508.646L35.3805 511.234L45.4858 521.31L28.8057 538.034L37.2815 546.496L53.9616 529.772L115.88 591.563L124.355 600.024L186.259 661.815L169.579 678.538L178.055 687L194.735 670.277L211.458 687L219.919 678.51L203.196 661.829L265.114 599.796L308.58 643.262L317.041 634.772L317.041 634.757ZM198.522 298.033L176.482 276.049L238.272 214.13L260.297 236.128L198.508 298.047L198.522 298.033ZM269.216 227.194L246.748 205.64L280.179 172.136L302.219 194.119L269.231 227.18L269.216 227.194ZM330.563 165.733L306.436 189.903L203.94 87.6045L228.066 63.4343L330.563 165.733ZM198.38 157.385L166.277 125.339L199.709 91.8354L275.934 167.905L242.502 201.409L206.87 165.847L198.394 157.385L198.38 157.385ZM148.439 207.426L116.337 175.381L157.816 133.815L189.918 165.861L148.439 207.426ZM144.209 211.672L128.129 227.78L66.2108 165.99L82.2906 149.881L144.209 211.672ZM57.1204 234.513L87.4933 204.139L103.244 219.862L72.8429 250.264L57.1204 234.513ZM42.6128 189.645L44.1565 188.102L57.7493 174.48L83.2768 199.951L52.9182 230.31L27.4478 204.782L41.0692 191.189L42.6128 189.645ZM18.9577 213.244L80.747 275.163L64.6386 291.243L2.84933 229.324L18.9577 213.244ZM60.3935 295.474L18.8291 336.954L-13.2162 304.851L28.334 263.371L60.3792 295.474L60.3935 295.474ZM-21.692 313.312L10.3532 345.415L18.8147 353.891L54.3761 389.525L20.873 422.957L-55.1952 346.73L-21.692 313.298L-21.692 313.312ZM27.3049 345.43L89.2085 283.639L124.77 319.273L62.8662 381.063L27.3049 345.43ZM97.6986 275.177L89.2371 266.701L77.045 254.48L107.461 224.064L119.681 236.256L128.157 244.718L138.791 255.324L108.318 285.797L97.7129 275.163L97.6986 275.177ZM136.605 236.242L198.394 174.337L234.027 209.899L172.237 271.804L136.605 236.242ZM112.092 171.15L86.5213 145.636L127.986 104.085L153.556 129.599L112.078 171.15L112.092 171.15ZM162.032 121.108L136.462 95.5946L169.893 62.0907L195.449 87.6045L162.018 121.108L162.032 121.108ZM223.821 59.2035L199.694 83.3737L174.124 57.8599L198.251 33.6897L223.821 59.2035ZM-87.8264 370.858L-113.34 345.287L-89.17 321.159L-63.6566 346.716L-87.8264 370.843L-87.8264 370.858ZM-59.4116 342.5L-84.9248 316.929L-51.4217 283.496L-25.9085 309.067L-59.4116 342.5ZM-17.4327 300.605L-42.9459 275.034L-1.39573 233.555L24.1175 259.126L-17.4327 300.605ZM18.7004 477.587L-83.5956 375.089L-59.4259 350.961L42.8702 453.46L18.7004 477.587ZM47.1009 449.243L25.118 427.217L58.6212 393.784L80.1752 416.268L47.1152 449.257L47.1009 449.243ZM89.0942 407.349L67.097 385.308L129.015 323.518L150.998 345.558L89.0799 407.349L89.0942 407.349ZM159.488 337.097L112.521 290.028L143.008 259.54L190.075 306.509L174.796 321.817L159.488 337.097ZM413.934 389.982L435.917 412.023L402.414 445.455L380.431 423.429L413.934 389.997L413.934 389.982ZM190.118 367.742L205.397 352.433L220.705 337.168L295.716 412.309L265.271 442.754L190.132 367.756L190.118 367.742ZM195.907 438.709L157.544 400.402L181.671 376.232L220.034 414.538L195.907 438.709ZM229.181 328.692L253.351 304.565L291.657 342.928L267.487 367.056L229.181 328.692ZM350.373 497.398L348.829 498.941L335.236 512.563L294.372 471.769L324.76 441.382L365.552 482.246L351.931 495.84L350.387 497.383L350.373 497.398ZM290.142 467.581L269.474 446.956L299.904 416.525L320.529 437.194L290.127 467.596L290.142 467.581ZM326.761 521.053L302.634 545.223L200.138 442.925L224.264 418.755L326.761 521.053ZM374.014 473.799L271.718 371.301L295.887 347.173L398.183 449.672L374.014 473.799ZM444.536 279.837L480.097 315.471L418.194 377.261L382.632 341.628L444.55 279.837L444.536 279.837ZM374.142 350.089L409.704 385.737L376.201 419.17L300.132 342.943L333.621 309.51L365.666 341.613L374.128 350.089L374.142 350.089ZM342.126 301.048L383.676 259.569L415.721 291.672L374.157 333.152L342.111 301.048L342.126 301.048ZM374.285 209.456L436.075 271.375L419.966 287.455L358.177 225.536L374.3 209.456L374.285 209.456ZM353.932 229.767L379.445 255.338L337.895 296.818L312.382 271.247L353.932 229.767ZM329.405 305.265L295.902 338.697L257.596 300.334L290.456 267.545L329.405 305.265ZM353.231 188.345L365.824 200.966L349.701 217.046L349.644 216.989L345.399 221.22L345.456 221.277L303.906 262.756L277.578 235.77L310.681 202.595L310.738 202.652L314.969 198.407L314.912 198.35L339.038 174.18L353.231 188.345ZM183.257 330.293L184.658 328.892L198.537 314.985L204.311 320.731L212.244 328.678L198.337 342.557L196.936 343.957L195.535 345.358L181.657 359.266L173.71 351.347L167.964 345.573L181.871 331.694L183.272 330.293L183.257 330.293ZM173.181 367.756L111.892 429.175L97.5557 415.825L159.459 354.034L173.181 367.756ZM220.72 320.216L206.998 306.494L268.788 244.589L282.137 258.926L220.72 320.216ZM41.3265 500.256L27.162 486.063L51.3317 461.936L51.3889 461.993L55.6339 457.762L55.5767 457.705L88.7511 424.601L115.737 450.93L74.2579 492.495L74.2007 492.438L69.97 496.683L70.0271 496.74L53.9473 512.849L41.3265 500.256ZM120.525 437.479L153.313 404.633L191.676 442.94L158.244 476.429L120.525 437.479ZM124.212 459.406L149.783 484.919L108.304 526.485L82.7337 500.971L124.212 459.42L124.212 459.406ZM62.4232 521.325L78.5029 505.202L140.407 566.992L124.327 583.101L62.4089 521.31L62.4232 521.325ZM154.014 489.15L186.116 521.196L144.637 562.761L112.535 530.716L154.014 489.15ZM194.578 512.72L162.475 480.674L195.907 447.17L272.132 523.24L238.701 556.744L203.068 521.182L194.578 512.72ZM132.817 591.577L194.606 529.672L230.239 565.234L168.45 627.153L132.817 591.591L132.817 591.577ZM276.377 527.485L298.417 549.469L264.986 582.972L242.946 560.989L276.377 527.485ZM172.68 631.37L234.47 569.451L256.51 591.448L194.721 653.368L172.68 631.37ZM444.407 403.547L422.425 381.506L484.342 319.716L506.34 341.756L444.422 403.547L444.407 403.547Z" fill="url(#paint0_linear_508_1054)"/>
<defs>
<linearGradient id="paint0_linear_508_1054" x1="196.493" y1="507.446" x2="196.493" y2="41.694" gradientUnits="userSpaceOnUse">
<stop stop-color="#F37C20"/>
<stop offset="0.23" stop-color="#F37C20" stop-opacity="0.71"/>
<stop offset="0.49" stop-color="#F37C20" stop-opacity="0.41"/>
<stop offset="0.72" stop-color="#F37C20" stop-opacity="0.19"/>
<stop offset="0.89" stop-color="#F37C20" stop-opacity="0.05"/>
<stop offset="1" stop-color="#F37C20" stop-opacity="0"/>
</linearGradient>
</defs>
</svg>
