<svg width="28" height="28" viewBox="0 0 28 28" fill="none" xmlns="http://www.w3.org/2000/svg">
<g clip-path="url(#clip0_1376_1127)">
<path d="M20 11C23.0375 11 25.5 8.53753 25.5 5.49998C25.5 2.46242 23.0375 0 20 0C16.9624 0 14.5 2.46242 14.5 5.49998C14.5 8.53753 16.9624 11 20 11Z" fill="#F7DED0"/>
<path d="M7.99998 11C11.0375 11 13.5 8.53753 13.5 5.49998C13.5 2.46242 11.0375 0 7.99998 0C4.96242 0 2.5 2.46242 2.5 5.49998C2.5 8.53753 4.96242 11 7.99998 11Z" fill="#F7DED0"/>
<path d="M4.14651 15.1463C4.42788 14.865 4.58593 14.4835 4.58593 14.0856C4.58593 13.6877 4.42788 13.3061 4.14651 13.0248L2.41401 11.2928C2.02349 10.9024 1.39054 10.9024 1.00001 11.2928L0.293014 11.9998C-0.0973457 12.3903 -0.0973457 13.0233 0.293014 13.4138L2.02502 15.1463C2.30633 15.4276 2.68789 15.5857 3.08574 15.5857C3.48365 15.5857 3.8652 15.4276 4.14651 15.1463Z" fill="#F7DED0"/>
<path d="M9.99999 12H5.99999C5.55778 12.0008 5.117 12.0511 4.68601 12.15L4.85352 12.3175C5.82253 13.2951 5.81908 14.872 4.84581 15.8453C3.87253 16.8186 2.29556 16.822 1.31803 15.853L0.688026 15.223C0.235323 16.0786 -0.000872578 17.032 2.42227e-06 18V26.5C2.42227e-06 27.3284 0.671565 28 1.50003 28C2.32849 28 3.00005 27.3284 3.00005 26.5V18.5C3.00005 18.2239 3.22389 18 3.50006 18C3.77623 18 4.00006 18.2238 4.00006 18.5V26.5C3.99739 27.0425 3.81741 27.5693 3.48759 28H12.5131C12.1822 27.5699 12.0019 27.0428 12.0001 26.5V18.5C12.0001 18.2239 12.2239 18 12.5001 18C12.7763 18 13.0001 18.2238 13.0001 18.5V26.5C13.0001 27.3284 13.6717 28 14.5001 28C15.3285 28 16.0001 27.3285 16.0001 26.5V18C15.9964 14.6878 13.3123 12.0036 9.99999 12Z" fill="#F7DED0"/>
<path d="M22.0001 12H13.587C15.7009 13.2604 16.997 15.5389 17 18V26.5C16.9973 27.0425 16.8174 27.5693 16.4876 28H24.5131C24.1821 27.5699 24.0019 27.0428 24 26.5V18.5C24 18.2239 24.2239 18 24.5 18C24.7762 18 25 18.2238 25 18.5V26.5C25 27.3284 25.6716 28 26.5001 28C27.3285 28 28 27.3284 28 26.5V18C27.9965 14.6878 25.3123 12.0036 22.0001 12Z" fill="#F7DED0"/>
</g>
<defs>
<clipPath id="clip0_1376_1127">
<rect width="28" height="28" fill="white"/>
</clipPath>
</defs>
</svg>
