<svg width="19" height="19" viewBox="0 0 19 19" fill="none" xmlns="http://www.w3.org/2000/svg">
<g clip-path="url(#clip0_112_6614)">
<path d="M2.23542 10.338C3.47001 10.338 4.47085 8.89941 4.47085 7.12481C4.47085 5.35022 3.47001 3.91162 2.23542 3.91162C1.00083 3.91162 0 5.35022 0 7.12481C0 8.89941 1.00083 10.338 2.23542 10.338Z" fill="#F37C20"/>
<path d="M6.70613 6.42638C7.94072 6.42638 8.94155 4.98779 8.94155 3.21319C8.94155 1.4386 7.94072 0 6.70613 0C5.47154 0 4.4707 1.4386 4.4707 3.21319C4.4707 4.98779 5.47154 6.42638 6.70613 6.42638Z" fill="#F37C20"/>
<path d="M15.6471 12.8526C13.7726 12.2278 13.4116 10.0582 12.2936 8.9401C11.1762 7.82275 9.49984 7.82275 9.49984 7.82275C9.49984 7.82275 7.82346 7.82275 6.70611 8.9401C5.58803 10.0574 5.22776 12.2271 3.35334 12.8526C1.67623 13.4124 1.11719 15.0881 1.11719 16.4853C1.11719 17.8825 2.23526 18.9999 4.47069 18.9999C6.70611 18.9999 8.10334 18.1624 9.49984 18.1624C10.8971 18.1624 12.2936 18.9999 14.5297 18.9999C16.7651 18.9999 17.8825 17.8825 17.8825 16.4853C17.8825 15.0881 17.3235 13.4124 15.6471 12.8526Z" fill="#F37C20"/>
<path d="M16.7647 10.338C17.9993 10.338 19.0001 8.89941 19.0001 7.12481C19.0001 5.35022 17.9993 3.91162 16.7647 3.91162C15.5301 3.91162 14.5293 5.35022 14.5293 7.12481C14.5293 8.89941 15.5301 10.338 16.7647 10.338Z" fill="#F37C20"/>
<path d="M12.294 6.42638C13.5286 6.42638 14.5294 4.98779 14.5294 3.21319C14.5294 1.4386 13.5286 0 12.294 0C11.0594 0 10.0586 1.4386 10.0586 3.21319C10.0586 4.98779 11.0594 6.42638 12.294 6.42638Z" fill="#F37C20"/>
</g>
<defs>
<clipPath id="clip0_112_6614">
<rect width="19" height="19" fill="white"/>
</clipPath>
</defs>
</svg>
