<svg width="15" height="15" viewBox="0 0 15 15" fill="none" xmlns="http://www.w3.org/2000/svg">
<path d="M2.25551 8.0213C3.16276 8.0213 3.89822 6.96414 3.89822 5.66006C3.89822 4.35599 3.16276 3.29883 2.25551 3.29883C1.34826 3.29883 0.612793 4.35599 0.612793 5.66006C0.612793 6.96414 1.34826 8.0213 2.25551 8.0213Z" fill="#FCBD7B"/>
<path d="M5.54115 5.14679C6.4484 5.14679 7.18387 4.08963 7.18387 2.78555C7.18387 1.48148 6.4484 0.424316 5.54115 0.424316C4.63391 0.424316 3.89844 1.48148 3.89844 2.78555C3.89844 4.08963 4.63391 5.14679 5.54115 5.14679Z" fill="#FCBD7B"/>
<path d="M12.1115 9.8691C10.734 9.40995 10.4688 7.81557 9.64713 6.99394C8.82604 6.17285 7.59413 6.17285 7.59413 6.17285C7.59413 6.17285 6.36223 6.17285 5.54114 6.99394C4.71951 7.81503 4.45477 9.40942 3.07734 9.8691C1.8449 10.2804 1.43408 11.5118 1.43408 12.5386C1.43408 13.5653 2.25571 14.3864 3.89842 14.3864C5.54114 14.3864 6.5679 13.771 7.59413 13.771C8.6209 13.771 9.64713 14.3864 11.2904 14.3864C12.9331 14.3864 13.7542 13.5653 13.7542 12.5386C13.7542 11.5118 13.3434 10.2804 12.1115 9.8691Z" fill="#FCBD7B"/>
<path d="M12.9328 8.0213C13.84 8.0213 14.5755 6.96414 14.5755 5.66006C14.5755 4.35599 13.84 3.29883 12.9328 3.29883C12.0255 3.29883 11.29 4.35599 11.29 5.66006C11.29 6.96414 12.0255 8.0213 12.9328 8.0213Z" fill="#FCBD7B"/>
<path d="M9.64711 5.14679C10.5544 5.14679 11.2898 4.08963 11.2898 2.78555C11.2898 1.48148 10.5544 0.424316 9.64711 0.424316C8.73986 0.424316 8.00439 1.48148 8.00439 2.78555C8.00439 4.08963 8.73986 5.14679 9.64711 5.14679Z" fill="#FCBD7B"/>
</svg>
